<mxfile host="Electron" agent="Mozilla/5.0 (Windows NT 10.0; Win64; x64) AppleWebKit/537.36 (KHTML, like Gecko) draw.io/26.2.2 Chrome/134.0.6998.178 Electron/35.1.2 Safari/537.36" version="26.2.2">
  <diagram name="Page-1" id="kGzlTUpNQUmZDkRe_ut6">
    <mxGraphModel dx="2307" dy="433" grid="1" gridSize="10" guides="1" tooltips="1" connect="1" arrows="0" fold="1" page="0" pageScale="1" pageWidth="827" pageHeight="1169" background="none" math="0" shadow="0">
      <root>
        <mxCell id="0" />
        <mxCell id="1" parent="0" />
        <mxCell id="Mj89tKXQSyuhwqXj9ipI-8" value="&lt;div&gt;&lt;b&gt;Reálizácia eGovernmentu - centrálne komunikačné kompenty&lt;/b&gt;&lt;br&gt;&lt;div&gt;305/2013&amp;nbsp;&lt;span style=&quot;text-align: justify;&quot;&gt;o elektronickej podobe výkonu pôsobnosti orgánov verejnej moci a niektoré ďalšie zákony&lt;/span&gt;&lt;/div&gt;&lt;/div&gt;" style="html=1;outlineConnect=0;whiteSpace=wrap;shape=mxgraph.archimate3.application;appType=grouping;archiType=square;dashed=1;fillColor=#D2D7D7;verticalAlign=top;strokeColor=#000000;" parent="1" vertex="1">
          <mxGeometry x="200" y="1920" width="1040" height="180" as="geometry" />
        </mxCell>
        <mxCell id="v1EW0JT8d4S7AqYUZW40-17" value="Monitoring" style="html=1;outlineConnect=0;whiteSpace=wrap;fillColor=#33CC66;shape=mxgraph.archimate3.application;appType=sysSw;archiType=square;strokeColor=#000000;verticalAlign=top;" parent="1" vertex="1">
          <mxGeometry x="1030" y="1970" width="170" height="110" as="geometry" />
        </mxCell>
        <mxCell id="5Y0m7SEWrtOaW2OVviik-11" value="&lt;div style=&quot;font-size: 12px;&quot;&gt;&lt;b&gt;Reálny svet&lt;/b&gt;&lt;/div&gt;" style="html=1;outlineConnect=0;whiteSpace=wrap;shape=mxgraph.archimate3.application;appType=grouping;archiType=square;dashed=1;fillColor=#D2D7D7;fontFamily=Helvetica;fontSize=11;labelBackgroundColor=none;verticalAlign=top;strokeColor=#000000;" parent="1" vertex="1">
          <mxGeometry x="40" y="1160" width="120" height="720" as="geometry" />
        </mxCell>
        <mxCell id="v1EW0JT8d4S7AqYUZW40-4" value="Právne predpisy" style="html=1;outlineConnect=0;whiteSpace=wrap;fillColor=#D2D7D7;shape=mxgraph.archimate3.application;appType=contract;archiType=square;verticalAlign=top;spacingTop=9;strokeColor=#000000;" parent="1" vertex="1">
          <mxGeometry x="60" y="1220" width="80" height="190" as="geometry" />
        </mxCell>
        <mxCell id="nRFMR0SAhJJAzwHKPwyQ-186" value="&lt;b style=&quot;font-size: 12px;&quot;&gt;Digitálny obraz&lt;/b&gt;&lt;div style=&quot;font-size: 12px;&quot;&gt;reálneho sveta &lt;br&gt;(&lt;span style=&quot;background-color: transparent; color: light-dark(rgb(0, 0, 0), rgb(255, 255, 255));&quot;&gt;niektorých aspektov)&lt;/span&gt;&lt;/div&gt;&lt;div style=&quot;font-size: 12px;&quot;&gt;&lt;br&gt;&lt;/div&gt;&lt;div style=&quot;font-size: 12px;&quot;&gt;&lt;br&gt;&lt;/div&gt;" style="html=1;outlineConnect=0;whiteSpace=wrap;shape=mxgraph.archimate3.application;appType=grouping;archiType=square;dashed=1;fillColor=#D2D7D7;fontFamily=Helvetica;fontSize=11;labelBackgroundColor=none;verticalAlign=top;strokeColor=#000000;" parent="1" vertex="1">
          <mxGeometry x="200" y="1160" width="320" height="720" as="geometry" />
        </mxCell>
        <mxCell id="Mj89tKXQSyuhwqXj9ipI-14" value="&lt;div&gt;&lt;b&gt;Riadenie eGovernmentu&lt;/b&gt;&lt;/div&gt;&lt;div&gt;95/2019 Z. z.&amp;nbsp;&lt;span style=&quot;text-align: justify;&quot;&gt;o informačných technológiách vo verejnej správe&lt;/span&gt;&lt;/div&gt;" style="html=1;outlineConnect=0;whiteSpace=wrap;shape=mxgraph.archimate3.application;appType=grouping;archiType=square;dashed=1;fillColor=#D2D7D7;verticalAlign=top;strokeColor=#000000;" parent="1" vertex="1">
          <mxGeometry x="560" y="1160" width="680" height="720" as="geometry" />
        </mxCell>
        <mxCell id="b4YsowTs5IO4OCW3UgzT-64" value="&lt;b&gt;MetaIS&lt;/b&gt;&lt;div&gt;&lt;br&gt;&lt;div style=&quot;text-align: left;&quot;&gt;podľa 95/2019 §3c obsahom MetaIS sú&amp;nbsp;&lt;span style=&quot;background-color: transparent; color: light-dark(rgb(0, 0, 0), rgb(255, 255, 255));&quot;&gt;najmä technologické, administratívne a organizačné údaje o prevádzkovaných informačných technológiách verejnej správy,&lt;/span&gt;&lt;/div&gt;&lt;/div&gt;" style="html=1;outlineConnect=0;whiteSpace=wrap;fillColor=#66CCFF;shape=mxgraph.archimate3.application;appType=comp;archiType=square;strokeColor=#000000;verticalAlign=top;spacing=6;" parent="1" vertex="1">
          <mxGeometry x="590" y="1220" width="620" height="420" as="geometry" />
        </mxCell>
        <mxCell id="Mj89tKXQSyuhwqXj9ipI-2" value="Register kompetencií&lt;br&gt;&lt;div style=&quot;font-weight: 400;&quot;&gt;&lt;b&gt;&lt;br&gt;&lt;/b&gt;&lt;/div&gt;&lt;div style=&quot;text-align: left;&quot;&gt;&lt;span style=&quot;font-weight: normal;&quot;&gt;Kompetencie vychádzajú zo z&lt;/span&gt;&lt;span style=&quot;font-weight: 400; background-color: transparent; color: light-dark(rgb(0, 0, 0), rgb(255, 255, 255));&quot;&gt;ákona č. 575/2001 Z. z. o organizácii činnosti vlády a organizácii ústrednej štátnej správy (tzv. kompetenčný zákon), spolu s osobitnými zákonmi upravujúcimi jednotlivé agendy&lt;/span&gt;&lt;/div&gt;" style="html=1;outlineConnect=0;whiteSpace=wrap;fillColor=#66CCFF;shape=mxgraph.archimate3.application;appType=comp;archiType=square;strokeColor=#000000;verticalAlign=top;fontStyle=1;spacing=5;" parent="1" vertex="1">
          <mxGeometry x="230" y="1220" width="260" height="150" as="geometry" />
        </mxCell>
        <mxCell id="Mj89tKXQSyuhwqXj9ipI-3" value="&lt;div style=&quot;text-align: center;&quot;&gt;&lt;span style=&quot;background-color: transparent; color: light-dark(rgb(0, 0, 0), rgb(255, 255, 255));&quot;&gt;Register oprávnení&lt;/span&gt;&lt;/div&gt;&lt;div&gt;&lt;br&gt;&lt;div&gt;&lt;span style=&quot;font-weight: normal;&quot;&gt;Obsahuje digitálny obraz oprávnení pre vykonanie činnosti, prístupu k údajom. Vychádza z legislatívy ktorá definuje oprávnenia na základe kompetencií a skutočností zachytených v AIS. Právnym základom sú príslušné právne predpisy.&lt;/span&gt;&lt;/div&gt;&lt;/div&gt;" style="html=1;outlineConnect=0;whiteSpace=wrap;fillColor=#66CCFF;shape=mxgraph.archimate3.application;appType=comp;archiType=square;strokeColor=#000000;verticalAlign=top;fontStyle=1;align=left;spacing=5;" parent="1" vertex="1">
          <mxGeometry x="230" y="1410" width="260" height="150" as="geometry" />
        </mxCell>
        <mxCell id="Mj89tKXQSyuhwqXj9ipI-5" value="CSRU / OverSi" style="html=1;outlineConnect=0;whiteSpace=wrap;fillColor=#33CC66;shape=mxgraph.archimate3.application;appType=sysSw;archiType=square;strokeColor=#000000;verticalAlign=top;" parent="1" vertex="1">
          <mxGeometry x="230" y="1970" width="170" height="110" as="geometry" />
        </mxCell>
        <mxCell id="PhzSfmGoKHry_nglsGGV-2" value="&lt;span style=&quot;&quot;&gt;+ automatizácia overenia oprávnenia&lt;/span&gt;" style="html=1;outlineConnect=0;whiteSpace=wrap;fillColor=#007B28;shape=mxgraph.archimate3.application;appType=func;archiType=rounded;align=left;strokeColor=#000000;fontColor=#FFFFFF;spacing=4;" parent="1" vertex="1">
          <mxGeometry x="240" y="2000" width="150" height="50" as="geometry" />
        </mxCell>
        <mxCell id="b4YsowTs5IO4OCW3UgzT-3" value="CAMP" style="html=1;outlineConnect=0;whiteSpace=wrap;fillColor=#33CC66;shape=mxgraph.archimate3.application;appType=sysSw;archiType=square;strokeColor=#000000;verticalAlign=top;" parent="1" vertex="1">
          <mxGeometry x="430" y="1970" width="170" height="110" as="geometry" />
        </mxCell>
        <mxCell id="b4YsowTs5IO4OCW3UgzT-4" value="&lt;span style=&quot;&quot;&gt;+ automatizácia overenia oprávnenia&lt;/span&gt;" style="html=1;outlineConnect=0;whiteSpace=wrap;fillColor=#007B28;shape=mxgraph.archimate3.application;appType=func;archiType=rounded;align=left;strokeColor=#000000;fontColor=#FFFFFF;spacing=4;" parent="1" vertex="1">
          <mxGeometry x="440" y="2000" width="150" height="50" as="geometry" />
        </mxCell>
        <mxCell id="b4YsowTs5IO4OCW3UgzT-6" value="MOU" style="html=1;outlineConnect=0;whiteSpace=wrap;fillColor=#33CC66;shape=mxgraph.archimate3.application;appType=sysSw;archiType=square;strokeColor=#000000;verticalAlign=top;" parent="1" vertex="1">
          <mxGeometry x="630" y="1970" width="170" height="110" as="geometry" />
        </mxCell>
        <mxCell id="b4YsowTs5IO4OCW3UgzT-7" value="&lt;span style=&quot;&quot;&gt;+ súhlas nad rámec oprávnení vyplývajúcich z legislatívy&lt;/span&gt;" style="html=1;outlineConnect=0;whiteSpace=wrap;fillColor=#007B28;shape=mxgraph.archimate3.application;appType=func;archiType=rounded;align=left;strokeColor=#000000;fontColor=#FFFFFF;spacing=4;" parent="1" vertex="1">
          <mxGeometry x="640" y="2000" width="150" height="50" as="geometry" />
        </mxCell>
        <mxCell id="b4YsowTs5IO4OCW3UgzT-12" value="Infraštuktúrna služba" style="html=1;outlineConnect=0;whiteSpace=wrap;fillColor=#FFFFFF;shape=mxgraph.archimate3.application;appType=passive;archiType=square;verticalAlign=middle;strokeColor=#000000;" parent="1" vertex="1">
          <mxGeometry x="1010" y="1300" width="180" height="50" as="geometry" />
        </mxCell>
        <mxCell id="b4YsowTs5IO4OCW3UgzT-13" value="Referenčný register" style="html=1;outlineConnect=0;whiteSpace=wrap;fillColor=#FFFFFF;shape=mxgraph.archimate3.application;appType=passive;archiType=square;verticalAlign=middle;strokeColor=#000000;" parent="1" vertex="1">
          <mxGeometry x="1010" y="1360" width="180" height="50" as="geometry" />
        </mxCell>
        <mxCell id="b4YsowTs5IO4OCW3UgzT-46" value="Ciele, Princípy, KRIT" style="html=1;outlineConnect=0;whiteSpace=wrap;fillColor=#FFFFFF;shape=mxgraph.archimate3.application;appType=passive;archiType=square;verticalAlign=middle;strokeColor=#000000;" parent="1" vertex="1">
          <mxGeometry x="610" y="1300" width="180" height="50" as="geometry" />
        </mxCell>
        <mxCell id="b4YsowTs5IO4OCW3UgzT-47" value="Programy, Projekt, Aktivity" style="html=1;outlineConnect=0;whiteSpace=wrap;fillColor=#FFFFFF;shape=mxgraph.archimate3.application;appType=passive;archiType=square;verticalAlign=middle;strokeColor=#000000;" parent="1" vertex="1">
          <mxGeometry x="610" y="1360" width="180" height="50" as="geometry" />
        </mxCell>
        <mxCell id="b4YsowTs5IO4OCW3UgzT-48" value="Orgány riadenia,&amp;nbsp;&lt;span style=&quot;&quot;&gt;, správca&amp;nbsp;&lt;/span&gt;&lt;div style=&quot;&quot;&gt;&lt;span style=&quot;&quot;&gt;IS ...&amp;nbsp;&lt;/span&gt;&lt;span style=&quot;background-color: transparent; color: light-dark(rgb(0, 0, 0), rgb(255, 255, 255));&quot;&gt;sa budú mapovať na OVM definované v RKO&lt;/span&gt;&lt;/div&gt;" style="html=1;outlineConnect=0;whiteSpace=wrap;fillColor=#FF9800;shape=mxgraph.archimate3.application;appType=passive;archiType=square;verticalAlign=middle;strokeColor=#000000;align=left;" parent="1" vertex="1">
          <mxGeometry x="810" y="1300" width="180" height="50" as="geometry" />
        </mxCell>
        <mxCell id="b4YsowTs5IO4OCW3UgzT-49" value="Koncová služba&lt;br&gt;&lt;div style=&quot;&quot;&gt;&lt;span style=&quot;background-color: transparent;&quot;&gt;biznis vrstva: KS, agendy, úseky do RKO&lt;/span&gt;&lt;/div&gt;" style="html=1;outlineConnect=0;whiteSpace=wrap;fillColor=#D32300;shape=mxgraph.archimate3.application;appType=passive;archiType=square;verticalAlign=middle;strokeColor=#000000;fontColor=#FFFFFF;align=left;" parent="1" vertex="1">
          <mxGeometry x="610" y="1570" width="180" height="50" as="geometry" />
        </mxCell>
        <mxCell id="b4YsowTs5IO4OCW3UgzT-50" value="Formulár&lt;div&gt;bude odkazovať na služby, činnosti v RKO&lt;/div&gt;" style="html=1;outlineConnect=0;whiteSpace=wrap;fillColor=#FF9800;shape=mxgraph.archimate3.application;appType=passive;archiType=square;verticalAlign=middle;strokeColor=#000000;noLabel=0;container=0;collapsible=0;metaEdit=0;enumerate=0;comic=0;align=left;" parent="1" vertex="1">
          <mxGeometry x="810" y="1360" width="180" height="50" as="geometry" />
        </mxCell>
        <mxCell id="b4YsowTs5IO4OCW3UgzT-51" value="Aplikačná služba" style="html=1;outlineConnect=0;whiteSpace=wrap;fillColor=#FFFFFF;shape=mxgraph.archimate3.application;appType=passive;archiType=square;verticalAlign=middle;strokeColor=#000000;" parent="1" vertex="1">
          <mxGeometry x="810" y="1480" width="180" height="50" as="geometry" />
        </mxCell>
        <mxCell id="b4YsowTs5IO4OCW3UgzT-52" value="IS VS" style="html=1;outlineConnect=0;whiteSpace=wrap;fillColor=#FFFFFF;shape=mxgraph.archimate3.application;appType=passive;archiType=square;verticalAlign=middle;strokeColor=#000000;" parent="1" vertex="1">
          <mxGeometry x="810" y="1420" width="180" height="50" as="geometry" />
        </mxCell>
        <mxCell id="b4YsowTs5IO4OCW3UgzT-53" value="Štandardizácia" style="html=1;outlineConnect=0;whiteSpace=wrap;fillColor=#FFFFFF;shape=mxgraph.archimate3.application;appType=passive;archiType=square;verticalAlign=middle;strokeColor=#000000;" parent="1" vertex="1">
          <mxGeometry x="610" y="1420" width="180" height="50" as="geometry" />
        </mxCell>
        <mxCell id="b4YsowTs5IO4OCW3UgzT-55" value="Zostavy a monitoring" style="html=1;outlineConnect=0;whiteSpace=wrap;fillColor=#FFFFFF;shape=mxgraph.archimate3.application;appType=passive;archiType=square;verticalAlign=middle;strokeColor=#000000;" parent="1" vertex="1">
          <mxGeometry x="610" y="1480" width="180" height="50" as="geometry" />
        </mxCell>
        <mxCell id="b4YsowTs5IO4OCW3UgzT-57" value="&lt;b&gt;CMÚ - Centrálny model údajov&lt;/b&gt;&lt;div&gt;&lt;br&gt;&lt;div style=&quot;text-align: left;&quot;&gt;&lt;span style=&quot;background-color: transparent; color: light-dark(rgb(0, 0, 0), rgb(255, 255, 255));&quot;&gt;78/2020 §2 c) m) o)&lt;/span&gt;&lt;/div&gt;&lt;/div&gt;" style="html=1;outlineConnect=0;whiteSpace=wrap;fillColor=#66CCFF;shape=mxgraph.archimate3.application;appType=comp;archiType=square;strokeColor=#000000;verticalAlign=top;spacing=4;" parent="1" vertex="1">
          <mxGeometry x="590" y="1660" width="620" height="190" as="geometry" />
        </mxCell>
        <mxCell id="b4YsowTs5IO4OCW3UgzT-60" value="+ Monitoring a RUN informácie&amp;nbsp;&lt;span style=&quot;background-color: transparent; color: light-dark(rgb(255, 255, 255), rgb(18, 18, 18));&quot;&gt;o IS, AS, ...&lt;/span&gt;" style="html=1;outlineConnect=0;whiteSpace=wrap;fillColor=#007B28;shape=mxgraph.archimate3.application;appType=func;archiType=rounded;align=center;strokeColor=#000000;fontColor=#FFFFFF;spacing=4;" parent="1" vertex="1">
          <mxGeometry x="1040" y="2000" width="150" height="50" as="geometry" />
        </mxCell>
        <mxCell id="b4YsowTs5IO4OCW3UgzT-61" value="&lt;span style=&quot;&quot;&gt;Referencovateľné identifikátory&lt;/span&gt;&lt;div&gt;&lt;span style=&quot;&quot;&gt;patria do CMÚ.&lt;/span&gt;&lt;/div&gt;" style="html=1;outlineConnect=0;whiteSpace=wrap;fillColor=#FF9800;shape=mxgraph.archimate3.application;appType=passive;archiType=square;verticalAlign=bottom;strokeColor=#000000;align=left;" parent="1" vertex="1">
          <mxGeometry x="1010" y="1570" width="180" height="50" as="geometry" />
        </mxCell>
        <mxCell id="b4YsowTs5IO4OCW3UgzT-62" value="Číselníky majú bližšie k dátam ako riadeniu informatizácie" style="html=1;outlineConnect=0;whiteSpace=wrap;fillColor=#FF9800;shape=mxgraph.archimate3.application;appType=passive;archiType=square;verticalAlign=middle;strokeColor=#000000;" parent="1" vertex="1">
          <mxGeometry x="810" y="1570" width="180" height="50" as="geometry" />
        </mxCell>
        <mxCell id="b4YsowTs5IO4OCW3UgzT-65" value="&lt;a href=&quot;https://znalosti.gov.sk/&quot;&gt;&lt;span role=&quot;link&quot;&gt;https://znalosti.gov.sk/&lt;/span&gt;&lt;/a&gt;" style="html=1;outlineConnect=0;whiteSpace=wrap;fillColor=#FFFFFF;shape=mxgraph.archimate3.application;appType=comp;archiType=square;strokeColor=#000000;" parent="1" vertex="1">
          <mxGeometry x="610" y="1720" width="180" height="50" as="geometry" />
        </mxCell>
        <mxCell id="b4YsowTs5IO4OCW3UgzT-66" value="CMÚ by sa mal stať referenčným, aby sa naň dalo odkazovať z referenčných." style="html=1;outlineConnect=0;whiteSpace=wrap;fillColor=#007B28;shape=mxgraph.archimate3.application;appType=workPackage;archiType=rounded;strokeColor=#000000;fontColor=#FFFFFF;align=left;spacing=4;" parent="1" vertex="1">
          <mxGeometry x="810" y="1780" width="180" height="50" as="geometry" />
        </mxCell>
        <mxCell id="b4YsowTs5IO4OCW3UgzT-67" value="&lt;span style=&quot;&quot;&gt;Referencovateľné identifikátory. MetaIS sa pri definovaní služieb može na ne odkazovať.&lt;/span&gt;" style="html=1;outlineConnect=0;whiteSpace=wrap;fillColor=#FF9800;shape=mxgraph.archimate3.application;appType=passive;archiType=square;verticalAlign=bottom;strokeColor=#000000;align=left;" parent="1" vertex="1">
          <mxGeometry x="1010" y="1720" width="180" height="50" as="geometry" />
        </mxCell>
        <mxCell id="b4YsowTs5IO4OCW3UgzT-68" value="Ontológie, znalostný graf" style="html=1;outlineConnect=0;whiteSpace=wrap;fillColor=#FFFFFF;shape=mxgraph.archimate3.application;appType=passive;archiType=square;verticalAlign=middle;strokeColor=#000000;" parent="1" vertex="1">
          <mxGeometry x="810" y="1720" width="180" height="50" as="geometry" />
        </mxCell>
        <mxCell id="b4YsowTs5IO4OCW3UgzT-72" value="ÚPVS" style="html=1;outlineConnect=0;whiteSpace=wrap;fillColor=#33CC66;shape=mxgraph.archimate3.application;appType=sysSw;archiType=square;strokeColor=#000000;verticalAlign=top;" parent="1" vertex="1">
          <mxGeometry x="830" y="1970" width="170" height="110" as="geometry" />
        </mxCell>
        <mxCell id="b4YsowTs5IO4OCW3UgzT-73" value="&lt;span style=&quot;&quot;&gt;+ informovanie o kompetenciách a oprávneniach&lt;/span&gt;" style="html=1;outlineConnect=0;whiteSpace=wrap;fillColor=#007B28;shape=mxgraph.archimate3.application;appType=func;archiType=rounded;align=left;strokeColor=#000000;fontColor=#FFFFFF;spacing=4;" parent="1" vertex="1">
          <mxGeometry x="840" y="2000" width="150" height="50" as="geometry" />
        </mxCell>
        <mxCell id="b4YsowTs5IO4OCW3UgzT-75" value="Prehľad o elektronizácii" style="html=1;outlineConnect=0;whiteSpace=wrap;fillColor=#007B28;shape=mxgraph.archimate3.application;appType=func;archiType=rounded;align=center;strokeColor=#000000;fontColor=#FFFFFF;spacing=4;" parent="1" vertex="1">
          <mxGeometry x="1010" y="1480" width="180" height="50" as="geometry" />
        </mxCell>
        <mxCell id="b4YsowTs5IO4OCW3UgzT-71" value="&lt;div style=&quot;text-align: center;&quot;&gt;&lt;span style=&quot;&quot;&gt;&lt;b&gt;Agendové informačné systémy&lt;/b&gt;&lt;/span&gt;&lt;/div&gt;&lt;div&gt;&lt;span style=&quot;&quot;&gt;&lt;br&gt;&lt;/span&gt;&lt;/div&gt;&lt;div&gt;&lt;span style=&quot;&quot;&gt;Agendové IS zachytávajú digitálny obraz reálneho sveta. Podľa&amp;nbsp;&lt;/span&gt;&lt;span style=&quot;background-color: transparent; color: light-dark(rgb(0, 0, 0), rgb(255, 255, 255));&quot;&gt;305/2013 §4 (4) a&lt;/span&gt;&lt;span style=&quot;background-color: transparent; color: light-dark(rgb(0, 0, 0), rgb(255, 255, 255));&quot;&gt;gendové systémy sú informačné systémy verejnej správy&lt;/span&gt;&lt;span style=&quot;background-color: transparent; color: light-dark(rgb(0, 0, 0), rgb(255, 255, 255));&quot;&gt;&amp;nbsp;v správe orgánov verejnej moci, ktoré slúžia na zabezpečenie výkonu verejnej moci v rozsahu pôsobnosti a oprávnení týchto orgánov podľa osobitných predpisov.&lt;/span&gt;&lt;/div&gt;" style="text;strokeColor=#000000;align=left;fillColor=#FFFFFF;html=1;verticalAlign=top;whiteSpace=wrap;rounded=0;spacing=5;" parent="1" vertex="1">
          <mxGeometry x="230" y="1600" width="260" height="250" as="geometry" />
        </mxCell>
        <mxCell id="b4YsowTs5IO4OCW3UgzT-74" value="Elektronická zbierka&amp;nbsp;&lt;div&gt;(Slov-Lex)&lt;/div&gt;" style="html=1;outlineConnect=0;whiteSpace=wrap;fillColor=#D2D7D7;shape=mxgraph.archimate3.application;appType=representation;archiType=square;strokeColor=#000000;verticalAlign=middle;spacingTop=10;fontSize=10;" parent="1" vertex="1">
          <mxGeometry x="70" y="1320" width="60" height="70" as="geometry" />
        </mxCell>
        <mxCell id="5Y0m7SEWrtOaW2OVviik-5" value="" style="shape=image;verticalLabelPosition=bottom;labelBackgroundColor=default;verticalAlign=top;aspect=fixed;imageAspect=0;editableCssRules=.*;image=data:image/svg+xml,PHN2ZyB4bWxuczp4bGluaz0iaHR0cDovL3d3dy53My5vcmcvMTk5OS94bGluayIgeG1sbnM9Imh0dHA6Ly93d3cudzMub3JnLzIwMDAvc3ZnIiB4bWw6c3BhY2U9InByZXNlcnZlIiBzdHlsZT0iZW5hYmxlLWJhY2tncm91bmQ6bmV3IDAgMCAyNTUgMjU1OyIgdmlld0JveD0iMjQuNDU2NTQ0ODc2MDk4NjMzIDM0Ljc5OTk4Nzc5Mjk2ODc1IDIwNi4xNDQyNDEzMzMwMDc4IDE4NS4yOTk5NzI1MzQxNzk3IiB5PSIwcHgiIHg9IjBweCIgaWQ9IkxheWVyXzEiIHZlcnNpb249IjEuMSIgd2lkdGg9IjIwNi4xNDQyNDEzMzMwMDc4IiBoZWlnaHQ9IjE4NS4yOTk5NzI1MzQxNzk3Ij4mI3hhOzxwYXRoIGQ9Ik0yMzAuNSwyMTQuMmMwLDAtNS4xLTI2LjgtOC00MS41Yy0yLjMtMTEuNy0xNy40LTIxLjQtNDQuOC0yOVYxMzJjNS4xLTUuNCwxMC4zLTExLjQsMTIuOC0xNy4zYzEuMS0wLjEsMi0wLjUsMi41LTAuOCYjMTA7JiM5O2MyLjMtMS4yLDQtMy40LDQuNS02YzAuMi0wLjcsMC44LTMuMSwxLjYtNS44YzItNywyLjctOS42LDIuOS0xMC44YzAtMC40LDAuMS0wLjgsMC4xLTEuMmMwLTQuNC0yLjUtOC4yLTYuMi0xMHYtNS40JiMxMDsmIzk7YzAtMjItMTcuOS0zOS45LTM5LjktMzkuOWMtMTMuNiwwLTI2LjEsNy4xLTMzLjQsMTguMmMtNy44LTguNC0xOS0xMy43LTMxLjMtMTMuN2MtMjMuNiwwLTQyLjksMTkuMi00Mi45LDQyLjkmIzEwOyYjOTtjMCwzLjMsMC40LDYuNywxLjEsOS42YzEuOSwxMi4zLDAuOCwyMi44LTMuMSwyOC4yYy0xLjUsMi4xLTEuMiw0LjksMC43LDYuNmM2LjQsNS45LDEzLjksMTAuNCwyMi4yLDEzLjN2MTAuNyYjMTA7JiM5O2MtMTEuOCwyLjQtMjYuNyw2LjYtMzcuNSwxMy41Yy0xLjMsMC44LTIuMSwyLjItMi4zLDMuN2wtNSw0Ni43Yy0wLjIsMS40LDAuMywyLjgsMS4zLDMuOWMwLjksMS4xLDIuMywxLjcsMy43LDEuN2gxMTguNmg1aDcyLjcmIzEwOyYjOTtjMS41LDAsMi45LTAuNywzLjktMS44QzIzMC40LDIxNy4xLDIzMC44LDIxNS42LDIzMC41LDIxNC4yeiBNMTMzLjYsMTMyLjFsMC40LDEyLjRjLTgsMi43LTEzLjgsNS42LTE2LjYsNy4yJiMxMDsmIzk7Yy0xLjUtMC4zLTIuOS0wLjYtNC4zLTAuOVYxNDBjNi43LTIuNCwxMi45LTUuOCwxOC40LTEwLjFDMTMyLjMsMTMwLjcsMTMzLDEzMS40LDEzMy42LDEzMi4xeiBNMzkuMSwxNzEuNSYjMTA7JiM5O2MxMC42LTYuMSwyNS4yLTkuNywzNi0xMS43YzIuNC0wLjQsNC4xLTIuNSw0LjEtNC45di0xOC41YzAtMi4yLTEuNS00LjItMy42LTQuOGMtNy0yLTEzLjMtNS4yLTE4LjgtOS42YzQuOS0xMC4yLDMuOC0yMy45LDIuNS0zMiYjMTA7JiM5O2MtMC42LTIuNi0wLjktNS4yLTAuOS03LjdjMC0xOC4xLDE0LjctMzIuOSwzMi45LTMyLjljMTEuNywwLDIyLDYuMSwyNy44LDE1LjRjMC4xLDAuMiwwLjIsMC40LDAuNCwwLjZjMyw0LjksNC43LDEwLjcsNC43LDE2LjkmIzEwOyYjOTtjMCwyLjUtMC4zLDUtMSw4Yy0xLjIsNy45LTIuMSwyMS42LDIuNSwzMS43Yy01LjUsNC40LTExLjgsNy42LTE4LjgsOS42Yy0yLjEsMC42LTMuNiwyLjYtMy42LDQuOHYxOC41YzAsMi40LDEuNyw0LjUsNC4xLDQuOSYjMTA7JiM5O2MxMC43LDIsMjUuNCw1LjYsMzYsMTEuN2w0LjEsMzguN0gzNC45TDM5LjEsMTcxLjV6IE0xNTcuNCwyMTAuMWwtNC41LTQyLjJjLTAuMi0xLjUtMS0yLjktMi4zLTMuN2MtNS40LTMuNC0xMS44LTYuMi0xOC40LTguNCYjMTA7JiM5O2MyLjUtMSw1LjMtMiw4LjQtMi45YzIuMi0wLjYsMy43LTIuNywzLjYtNWwtMC43LTE4LjFjMC0xLjItMC41LTIuNC0xLjQtMy4zYy0yLjEtMi4yLTQuNC00LjYtNi41LTcuMWMtMC4xLTAuMS0wLjItMC4yLTAuMy0wLjMmIzEwOyYjOTtjLTMuMy01LjUtNC4yLTE1LjQtMi41LTI3YzAuOC0zLjMsMS4yLTYuNiwxLjItOS45YzAtNy4zLTEuOC0xNC4yLTUuMS0yMC4yYzQuOS0xMC4zLDE1LjUtMTcuMSwyNy0xNy4xYzE2LjUsMCwyOS45LDEzLjQsMjkuOSwyOS45JiMxMDsmIzk7Vjg0YzAsMi44LDIuMiw1LDUsNWMwLjcsMCwxLjIsMC41LDEuMiwxLjJjLTAuMiwxLTEuNyw2LjItMi41LDkuM2MtMC41LDEuOS0xLDMuNi0xLjQsNC44Yy0xLjItMC4zLTIuNS0wLjItMy42LDAuNCYjMTA7JiM5O2MtMS40LDAuOC0yLjQsMi4yLTIuNiwzLjhjLTAuNyw1LjQtOC45LDE0LTEyLjgsMTguMWMtMC45LDAuOS0xLjQsMi4yLTEuNCwzLjV2MTcuNGMwLDIuMywxLjUsNC4zLDMuNyw0LjgmIzEwOyYjOTtjMjQsNi4yLDM5LjgsMTQuOCw0MS4zLDIyLjNjMi4xLDEwLjQsNS4yLDI2LjgsNi45LDM1LjZIMTU3LjR6Ii8+JiN4YTs8L3N2Zz4=;" parent="1" vertex="1">
          <mxGeometry x="83.3" y="1615" width="33.4" height="30" as="geometry" />
        </mxCell>
        <mxCell id="5Y0m7SEWrtOaW2OVviik-6" value="" style="shape=image;verticalLabelPosition=bottom;labelBackgroundColor=default;verticalAlign=top;aspect=fixed;imageAspect=0;editableCssRules=.*;image=data:image/svg+xml,PHN2ZyB4bWxuczp4bGluaz0iaHR0cDovL3d3dy53My5vcmcvMTk5OS94bGluayIgeG1sbnM9Imh0dHA6Ly93d3cudzMub3JnLzIwMDAvc3ZnIiB4bWw6c3BhY2U9InByZXNlcnZlIiBzdHlsZT0iZW5hYmxlLWJhY2tncm91bmQ6bmV3IDAgMCAyNTUgMjU1OyIgdmlld0JveD0iNDIuMDk5OTk0NjU5NDIzODMgNDEuNzAwMDAwNzYyOTM5NDUgMTcwLjkwMDAwOTE1NTI3MzQ0IDE3MS40OTk5ODQ3NDEyMTA5NCIgeT0iMHB4IiB4PSIwcHgiIGlkPSJMYXllcl8xIiB2ZXJzaW9uPSIxLjEiIHdpZHRoPSIxNzAuOTAwMDA5MTU1MjczNDQiIGhlaWdodD0iMTcxLjQ5OTk4NDc0MTIxMDk0Ij4mI3hhOzxnPiYjeGE7CTxwYXRoIGQ9Ik0yMDcuOSw0MS43aC0xMTVjLTIuOCwwLTUsMi4yLTUsNXY1MmwtNDQuMSwzOS4xYy0xLjEsMC45LTEuNywyLjMtMS43LDMuN3Y2Ni43YzAsMi44LDIuMiw1LDUsNUg3OGgxNWgxNWgzMC44aDY5LjImIzEwOyYjOTsmIzk7YzIuOCwwLDUtMi4yLDUtNVY0Ni43QzIxMi45LDQ0LDIxMC43LDQxLjcsMjA3LjksNDEuN3ogTTkyLjksMjAzLjNIODN2LTM2LjdoMTkuOXYzNi43SDkyLjl6IE0xMTIuOSwyMDMuM3YtNDEuN2MwLTIuOC0yLjItNS01LTUmIzEwOyYjOTsmIzk7SDc4Yy0yLjgsMC01LDIuMi01LDV2NDEuN0g1Mi4xdi01OS41bDQwLjgtMzYuMmw0MC44LDM2LjJ2NTkuNUgxMTIuOXogTTIwMi45LDIwMy4zaC01OS4ydi02MS43YzAtMS40LTAuNi0yLjgtMS43LTMuN0w5Ny45LDk4LjcmIzEwOyYjOTsmIzk7di00N2gxMDVWMjAzLjN6Ii8+JiN4YTsJPHBhdGggZD0iTTExNy4xLDk0LjhoMjIuNGMyLjgsMCw1LTIuMiw1LTVWNjcuNGMwLTIuOC0yLjItNS01LTVoLTIyLjRjLTIuOCwwLTUsMi4yLTUsNXYyMi40QzExMi4xLDkyLjUsMTE0LjMsOTQuOCwxMTcuMSw5NC44eiYjMTA7JiM5OyYjOTsgTTEyMi4xLDcyLjRoMTIuNHYxMi40aC0xMi40VjcyLjR6Ii8+JiN4YTsJPHBhdGggZD0iTTE2MS4zLDk0LjhoMjIuNGMyLjgsMCw1LTIuMiw1LTVWNjcuNGMwLTIuOC0yLjItNS01LTVoLTIyLjRjLTIuOCwwLTUsMi4yLTUsNXYyMi40QzE1Ni4zLDkyLjUsMTU4LjYsOTQuOCwxNjEuMyw5NC44eiYjMTA7JiM5OyYjOTsgTTE2Ni4zLDcyLjRoMTIuNHYxMi40aC0xMi40VjcyLjR6Ii8+JiN4YTsJPHBhdGggZD0iTTE2MS4zLDEzNy42aDIyLjRjMi44LDAsNS0yLjIsNS01di0yMi40YzAtMi44LTIuMi01LTUtNWgtMjIuNGMtMi44LDAtNSwyLjItNSw1djIyLjQmIzEwOyYjOTsmIzk7QzE1Ni4zLDEzNS40LDE1OC42LDEzNy42LDE2MS4zLDEzNy42eiBNMTY2LjMsMTE1LjNoMTIuNHYxMi40aC0xMi40VjExNS4zeiIvPiYjeGE7PC9nPiYjeGE7PC9zdmc+;" parent="1" vertex="1">
          <mxGeometry x="85" y="1660" width="30" height="30" as="geometry" />
        </mxCell>
        <mxCell id="5Y0m7SEWrtOaW2OVviik-7" value="" style="shape=image;verticalLabelPosition=bottom;labelBackgroundColor=default;verticalAlign=top;aspect=fixed;imageAspect=0;editableCssRules=.*;image=data:image/svg+xml,PHN2ZyB4bWxuczp4bGluaz0iaHR0cDovL3d3dy53My5vcmcvMTk5OS94bGluayIgeG1sbnM9Imh0dHA6Ly93d3cudzMub3JnLzIwMDAvc3ZnIiB4bWw6c3BhY2U9InByZXNlcnZlIiBzdHlsZT0iZW5hYmxlLWJhY2tncm91bmQ6bmV3IDAgMCAyNTUgMjU1OyIgdmlld0JveD0iMjYuNjMxMTk1MDY4MzU5Mzc1IDM5LjU3NDk5Njk0ODI0MjE5IDIwMS43Mzc2MDk4NjMyODEyNSAxNzUuODI0OTk2OTQ4MjQyMiIgeT0iMHB4IiB4PSIwcHgiIGlkPSJMYXllcl8xIiB2ZXJzaW9uPSIxLjEiIHdpZHRoPSIyMDEuNzM3NjA5ODYzMjgxMjUiIGhlaWdodD0iMTc1LjgyNDk5Njk0ODI0MjIiPiYjeGE7PHBhdGggZD0iTTIyMC4zLDEwOS43YzMuNywwLDYuOS0yLjMsNy44LTUuOGMwLjktMy40LTAuNS02LjgtMy42LTguN2wtOTIuOC01NC41Yy0yLjYtMS41LTUuOC0xLjUtOC40LDBMMzAuNSw5NS4yJiMxMDsmIzk7Yy0zLjEsMS44LTQuNSw1LjMtMy42LDguN2MwLjksMy41LDQuMSw1LjgsNy44LDUuOGgxOS4ydjY4SDQ5Yy0xLjgsMC0zLjQsMC45LTQuMywyLjVsLTE2LjQsMjcuN2MtMC45LDEuNS0wLjksMy41LDAsNSYjMTA7JiM5O2MwLjksMS42LDIuNSwyLjUsNC4zLDIuNWgxODkuOGMxLjgsMCwzLjUtMSw0LjMtMi41YzAuOS0xLjYsMC45LTMuNSwwLTVsLTE2LjQtMjcuN2MtMC45LTEuNS0yLjUtMi41LTQuMy0yLjVoLTd2LTY4SDIyMC4zeiYjMTA7JiM5OyBNMjEzLjYsMjA1LjRINDEuNGwxMC41LTE3LjdoNy4xaDI0LjloMzEuM2gyNC45aDI5LjJIMTk0aDkuMkwyMTMuNiwyMDUuNHogTTExMC4xLDE3Ny43SDg4Ljh2LTY4aDIxLjNWMTc3Ljd6IE0xNjQuMSwxNzcuN2gtMTkuMiYjMTA7JiM5O3YtNjhoMTkuMlYxNzcuN3ogTTE3NC4xLDE3Ny43di03M2MwLTIuOC0yLjItNS01LTVoLTI5LjJjLTIuOCwwLTUsMi4yLTUsNXY3M2gtMTQuOXYtNzNjMC0yLjgtMi4yLTUtNS01SDgzLjhjLTIuOCwwLTUsMi4yLTUsNXY3MyYjMTA7JiM5O0g2My45di03M2MwLTIuOC0yLjItNS01LTVINDIuN2w4NC44LTQ5LjlsODQuOCw0OS45SDE5NGMtMi44LDAtNSwyLjItNSw1djczSDE3NC4xeiIvPiYjeGE7PC9zdmc+;" parent="1" vertex="1">
          <mxGeometry x="82.78" y="1710" width="34.44" height="30" as="geometry" />
        </mxCell>
        <mxCell id="5Y0m7SEWrtOaW2OVviik-8" value="" style="shape=image;verticalLabelPosition=bottom;labelBackgroundColor=default;verticalAlign=top;aspect=fixed;imageAspect=0;editableCssRules=.*;image=data:image/svg+xml,PHN2ZyB4bWxuczp4bGluaz0iaHR0cDovL3d3dy53My5vcmcvMTk5OS94bGluayIgeG1sbnM9Imh0dHA6Ly93d3cudzMub3JnLzIwMDAvc3ZnIiB4bWw6c3BhY2U9InByZXNlcnZlIiBzdHlsZT0iZW5hYmxlLWJhY2tncm91bmQ6bmV3IDAgMCAyNTUgMjU1OyIgdmlld0JveD0iNDQgNTAuMTAwMDAyMjg4ODE4MzYgMTY3IDE1NC42OTk5OTY5NDgyNDIyIiB5PSIwcHgiIHg9IjBweCIgaWQ9IkxheWVyXzEiIHZlcnNpb249IjEuMSIgd2lkdGg9IjE2NyIgaGVpZ2h0PSIxNTQuNjk5OTk2OTQ4MjQyMiI+JiN4YTs8Zz4mI3hhOwk8cGF0aCBkPSJNMTk3LjcsODEuOWgtMzMuOGMtMi40LTE3LjktMTcuOC0zMS44LTM2LjQtMzEuOGMtMTguNiwwLTM0LDEzLjgtMzYuNCwzMS44SDU3LjNjLTcuMywwLTEzLjMsNi0xMy4zLDEzLjN2OTYuMyYjMTA7JiM5OyYjOTtjMCw3LjMsNiwxMy4zLDEzLjMsMTMuM2gxNDAuNGM3LjMsMCwxMy4zLTYsMTMuMy0xMy4zVjk1LjJDMjExLDg3LjksMjA1LDgxLjksMTk3LjcsODEuOXogTTEyNy41LDYwLjFjMTMsMCwyMy45LDkuNCwyNi4zLDIxLjgmIzEwOyYjOTsmIzk7aC01Mi42QzEwMy42LDY5LjUsMTE0LjUsNjAuMSwxMjcuNSw2MC4xeiBNMjAxLDE5MS41YzAsMS44LTEuNSwzLjMtMy4zLDMuM0g1Ny4zYy0xLjgsMC0zLjMtMS41LTMuMy0zLjNWOTUuMiYjMTA7JiM5OyYjOTtjMC0xLjgsMS41LTMuMywzLjMtMy4zaDE0MC40YzEuOCwwLDMuMywxLjUsMy4zLDMuM1YxOTEuNXoiLz4mI3hhOwk8cGF0aCBkPSJNMTYxLjEsMTI1aC0xNS4xdi0xNS4xYzAtMi44LTIuMi01LTUtNWgtMjYuOGMtMi44LDAtNSwyLjItNSw1VjEyNUg5My45Yy0yLjgsMC01LDIuMi01LDV2MjYuOGMwLDIuOCwyLjIsNSw1LDVoMTUuMXYxNS4xJiMxMDsmIzk7JiM5O2MwLDIuOCwyLjIsNSw1LDVoMjYuOGMyLjgsMCw1LTIuMiw1LTV2LTE1LjFoMTUuMWMyLjgsMCw1LTIuMiw1LTVWMTMwQzE2Ni4xLDEyNy4yLDE2My44LDEyNSwxNjEuMSwxMjV6IE0xNTYuMSwxNTEuOGgtMTUuMSYjMTA7JiM5OyYjOTtjLTIuOCwwLTUsMi4yLTUsNXYxNS4xaC0xNi44di0xNS4xYzAtMi44LTIuMi01LTUtNUg5OC45VjEzNWgxNS4xYzIuOCwwLDUtMi4yLDUtNXYtMTUuMWgxNi44VjEzMGMwLDIuOCwyLjIsNSw1LDVoMTUuMVYxNTEuOHoiLz4mI3hhOzwvZz4mI3hhOzwvc3ZnPg==;" parent="1" vertex="1">
          <mxGeometry x="83.84" y="1760" width="32.32" height="30" as="geometry" />
        </mxCell>
        <mxCell id="5Y0m7SEWrtOaW2OVviik-12" value="&lt;font style=&quot;font-size: 28px;&quot;&gt;§&lt;/font&gt;" style="text;strokeColor=none;align=center;fillColor=none;html=1;verticalAlign=middle;whiteSpace=wrap;rounded=0;" parent="1" vertex="1">
          <mxGeometry x="70" y="1280" width="60" height="30" as="geometry" />
        </mxCell>
        <mxCell id="5Y0m7SEWrtOaW2OVviik-15" value="" style="edgeStyle=elbowEdgeStyle;html=1;endArrow=openAsync;elbow=vertical;rounded=0;endFill=0;" parent="1" source="Mj89tKXQSyuhwqXj9ipI-2" target="Mj89tKXQSyuhwqXj9ipI-3" edge="1">
          <mxGeometry width="160" relative="1" as="geometry">
            <mxPoint x="-30" y="1360" as="sourcePoint" />
            <mxPoint x="-30" y="1390" as="targetPoint" />
          </mxGeometry>
        </mxCell>
        <mxCell id="5Y0m7SEWrtOaW2OVviik-16" value="" style="edgeStyle=elbowEdgeStyle;html=1;endArrow=openAsync;elbow=vertical;rounded=0;endFill=0;" parent="1" source="b4YsowTs5IO4OCW3UgzT-71" target="Mj89tKXQSyuhwqXj9ipI-3" edge="1">
          <mxGeometry width="160" relative="1" as="geometry">
            <mxPoint x="-95.5" y="1400" as="sourcePoint" />
            <mxPoint x="-95.5" y="1360" as="targetPoint" />
          </mxGeometry>
        </mxCell>
        <mxCell id="HM-HWS3Q9hcDez5ZIT6Y-4" value="&lt;span style=&quot;&quot;&gt;+ poskytovanie údajov&amp;nbsp;&lt;/span&gt;&lt;span style=&quot;background-color: transparent; color: light-dark(rgb(255, 255, 255), rgb(18, 18, 18));&quot;&gt;pre RKO&lt;/span&gt;" style="html=1;outlineConnect=0;whiteSpace=wrap;fillColor=#007B28;shape=mxgraph.archimate3.application;appType=func;archiType=rounded;align=left;strokeColor=#000000;fontColor=#FFFFFF;spacing=4;" parent="1" vertex="1">
          <mxGeometry x="250" y="1760" width="220" height="30" as="geometry" />
        </mxCell>
        <mxCell id="HM-HWS3Q9hcDez5ZIT6Y-5" value="&lt;span style=&quot;&quot;&gt;+ vytvorenie&amp;nbsp;&lt;/span&gt;&lt;span style=&quot;background-color: transparent; color: light-dark(rgb(255, 255, 255), rgb(18, 18, 18));&quot;&gt;chýbajúcich registrov&lt;/span&gt;" style="html=1;outlineConnect=0;whiteSpace=wrap;fillColor=#007B28;shape=mxgraph.archimate3.application;appType=func;archiType=rounded;align=left;strokeColor=#000000;fontColor=#FFFFFF;spacing=4;" parent="1" vertex="1">
          <mxGeometry x="250" y="1800" width="220" height="30" as="geometry" />
        </mxCell>
        <mxCell id="v1EW0JT8d4S7AqYUZW40-5" value="" style="shape=image;verticalLabelPosition=bottom;labelBackgroundColor=default;verticalAlign=top;aspect=fixed;imageAspect=0;editableCssRules=.*;image=data:image/svg+xml,PHN2ZyB4bWxuczp4bGluaz0iaHR0cDovL3d3dy53My5vcmcvMTk5OS94bGluayIgeG1sbnM9Imh0dHA6Ly93d3cudzMub3JnLzIwMDAvc3ZnIiB4bWw6c3BhY2U9InByZXNlcnZlIiBzdHlsZT0iZW5hYmxlLWJhY2tncm91bmQ6bmV3IDAgMCAyNTUgMjU1OyIgdmlld0JveD0iMzAuNDk5OTk4MDkyNjUxMzY3IDYwLjQwMDAwMTUyNTg3ODkwNiAxOTMuOTAxMzY3MTg3NSAxMzMuNDAwMDI0NDE0MDYyNSIgeT0iMHB4IiB4PSIwcHgiIGlkPSJMYXllcl8xIiB2ZXJzaW9uPSIxLjEiIHdpZHRoPSIxOTMuOTAxMzY3MTg3NSIgaGVpZ2h0PSIxMzMuNDAwMDI0NDE0MDYyNSI+JiN4YTs8Zz4mI3hhOwk8cGF0aCBkPSJNMTcxLDEwMS44SDQyLjZjLTYuNywwLTEyLjEsNS40LTEyLjEsMTIuMXY2Ny44YzAsNi43LDUuNCwxMi4xLDEyLjEsMTIuMUgxNzFjNi43LDAsMTIuMS01LjQsMTIuMS0xMi4xdi02Ny44JiMxMDsmIzk7JiM5O0MxODMuMSwxMDcuMiwxNzcuNiwxMDEuOCwxNzEsMTAxLjh6IE0xNDkuNCwxODMuN0g2NC4xYy0xLjMtMTEuNi0xMS4yLTIwLjctMjMtMjAuN2MtMC4yLDAtMC40LDAtMC42LDAuMXYtMzAuOCYjMTA7JiM5OyYjOTtjMC4yLDAsMC40LDAuMSwwLjYsMC4xYzExLjksMCwyMS43LTksMjMtMjAuNmg4NS4zYzEuMywxMS42LDExLjIsMjAuNiwyMywyMC42YzAuMiwwLDAuNCwwLDAuNi0wLjF2MzAuOGMtMC4yLDAtMC40LTAuMS0wLjYtMC4xJiMxMDsmIzk7JiM5O0MxNjAuNywxNjMuMSwxNTAuNywxNzIuMSwxNDkuNCwxODMuN3ogTTE3My4xLDExMy45djguNmMtMC4yLDAtMC40LTAuMS0wLjYtMC4xYy02LjMsMC0xMS43LTQuNi0xMi45LTEwLjZIMTcxJiMxMDsmIzk7JiM5O0MxNzIuMSwxMTEuOCwxNzMuMSwxMTIuNywxNzMuMSwxMTMuOXogTTQyLjYsMTExLjhoMTEuNGMtMS4yLDYuMS02LjUsMTAuNi0xMi45LDEwLjZjLTAuMiwwLTAuNCwwLTAuNiwwLjF2LTguNiYjMTA7JiM5OyYjOTtDNDAuNSwxMTIuNyw0MS41LDExMS44LDQyLjYsMTExLjh6IE00MC41LDE4MS43VjE3M2MwLjIsMCwwLjQsMC4xLDAuNiwwLjFjNi4zLDAsMTEuNyw0LjYsMTIuOSwxMC43SDQyLjYmIzEwOyYjOTsmIzk7QzQxLjUsMTgzLjcsNDAuNSwxODIuOCw0MC41LDE4MS43eiBNMTcxLDE4My43aC0xMS40YzEuMi02LjEsNi42LTEwLjYsMTIuOS0xMC42YzAuMiwwLDAuNCwwLDAuNi0wLjF2OC42JiMxMDsmIzk7JiM5O0MxNzMuMSwxODIuOCwxNzIuMSwxODMuNywxNzEsMTgzLjd6Ii8+JiN4YTsJPHBhdGggZD0iTTE5Miw4MC44SDU2LjVjLTIuOCwwLTUsMi4yLTUsNXMyLjIsNSw1LDVIMTkyYzEuMSwwLDIuMSwxLDIuMSwyLjF2NzQuOWMwLDIuOCwyLjIsNSw1LDVzNS0yLjIsNS01VjkyLjkmIzEwOyYjOTsmIzk7QzIwNCw4Ni4yLDE5OC42LDgwLjgsMTkyLDgwLjh6Ii8+JiN4YTsJPHBhdGggZD0iTTIxMi40LDYwLjRINzYuOWMtMi44LDAtNSwyLjItNSw1czIuMiw1LDUsNWgxMzUuNGMxLjEsMCwyLjEsMSwyLjEsMi4xdjc0LjljMCwyLjgsMi4yLDUsNSw1czUtMi4yLDUtNVY3Mi40JiMxMDsmIzk7JiM5O0MyMjQuNSw2NS44LDIxOS4xLDYwLjQsMjEyLjQsNjAuNHoiLz4mI3hhOwk8cGF0aCBkPSJNMTAxLjUsMTM4LjRjMC0zLDMuMi00LjIsNi00LjJjMS42LDAsMy4xLDAuNCw0LjUsMS4xYzEuNCwwLjcsMy4yLDAuMiw0LjEtMS4xYzEuMi0xLjcsMC42LTQtMS4zLTQuOSYjMTA7JiM5OyYjOTtjLTEuOC0wLjgtMy42LTEuMy01LjQtMS41di0yLjdjMC0xLjgtMS41LTMuMy0zLjMtMy4zaDBjLTEuOCwwLTMuMywxLjUtMy4zLDMuM3YzLjFjLTQuOCwxLjMtOC43LDUtOC43LDEwLjRjMCw0LjQsMi40LDcsNS41LDguOCYjMTA7JiM5OyYjOTtjNS4yLDMuMSwxMi40LDMuNywxMi40LDguN2MwLDIuOC0yLjMsNC45LTUuNyw0LjljLTIuNSwwLTUtMC45LTctMi4zYy0xLjQtMS0zLjItMC45LTQuNCwwLjRsLTAuMiwwLjJjLTEuNCwxLjUtMS4yLDMuOSwwLjYsNS4xJiMxMDsmIzk7JiM5O2MyLjMsMS41LDQuNywyLjUsNy4zLDN2Mi45YzAsMS44LDEuNSwzLjMsMy4zLDMuM2gwYzEuOCwwLDMuMy0xLjUsMy4zLTMuM3YtMi44YzUuNi0xLjEsMTAuMS01LjQsMTAuMS0xMS4zJiMxMDsmIzk7JiM5O0MxMTkuNCwxNDIuOCwxMDEuNSwxNDQuNywxMDEuNSwxMzguNHoiLz4mI3hhOzwvZz4mI3hhOzwvc3ZnPg==;" parent="1" vertex="1">
          <mxGeometry x="82" y="1807" width="34" height="23.33" as="geometry" />
        </mxCell>
        <mxCell id="v1EW0JT8d4S7AqYUZW40-7" value="" style="shape=image;verticalLabelPosition=bottom;labelBackgroundColor=default;verticalAlign=top;aspect=fixed;imageAspect=0;image=data:image/png,iVBORw0KGgoAAAANSUhEUgAACFUAAAhVCAYAAACx2Qd4AAAACXBIWXMAAC4jAAAuIwF4pT92AAAAGXRFWHRTb2Z0d2FyZQBBZG9iZSBJbWFnZVJlYWR5ccllPAAAacZJREFUeNrs3dFtG3UcwHG34j3dIJEs+7XZoGGDMkHDBIQNwgRkg4YJKBMQJqC8OrJUNoAJwlm1kApfKE1ics59PtLpXor91x0//R/uG9+Tm5ubGQAAAAAAAAAAH3rqEgAAAAAAAAAA/J2oAgAAAAAAAAAgiCoAAAAAAAAAAIKoAgAAAAAAAAAgiCoAAAAAAAAAAIKoAgAAAAAAAAAgiCoAAAAAAAAAAIKoAgAAAAAAAAAgiCoAAAAAAAAAAIKoAgAAAAAAAAAgiCoAAAAAAAAAAIKoAgAAAAAAAAAgiCoAAAAAAAAAAIKoAgAAAAAAAAAgiCoAAAAAAAAAAIKoAgAAAAAAAAAgiCoAAAAAAAAAAIKoAgAAAAAAAAAgiCoAAAAAAAAAAIKoAgAAAAAAAAAgiCoAAAAAAAAAAIKoAgAAAAAAAAAgiCoAAAAAAAAAAIKoAgAAAAAAAAAgiCoAAAAAAAAAAIKoAgAAAAAAAAAgiCoAAAAAAAAAAIKoAgAAAAAAAAAgiCoAAAAAAAAAAIKoAgAAAAAAAAAgiCoAAAAAAAAAAIKoAgAAAAAAAAAgiCoAAAAAAAAAAIKoAgAAAAAAAAAgiCoAAAAAAAAAAIKoAgAAAAAAAAAgiCoAAAAAAAAAAIKoAgAAAAAAAAAgiCoAAAAAAAAAAIKoAgAAAAAAAAAgiCoAAAAAAAAAAIKoAgAAAAAAAAAgiCoAAAAAAAAAAIKoAgAAAAAAAAAgiCoAAAAAAAAAAIKoAgAAAAAAAAAgiCoAAAAAAAAAAIKoAgAAAAAAAAAgiCoAAAAAAAAAAIKoAgAAAAAAAAAgiCoAAAAAAAAAAIKoAgAAAAAAAAAgiCoAAAAAAAAAAIKoAgAAAAAAAAAgiCoAAAAAAAAAAIKoAgAAAAAAAAAgiCoAAAAAAAAAAIKoAgAAAAAAAAAgiCoAAAAAAAAAAIKoAgAAAAAAAAAgiCoAAAAAAAAAAIKoAgAAAAAAAAAgiCoAAAAAAAAAAIKoAgAAAAAAAAAgiCoAAAAAAAAAAIKoAgAAAAAAAAAgiCoAAAAAAAAAAIKoAgAAAAAAAAAgiCoAAAAAAAAAAIKoAgAAAAAAAAAgiCoAAAAAAAAAAIKoAgAAAAAAAAAgiCoAAAAAAAAAAIKoAgAAAAAAAAAgiCoAAAAAAAAAAIKoAgAAAAAAAAAgiCoAAAAAAAAAAIKoAgAAAAAAAAAgiCoAAAAAAAAAAIKoAgAAAAAAAAAgiCoAAAAAAAAAAIKoAgAAAAAAAAAgiCoAAAAAAAAAAIKoAgAAAAAAAAAgiCoAAAAAAAAAAIKoAgAAAAAAAAAgiCoAAAAAAAAAAIKoAgAAAAAAAAAgiCoAAAAAAAAAAIKoAgAAAAAAAAAgiCoAAAAAAAAAAIKoAgAAAAAAAAAgiCoAAAAAAAAAAIKoAgAAAAAAAAAgiCoAAAAAAAAAAIKoAgAAAAAAAAAgiCoAAAAAAAAAAIKoAgAAAAAAAAAgiCoAAAAAAAAAAIKoAgAAAAAAAAAgiCoAAAAAAAAAAIKoAgAAAAAAAAAgiCoAAAAAAAAAAIKoAgAAAAAAAAAgiCoAAAAAAAAAAIKoAgAAAAAAAAAgiCoAAAAAAAAAAIKoAgAAAAAAAAAgiCoAAAAAAAAAAIKoAgAAAAAAAAAgiCoAAAAAAAAAAIKoAgAAAAAAAAAgiCoAAAAAAAAAAIKoAgAAAAAAAAAgiCoAAAAAAAAAAIKoAgAAAAAAAAAgiCoAAAAAAAAAAIKoAgAAAAAAAAAgiCoAAAAAAAAAAIKoAgAAAAAAAAAgiCoAAAAAAAAAAIKoAgAAAAAAAAAgiCoAAAAAAAAAAIKoAgAAAAAAAAAgiCoAAAAAAAAAAIKoAgAAAAAAAAAgiCoAAAAAAAAAAIKoAgAAAAAAAAAgiCoAAAAAAAAAAIKoAgAAAAAAAAAgiCoAAAAAAAAAAIKoAgAAAAAAAAAgiCoAAAAAAAAAAIKoAgAAAAAAAAAgiCoAAAAAAAAAAIKoAgAAAAAAAAAgiCoAAAAAAAAAAIKoAgAAAAAAAAAgiCoAAAAAAAAAAIKoAgAAAAAAAAAgiCoAAAAAAAAAAIKoAgAAAAAAAAAgiCoAAAAAAAAAAIKoAgAAAAAAAAAgiCoAAAAAAAAAAIKoAgAAAAAAAAAgiCoAAAAAAAAAAIKoAgAAAAAAAAAgiCoAAAAAAAAAAIKoAgAAAAAAAAAgiCoAAAAAAAAAAIKoAgAAAAAAAAAgiCoAAAAAAAAAAIKoAgAAAAAAAAAgiCoAAAAAAAAAAIKoAgAAAAAAAAAgiCoAAAAAAAAAAIKoAgAAAAAAAAAgiCoAAAAAAAAAAIKoAgAAAAAAAAAgiCoAAAAAAAAAAIKoAgAAAAAAAAAgiCoAAAAAAAAAAIKoAgAAAAAAAAAgiCoAAAAAAAAAAIKoAgAAAAAAAAAgiCoAAAAAAAAAAIKoAgAAAAAAAAAgiCoAAAAAAAAAAIKoAgAAAAAAAAAgiCoAAAAAAAAAAIKoAgAAAAAAAAAgiCoAAAAAAAAAAIKoAgAAAAAAAAAgiCoAAAAAAAAAAIKoAgAAAAAAAAAgiCoAAAAAAAAAAIKoAgAAAAAAAAAgiCoAAAAAAAAAAIKoAgAAAAAAAAAgiCoAAAAAAAAAAIKoAgAAAAAAAAAgiCoAAAAAAAAAAIKoAgAAAAAAAAAgiCoAAAAAAAAAAIKoAgAAAAAAAAAgiCoAAAAAAAAAAIKoAgAAAAAAAAAgiCoAAAAAAAAAAIKoAgAAAAAAAAAgiCoAAAAAAAAAAIKoAgAAAAAAAAAgiCoAAAAAAAAAAIKoAgAAAAAAAAAgiCoAAAAAAAAAAIKoAgAAAAAAAAAgiCoAAAAAAAAAAIKoAgAAAAAAAAAgiCoAAAAAAAAAAIKoAgAAAAAAAAAgiCoAAAAAAAAAAIKoAgAAAAAAAAAgiCoAAAAAAAAAAIKoAgAAAAAAAAAgiCoAAAAAAAAAAIKoAgAAAAAAAAAgiCoAAAAAAAAAAIKoAgAAAAAAAAAgiCoAAAAAAAAAAIKoAgAAAAAAAAAgiCoAAAAAAAAAAIKoAgAAAAAAAAAgiCoAAAAAAAAAAIKoAgAAAAAAAAAgiCoAAAAAAAAAAIKoAgAAAAAAAAAgiCoAAAAAAAAAAIKoAgAAAAAAAAAgiCoAAAAAAAAAAIKoAgAAAAAAAAAgiCoAAAAAAAAAAIKoAgAAAAAAAAAgiCoAAAAAAAAAAIKoAgAAAAAAAAAgiCoAAAAAAAAAAIKoAgAAAAAAAAAgiCoAAAAAAAAAAIKoAgAAAAAAAAAgiCoAAAAAAAAAAIKoAgAAAAAAAAAgiCoAAAAAAAAAAIKoAgAAAAAAAAAgiCoAAAAAAAAAAIKoAgAAAAAAAAAgiCoAAAAAAAAAAIKoAgAAAAAAAAAgiCoAAAAAAAAAAIKoAgAAAAAAAAAgiCoAAAAAAAAAAIKoAgAAAAAAAAAgiCoAAAAAAAAAAIKoAgAAAAAAAAAgiCoAAAAAAAAAAIKoAgAAAAAAAAAgiCoAAAAAAAAAAIKoAgAAAAAAAAAgiCoAAAAAAAAAAIKoAgAAAAAAAAAgiCoAAAAAAAAAAIKoAgAAAAAAAAAgiCoAAAAAAAAAAIKoAgAAAAAAAAAgiCoAAAAAAAAAAIKoAgAAAAAAAAAgiCoAAAAAAAAAAIKoAgAAAAAAAAAgiCoAAAAAAAAAAIKoAgAAAAAAAAAgiCoAAAAAAAAAAIKoAgAAAAAAAAAgiCoAAAAAAAAAAIKoAgAAAAAAAAAgiCoAAAAAAAAAAIKoAgAAAAAAAAAgiCoAAAAAAAAAAIKoAgAAAAAAAAAgiCoAAAAAAAAAAIKoAgAAAAAAAAAgiCoAAAAAAAAAAIKoAgAAAAAAAAAgiCoAAAAAAAAAAIKoAgAAAAAAAAAgiCoAAAAAAAAAAIKoAgAAAAAAAAAgiCoAAAAAAAAAAIKoAgAAAAAAAAAgiCoAAAAAAAAAAIKoAgAAAAAAAAAgiCoAAAAAAAAAAIKoAgAAAAAAAAAgiCoAAAAAAAAAAIKoAgAAAAAAAAAgiCoAAAAAAAAAAIKoAgAAAAAAAAAgiCoAAAAAAAAAAIKoAgAAAAAAAAAgiCoAAAAAAAAAAIKoAgAAAAAAAAAgiCoAAAAAAAAAAIKoAgAAAAAAAAAgiCoAAAAAAAAAAIKoAgAAAAAAAAAgiCoAAAAAAAAAAIKoAgAAAAAAAAAgiCoAAAAAAAAAAIKoAgAAAAAAAAAgiCoAAAAAAAAAAIKoAgAAAAAAAAAgiCoAAAAAAAAAAIKoAgAAAAAAAAAgiCoAAAAAAAAAAIKoAgAAAAAAAAAgiCoAAAAAAAAAAIKoAgAAAAAAAAAgiCoAAAAAAAAAAIKoAgAAAAAAAAAgiCoAAAAAAAAAAIKoAgAAAAAAAAAgiCoAAAAAAAAAAIKoAgAAAAAAAAAgiCoAAAAAAAAAAIKoAgAAAAAAAAAgiCoAAAAAAAAAAIKoAgAAAAAAAAAgiCoAAAAAAAAAAIKoAgAAAAAAAAAgiCoAAAAAAAAAAIKoAgAAAAAAAAAgiCoAAAAAAAAAAIKoAgAAAAAAAAAgiCoAAAAAAAAAAIKoAgAAAAAAAAAgiCoAAAAAAAAAAIKoAgAAAAAAAAAgiCoAAAAAAAAAAIKoAgAAAAAAAAAgiCoAAAAAAAAAAIKoAgAAAAAAAAAgiCoAAAAAAAAAAIKoAgAAAAAAAAAgiCoAAAAAAAAAAIKoAgAAAAAAAAAgiCoAAAAAAAAAAIKoAgAAAAAAAAAgiCoAAAAAAAAAAIKoAgAAAAAAAAAgiCoAAAAAAAAAAIKoAgAAAAAAAAAgiCoAAAAAAAAAAIKoAgAAAAAAAAAgiCoAAAAAAAAAAIKoAgAAAAAAAAAgiCoAAAAAAAAAAIKoAgAAAAAAAAAgiCoAAAAAAAAAAIKoAgAAAAAAAAAgiCoAAAAAAAAAAIKoAgAAAAAAAAAgiCoAAAAAAAAAAIKoAgAAAAAAAAAgiCoAAAAAAAAAAIKoAgAAAAAAAAAgiCoAAAAAAAAAAIKoAgAAAAAAAAAgiCoAAAAAAAAAAIKoAgAAAAAAAAAgiCoAAAAAAAAAAIKoAgAAAAAAAAAgiCoAAAAAAAAAAIKoAgAAAAAAAAAgiCoAAAAAAAAAAIKoAgAAAAAAAAAgiCoAAAAAAAAAAIKoAgAAAAAAAAAgiCoAAAAAAAAAAIKoAgAAAAAAAAAgiCoAAAAAAAAAAIKoAgAAAAAAAAAgiCoAAAAAAAAAAIKoAgAAAAAAAAAgiCoAAAAAAAAAAIKoAgAAAAAAAAAgiCoAAAAAAAAAAIKoAgAAAAAAAAAgiCoAAAAAAAAAAIKoAgAAAAAAAAAgiCoAAAAAAAAAAIKoAgAAAAAAAAAgiCoAAAAAAAAAAIKoAgAAAAAAAAAgiCoAAAAAAAAAAIKoAgAAAAAAAAAgiCoAAAAAAAAAAIKoAgAAAAAAAAAgiCoAAAAAAAAAAIKoAgAAAAAAAAAgiCoAAAAAAAAAAIKoAgAAAAAAAAAgiCoAAAAAAAAAAIKoAgAAAAAAAAAgiCoAAAAAAAAAAIKoAgAAAAAAAAAgiCoAAAAAAAAAAIKoAgAAAAAAAAAgiCoAAAAAAAAAAIKoAgAAAAAAAAAgiCoAAAAAAAAAAIKoAgAAAAAAAAAgiCoAAAAAAAAAAIKoAgAAAAAAAAAgiCoAAAAAAAAAAIKoAgAAAAAAAAAgiCoAAAAAAAAAAIKoAgAAAAAAAAAgiCoAAAAAAAAAAIKoAgAAAAAAAAAgiCoAAAAAAAAAAIKoAgAAAAAAAAAgiCoAAAAAAAAAAIKoAgAAAAAAAAAgiCoAAAAAAAAAAIKoAgAAAAAAAAAgiCoAAAAAAAAAAIKoAgAAAAAAAAAgiCoAAAAAAAAAAIKoAgAAAAAAAAAgiCoAAAAAAAAAAIKoAgAAAAAAAAAgiCoAAAAAAAAAAIKoAgAAAAAAAAAgiCoAAAAAAAAAAIKoAgAAAAAAAAAgiCoAAAAAAAAAAIKoAgAAAAAAAAAgfOYSAAAAfNxyMT8eTpvjaDhO4p+8HY7fhuNqdb2+csXgP8/VZp6e/ctcvduczRXYrwAAAB7Ck5ubG1cBAAAgLBfzo+F0Nhwvh+PwE//zH4bjcnW9fuNKwgdztXnYe3qLufp9ON5s5+rKlYR72a82c3VlvwIAAPhnogoAAIC/2D70vRiOF/fwcb8Ox/nqen3pyjLxuTrZzIK5AnMFAACwT0QVAAAAW8vFfPMKgvPh+GoHH//LcJyurtdvXWkmOFebSOnVDj7+p+1cvXOlsV/ZrwAAAHZBVAEAADD789cpNj99frjjr/p6db2+cMWZ0FxdDcfBDr9m8/qCM39dj/3KfgUAALALT10CAABg6paL+ens/YPfw//h674dvu/SVWcic/XzbLdBxWz7+a/NFfYr+xUAAMAu+KUKAABg0rYPqF4/wFd/t7pen7oDmCtzBeYKAABgvEQVAADAZC0X85Ph9OMDLsGDKh7jXL0cTt8/4BK+Gebq3J3AfmW/AgAAuA+iCgAAYJKWi/nRcHo72/2rCT7my9X1+tId4ZHM1fHs/asJHnquvhjm6o07gv3KfgUAAHBXT10CAABgoi5nD/+AauNi+8AMzNU9rmOYq2duB+bKfgUAAHBXogoAAGBytu+lfzGS5WwelF26KzyCuTobTs9HNFcX7gr2K/sVAADAXXn9BwAAMDnLxfzdcDoc2bI+X12vr9wd9nSmNr8KsZmrA3MF9isAAIDHxC9VAAAAk7L9q9/DES7t3N1hj21+peJghOs6dWuwX9mvAAAA7kJUAQAATM3ZSNf1wrvq2WOnI13XK3OF/cp+BQAAcBeiCgAAYDKWi/nxcHo+4iWeuUvs6VwdjniJL90l7Ff2KwAAgNsSVQAAAFNyYn1w705Hvj5RBfto7P/f2q8AAIDJEFUAAABTMvaHVM+Xi/kzt4k9czzy9b1wi9hDJ/YrAACAcRBVAAAAU3JsjXDvRh8tbF+lAPYr+xUAAMAnE1UAAABTcrAHa/SQir2xXMyP9mSp/qIe+5X9CgAA4FZEFQAAwCQsF/OTPVmqh7/sk6M9WeeJW4X9yn4FAABwG6IKAAAAAAAAAIAgqgAAAAAAAAAACKIKAAAAAAAAAIAgqgAAAAAAAAAACKIKAAAAAAAAAIAgqgAAAAAAAAAACKIKAAAAAAAAAIAgqgAAAAAAAAAACKIKAAAAAAAAAIAgqgAAAAAAAAAACKIKAAAAAAAAAIAgqgAAAAAAAAAACKIKAAAAAAAAAIAgqgAAAAAAAAAACKIKAAAAAAAAAIAgqgAAAAAAAAAACKIKAAAAAAAAAIAgqgAAAAAAAAAACKIKAAAAAAAAAIAgqgAAAAAAAAAACKIKAAAAAAAAAIAgqgAAAAAAAAAACKIKAAAAAAAAAIAgqgAAAAAAAAAACKIKAAAAAAAAAIAgqgAAAAAAAAAACKIKAAAAAAAAAIAgqgAAAAAAAAAACKIKAAAAAAAAAIAgqgAAAP5g745u27jSMAxPDF8uYG0F0oIgbyVgCzBTgbUVmKnA2grMdKAOQnegDpauYJVbEsRKHVgVaM9AY8BAvs3G4aE0M3we4GB8GfwBcTScl2cAAAAAAAhEFQAAAAAAAAAAgagCAAAAAAAAACAQVQAAAAAAAAAABKIKAAAAAAAAAIBAVAEAAAAAAAAAEIgqAAAAAAAAAAACUQUAAAAAAAAAQCCqAAAAAAAAAAAIRBUAAAAAAAAAAIGoAgAAAAAAAAAgEFUAAAAAAAAAAASiCgAAAAAAAACAQFQBAAAAAAAAABCIKgAAAAAAAAAAAlEFAAAAAAAAAEAgqgAAAAAAAAAACEQVAAAAAAAAAACBqAIAAAAAAAAAIBBVAAAAAAAAAAAEogoAAAAAAAAAgEBUAQAAAAAAAAAQiCoAAAAAAAAAAAJRBQAAAAAAAABAIKoAAAAAAAAAAAhEFQAAAAAAAAAAgagCAAAAAAAAACAQVQAAAAAAAAAABKIKAAAAAAAAAIBAVAEAAAAAAAAAEIgqAAAAAAAAAAACUQUAAAAAAAAAQCCqAAAAAAAAAAAIRBUAAAAAAAAAAIGoAgAAAAAAAAAgEFUAAAAAAAAAAASiCgAAAAAAAACAQFQBAAAAAAAAABCIKgAAAAAAAAAAAlEFAAAAAAAAAEAgqgAAAAAAAAAACEQVAAAAAAAAAACBqAIAAAAAAAAAIBBVAAAAAAAAAAAEogoAAAAAAAAAgEBUAQAAAAAAAAAQiCoAAAAAAAAAAAJRBQAAAAAAAABAIKoAAAAAAAAAAAhEFQAAAAAAAAAAgagCAAAAAAAAACAQVQAAAAAAAAAABKIKAAAAAAAAAIBAVAEAAAAAAAAAEIgqAAAAAAAAAAACUQUAAAAAAAAAQCCqAAAAAAAAAAAIRBUAAAAAAAAAAIGoAgAAAAAAAAAgEFUAAAAAAAAAAASiCgAAAAAAAACAQFQBAAAAAAAAABCIKgAAAAAAAAAAAlEFAAAAAAAAAEAgqgAAAAAAAAAACEQVAAAAAAAAAACBqAIAAAAAAAAAIBBVAAAAAAAAAAAEogoAAAAAAAAAgEBUAQAAAAAAAAAQiCoAAAAAAAAAAAJRBQAAAAAAAABAIKoAAAAAAAAAAAhEFQAAAAAAAAAAgagCAAAAAAAAACAQVQAAAAAAAAAABKIKAAAAAAAAAIBAVAEAAAAAAAAAEIgqAAAAAAAAAAACUQUAAAAAAAAAQCCqAAAAAAAAAAAIRBUAAAAAAAAAAIGoAgAAAAAAAAAgEFUAAAAAAAAAAASiCgAAAAAAAACAQFQBAAAAAAAAABCIKgAAAAAAAAAAAlEFAAAAAAAAAEAgqgAAAAAAAAAACEQVAAAAAAAAAACBqAIAAAAAAAAAIBBVAAAAAAAAAAAEogoAAAAAAAAAgEBUAQAAAAAAAAAQiCoAAAAAAAAAAAJRBQAAAAAAAABAIKoAAAAAAAAAAAhEFQAAAAAAAAAAgagCAAAAAAAAACAQVQAAAAAAAAAABKIKAAAAAAAAAIBAVAEAAAAAAAAAEIgqAAAAAAAAAAACUQUAAAAAAAAAQCCqAAAAAAAAAAAIRBUAAAAAAAAAAIGoAgAAAAAAAAAgEFUAAAAAAAAAAASiCgAAAAAAAACAQFQBAAAAAAAAABCIKgAAAAAAAAAAAlEFAAAAAAAAAEAgqgAAAAAAAAAACEQVAAAAAAAAAACBqAIAAAAAAAAAIBBVAAAAAAAAAAAEogoAAAAAAAAAgEBUAQAAAAAAAAAQiCoAAAAAAAAAAAJRBQAAAAAAAABAIKoAAAAAAAAAAAhEFQAAAAAAAAAAgagCAAAAAAAAACAQVQAAAAAAAAAABKIKAAAAAAAAAIBAVAEAAAAAAAAAEIgqAAAAAAAAAAACUQUAAAAAAAAAQCCqAAAAAAAAAAAIRBUAAAAAAAAAAIGoAgAAAAAAAAAgEFUAAAAAAAAAAASiCgAAAAAAAACAQFQBAAAAAAAAABCIKgAAAAAAAAAAAlEFAAAAAAAAAEAgqgAAAAAAAAAACEQVAAAAAAAAAACBqAIAAAAAAAAAIBBVAAAAAAAAAAAEogoAAAAAAAAAgEBUAQAAAAAAAAAQiCoAAAAAAAAAAAJRBQAAAAAAAABAIKoAAAAAAAAAAAhEFQAAAAAAAAAAgagCAAAAAAAAACAQVQAAAAAAAAAABKIKAAAAAAAAAIBAVAEAAAAAAAAAEIgqAAAAAAAAAAACUQUAAAAAAAAAQCCqAAAAAAAAAAAIRBUAAAAAAAAAAIGoAgAAAAAAAAAgEFUAAAAAAAAAAASiCgAAAAAAAACAQFQBAAAAAAAAABCIKgAAAAAAAAAAAlEFAAAAAAAAAEAgqgAAAAAAAAAACEQVAAAAAAAAAACBqAIAAAAAAAAAIBBVAAAAAAAAAAAEogoAAAAAAAAAgEBUAQAAAAAAAAAQiCoAAAAAAAAAAAJRBQAAAAAAAABAIKoAAAAAAAAAAAhEFQAAAAAAAAAAgagCAAAAAAAAACAQVQAAAAAAAAAABKIKAAAAAAAAAIBAVAEAAAAAAAAAEIgqAAAAAAAAAAACUQUAAAAAAAAAQCCqAAAAAAAAAAAIRBUAAAAAAAAAAIGoAgAAAAAAAAAgEFUAAAAAAAAAAASiCgAAAAAAAACAQFQBAAAAAAAAABCIKgAAAAAAAAAAAlEFAAAAAAAAAEAgqgAAAAAAAAAACEQVAAAAAAAAAADBayMAAKAPZtPJRbmcmAQHdDGQ/86z8nmY+9+Fz5XPFT5XPlccu812tzYFAABe2g+Pj4+mAADAs+siikVZ87LOTQQAAAh+LWvdrs12d2McAAA8N1EFAADPajadLMrlqhFSAAAA3+e+rFVZ15vt7otxAADwHEQVAAA8i9l0clku12WdmgYAALCHh7KWm+3u2igAADg0UQUAAAc1m05Omqdfk70zDQAAoKL21SCXm+3uzigAADiUV0YAAMChzKaTi3K5bQQVAABAfe0rBW+7U/EAAOAgnFQBAMBBdEHFuqw3pgEAABzYT5vtbmUMAADU5qQKAACqE1QAAADP7JdyH7IwBgAAanNSBQAAVc2mk5Pm6ZUfp6YBAAA8o4ey5pvt7tYoAACoxUkVAADUtmoEFQAAwPNrT8pbdaE3AABUIaoAAKCa2XRyWS7vTAIAAHgh52VdGQMAALV4/QcAANXMppO7xikVAADAy/vbZru7MwYAAPblpAoAAKqYTSeLRlABAAD0w9IIAACowUkVAABU4ZQKAACgZ/662e6+GAMAAPtwUgUAAHubTScXjaACAADol4URAACwL1EFAAA1LIwAAABwnwIAwNiIKgAAqGFuBAAAQM+cz6aTE2MAAGAfogoAAPbSfUl5bhIAAEAPXRgBAAD7EFUAALAvX1ICAADuVwAAGCVRBQAAAAAAY+X1HwAA7EVUAQDAvuZGAAAA9JSoAgCAvYgqAAAAAAAYK6//AABgL6IKAAAAAAAAAIBAVAEAAAAAAAAAEIgqAAAAAAAAAAACUQUAAAAAAAAAQCCqAAAAAAAAAAAIRBUAAAAAAAAAAIGoAgAAAAAAAAAgEFUAAAAAAAAAAASiCgAAAAAAAACAQFQBAAAAAAAAABCIKgAAAAAAAAAAAlEFAAAAAAAAAEAgqgAAAAAAAAAACEQVAAAAAAAAAACBqAIAAAAAAAAAIBBVAAAAAAAAAAAEogoAAAAAAAAAgEBUAQAAAAAAAAAQiCoAAAAAAAAAAAJRBQAAAAAAAABA8NoIAAA4Ep/KujMGAACo5qMRAAAwdqIKAACOxWqz3a2NAQAA6phNJ6IKAABGz+s/AAAAAAAAAAACUQUAAAAAAAAAQCCqAAAAAAAAAAAIRBUAAAAAAAAAAIGoAgAAAAAAAAAgEFUAAAAAAAAAAASiCgAAAAAAAACAQFQBAAAAAAAAABCIKgAAAAAAAAAAAlEFAAAAAAAAAEAgqgAAAAAAAAAACEQVAAAAAAAAAACBqAIAAAAAAAAAIBBVAAAAAAAAAAAEogoAAAAAAAAAgEBUAQAAAAAAAAAQiCoAAAAAAAAAAAJRBQAAAAAAAABAIKoAAAAAAAAAAAhEFQAAAAAAAAAAgagCAAAAAAAAACAQVQAAAAAAAAAABKIKAAAAAAAAAIBAVAEAAAAAAAAAEIgqAAAAAAAAAAACUQUAAAAAAAAAQCCqAAAAAAAAAAAIRBUAAAAAAAAAAIGoAgAAAAAAAAAgEFUAAAAAAAAAAASiCgAAAAAAAACAQFQBAAAAAAAAABCIKgAAAAAAAAAAAlEFAAAAAAAAAEAgqgAAAAAAAAAACEQVAAAAAAAAAACBqAIAAAAAAAAAIBBVAAAAAAAAAAAEogoAAAAAAAAAgEBUAQAAAAAAAAAQiCoAAAAAAAAAAAJRBQAAAAAAAABAIKoAAAAAAAAAAAhEFQAAAAAAAAAAgagCAAAAAAAAACAQVQAAAAAAAAAABKIKAAAAAAAAAIBAVAEAAAAAAAAAEIgqAAAAAAAAAAACUQUAAAAAAAAAQCCqAAAAAAAAAAAIRBUAAAAAAAAAAIGoAgAAAAAAAAAgEFUAAAAAAAAAAASiCgAAAAAAAACAQFQBAAAAAAAAABCIKgAAAAAAAAAAAlEFAAAAAAAAAEAgqgAAAAAAAAAACEQVAAAAAAAAAACBqAIAAAAAAAAAIBBVAAAAAAAAAAAEogoAAAAAAAAAgEBUAQAAAAAAAAAQiCoAAAAAAAAAAAJRBQAAAAAAAABAIKoAAAAAAAAAAAhEFQAAAAAAAAAAgagCAAAAAAAAACAQVQAAAAAAAAAABKIKAAAAAAAAAIBAVAEAAAAAAAAAEIgqAAAAAAAAAAACUQUAAAAAAAAAQCCqAAAAAAAAAAAIRBUAAAAAAAAAAIGoAgAAAAAAAAAgEFUAAAAAAAAAAASiCgAAAAAAAACAQFQBAAAAAAAAABCIKgAAAAAAAAAAAlEFAAAAAAAAAEAgqgAAAAAAAAAACEQVAAAAAAAAAACBqAIAAAAAAAAAIBBVAAAAAAAAAAAEogoAAAAAAAAAgEBUAQAAAAAAAAAQiCoAAAAAAAAAAAJRBQAAAAAAAABAIKoAAAAAAAAAAAhEFQAAAAAAAAAAgagCAAAAAAAAACAQVQAAAAAAAAAABKIKAAAAAAAAAIBAVAEAAAAAAAAAEIgqAAAAAAAAAAACUQUAAAAAAAAAQCCqAAAAAAAAAAAIRBUAAAAAAAAAAIGoAgAAAAAAAAAgEFUAAAAAAAAAAASiCgAAAAAAAACAQFQBAAAAAAAAABCIKgAAAAAAAAAAAlEFAAAAAAAAAEAgqgAAAAAAAAAACEQVAAAAAAAAAACBqAIAAAAAAAAAIBBVAAAAAAAAAAAEogoAAAAAAAAAgEBUAQAAAAAAAAAQiCoAAAAAAAAAAAJRBQAAAAAAAABAIKoAAAAAAAAAAAhEFQAAAAAAAAAAgagCAAAAAAAAACAQVQAAAAAAAAAABKIKAAAAAAAAAIBAVAEAAAAAAAAAEIgqAAAAAAAAAAACUQUAAAAAAAAAQCCqAAAAAAAAAAAIRBUAAAAAAAAAAIGoAgAAAAAAAAAgEFUAAAAAAAAAAASiCgAAAAAAAACA4LURAHAsZtPJRbmcmARUd2YEHOm+0u4pFyYBwEDcbba7O2PgCP2l/N02NwY4iNuyt3wxBgDGTlQBwOjMppOzcpl3q33YdW4qAOy5t7T7yeU3e8sbUwFggPvZ139+Luu2rHW7PBBj5P5e1r+MAQ66tzx8s6/clH3l1mQAGJMfHh8fTQGAsdzEtQ+7FmW9Mw0g+HGz3a2Nge/YV9qTKK66veXURAAYsU9lrfytxJ/4e8mXy0ByX9Z1t7cI9wAYPFEFAIPXHeO5ajzwAn6fqII/uq98jSna5UQKAI5Je4LFwmtC+I6/m3y5DPye9gSL67KvLI0CgCF7ZQQADFX70Kusm+bpGE9BBQA19pZ583Rs7cdGUAHA8Xlb1n/Kfrg0CgAqaO+pPpZ95bZ7pSIADJKoAoBB6m7E2odeXvUBQK29ZdkI9QCg9fUB2IlRAFDBeVn/LvvKwigAGCJRBQCD0wUV68ZDLwDq7S2r5ul0CgDgSfsAzC+LAajpl7KvXBsDAEMjqgBgUL4JKhzJDkCtvWVVLu9NAgB+ow3Z106sAKCiD8IKAIZGVAHAYJQbrrNGUAFA3b2l/TJPUAEA/1t7/yWsAKCmD14FAsCQiCoAGJKbRlABQCWz6eSyXD6YBAD8X+2rQPyqGICarr1iCoChEFUAMAjlJmvZPH2RBwA19pX217YrkwCAP+x9FyQCQA1v3JMBMBSiCgB6r3vtx0eTAKCiZeP0IwD4Xk6rAKCm89l0cmUMAPSdqAKAIVgaAQC1dLGe134AwPc7LfvowhgAqGjZnSQIAL0lqgCg17qbqvcmAUBFfgkFAH/e0ggAqKg9QdDrpQDoNVEFAH23MAIA7C0A0BvtaRUefgFQk/AdgF4TVQDQdwsjAKCW7iHQG5MAgL2IKgCo6bx7TSMA9JKoAoDe6l79cW4SAFQ0NwIAsJ8C0DuCPQB6S1QBQJ/NjQCAyi6MAAD2duoXxQC4VwPgWIgqAHAzBcAxeWsEAFDFmREAYF8B4BiIKgDosxMjAKCW7rVSAEAdcyMAoCIBPAC9JaoAoM+cVAGAfQUAAAAAeDGiCgAAAAAAAACAQFQBAAAAAAAAABCIKgDosy9GAAAAAAAAwEsRVQDQZ7dGAAAAAACjd28EAPSVqAKAPnNSBQAAAACM350RANBXogoA+mxtBAAAAAAwemsjAKCvRBUA9NZmu2tf//FgEgAAAAAwamsjAKCvRBUA9N2NEQAAAADAaD1stru1MQDQV6IKAPpuZQQAAAAAMFp+VAVAr4kqAOi1rlK/NwkAAAAAGKWlEQDQZ6IKANxYAQAAAAAv4dNmu7szBgD6TFQBQO+VG6tVuXw2CQAAAAAYlaURANB3ogoAhuLKCAAAAABgNH52SgUAQyCqAGAQyg3Wbbn80yQAAAAAYPA+b7a7pTEAMASiCgAGo9xoXZfLJ5MAAAAAgMH6taxLYwBgKEQVAAzKZrtbNMIKAAAAABii+7Lmm+3ui1EAMBSiCgAGR1gBAAAAAIPTnlBxIagAYGhEFQAMUhdW/FTWg2kAAAAAQK+1P5ByQgUAgySqAGCwyk3YqlwuyvpsGgAAAADQO+3rPv7R/kBKUAHAUIkqABi0cjN2V9a8/PPHRlwBAAAAAH3QxhQ/N0+v+7gxDgCG7LURADAG5eZsXS7z2XTSnlyxKOuyrFOTAQAAAIBn0b6md13WSkgBwJiIKgAYlXLDdlsuV+2aTSdn5dquucnAQbWfsbfGANW0Jy+tjQHgaLX3MO+NAappfy2/MgY4qLuybrvv5QBgdEQVAIxW+2qQ7qZubRpwOLPpZNmIKqCmddnDlsYAcLR/W80bUQXUdOdvKwAA9vHKCAAAAAAAAAAAfktUAQAAAAAAAAAQiCoAAAAAAAAAAAJRBQAAAAAAAABAIKoAAAAAAAAAAAhEFQAAAAAAAAAAgagCAAAAAAAAACAQVQAAAAAAAAAABKIKAAAAAAAAAIBAVAEAAAAAAAAAEIgqAAAAAAAAAAACUQUAAAAAAAAAQCCqAAAAAAAAAAAIRBUAAAAAAAAAAIGoAgAAAAAAAAAgEFUAAAAAAAAAAASiCgAAAAAAAACAQFQBAAAAAAAAABCIKgAAAAAAAAAAAlEFAAAAAAAAAEAgqgAAAAAAAAAACEQVAAAAAAAAAACBqAIAAAAAAAAAIBBVAAAAAAAAAAAEogoAAAAAAAAAgEBUAQAAAAAAAAAQiCoAAAAAAAAAAAJRBQAAAAAAAABAIKoAAAAAAAAAAAhEFQAAAAAAAAAAgagCAAAAAAAAACAQVQAAAAAAAAAABKIKAAAAAAAAAIBAVAEAAAAAAAAAEIgqAAAAAAAAAAACUQUAAAAAAAAAQCCqAAAAAAAAAAAIRBUAAAAAAAAAAIGoAgAAAAAAAAAgEFUAAAAAAAAAAASiCgAAAAAAAACAQFQBAAAAAAAAABCIKgAAAAAAAAAAAlEFAAAAAAAAAEAgqgAAAAAAAAAACEQVAAAAAAAAAACBqAIAAAAAAAAAIBBVAAAAAAAAAAAEogoAAAAAAAAAgEBUAQAAAAAAAAAQiCoAAAAAAAAAAAJRBQAAAAAAAABAIKoAAAAAAAAAAAhEFQAAAAAAAAAAgagCAAAAAAAAACAQVQAAAAAAAAAABKIKAAAAAAAAAIBAVAEAAAAAAAAAEIgqAAAAAAAAAAACUQUAAAAAAAAAQCCqAAAAAAAAAAAIRBUAAAAAAAAAAIGoAgAAAAAAAAAgEFUAAAAAAAAAAASiCgD4L7t2IAAAAAAgyN96gRGKIwAAAAAAABhSBQAAAAAAAADAkCoAAAAAAAAAAIZUAQAAAAAAAAAwpAoAAAAAAAAAgCFVAAAAAAAAAAAMqQIAAAAAAAAAYEgVAAAAAAAAAABDqgAAAAAAAAAAGFIFAAAAAAAAAMCQKgAAAAAAAAAAhlQBAAAAAAAAADCkCgAAAAAAAACAIVUAAAAAAAAAAAypAgAAAAAAAABgSBUAAAAAAAAAAEOqAAAAAAAAAAAYUgUAAAAAAAAAwJAqAAAAAAAAAACGVAEAAAAAAAAAMKQKAAAAAAAAAIAhVQAAAAAAAAAADKkCAAAAAAAAAGBIFQAAAAAAAAAAQ6oAAAAAAAAAABhSBQAAAAAAAADAkCoAAAAAAAAAAIZUAQAAAAAAAAAwpAoAAAAAAAAAgCFVAAAAAAAAAAAMqQIAAAAAAAAAYEgVAAAAAAAAAABDqgAAAAAAAAAAGFIFAAAAAAAAAMCQKgAAAAAAAAAAhlQBAAAAAAAAADCkCgAAAAAAAACAIVUAAAAAAAAAAAypAgAAAAAAAABgSBUAAAAAAAAAAEOqAAAAAAAAAAAYUgUAAAAAAAAAwJAqAAAAAAAAAACGVAEAAAAAAAAAMBJAAPbu6LaNI4/j+J7hd7sD80CQr9JVYKaCcyowXUF0FZipIEoFliuIUoHpDuRXEsRRHUgV5GZPm4OB/O4usVfRzOrzAQarR+NvCKshvzsrqgAAAAAAAAAACEQVAAAAAAAAAACBqAIAAAAAAAAAIBBVAAAAAAAAAAAEogoAAAAAAAAAgEBUAQAAAAAAAAAQiCoAAAAAAAAAAAJRBQAAAAAAAABAIKoAAAAAAAAAAAhEFQAAAAAAAAAAgagCAAAAAAAAACAQVQAAAAAAAAAABKIKAAAAAAAAAIBAVAEAAAAAAAAAEIgqAAAAAAAAAAACUQUAAAAAAAAAQCCqAAAAAAAAAAAIRBUAAAAAAAAAAIGoAgAAAAAAAAAgEFUAAAAAAAAAAASiCgAAAAAAAACAQFQBAAAAAAAAABCIKgAAAAAAAAAAAlEFAAAAAAAAAEAgqgAAAAAAAAAACEQVAAAAAAAAAACBqAIAAAAAAAAAIBBVAAAAAAAAAAAEogoAAAAAAAAAgEBUAQAAAAAAAAAQiCoAAAAAAAAAAAJRBQAAAAAAAABAIKoAAAAAAAAAAAhEFQAAAAAAAAAAgagCAAAAAAAAACAQVQAAAAAAAAAABKIKAAAAAAAAAIBAVAEAAAAAAAAAEIgqAAAAAAAAAAACUQUAAAAAAAAAQCCqAAAAAAAAAAAIRBUAAAAAAAAAAIGoAgAAAAAAAAAgEFUAAAAAAAAAAASiCgAAAAAAAACAQFQBAAAAAAAAABCIKgAAAAAAAAAAAlEFAAAAAAAAAEAgqgAAAAAAAAAACEQVAAAAAAAAAACBqAIAAAAAAAAAIBBVAAAAAAAAAAAEogoAAAAAAAAAgEBUAQAAAAAAAAAQiCoAAAAAAAAAAAJRBQAAAAAAAABAIKoAAAAAAAAAAAhEFQAAAAAAAAAAgagCAAAAAAAAACAQVQAAAAAAAAAABKIKAAAAAAAAAIBAVAEAAAAAAAAAEDw1AgAeg+Viflouz00C7sXMCAAAgEo9Xy7mK2OAe3O12x9ujAGAKRNVADA5y8V8Vi6vyloN65mpAAAAwKN0UtYHY4D7s1zM+8vHsq7K2u72h0tTAWBKRBUATGkDty6Xs+7uAxMAAAAA4M/xcljfLRfz23I975dTLACYgidGAEDrykbtVVnH8uO7TlABAAAAAA+pPzX2bVnH5WK+KcsreQFomqgCgGb1G7KytuXHn8p6YSIAAAAAUI1f44qr5WK+Mg4AWiWqAKBJZSN2Wi7H7u5YQQAAAACgTv3DUB+Wi/mZUQDQIlEFAM0pG7B1uWy7u9odAAAAAKjfD8vF/MIYAGiNqAKApgxHBb7rBBUAAAAA0JrXwgoAWiOqAKAZwys/Lk0CAAAAAJr12qtAAGiJqAKAJpSN1vNyueicUAEAAAAArftheIAKAKonqgCgFX29fmIMAAAAADAJTqQFoAmiCgCqt1zMZ+Xy1iQAAAAAYDJeLBfzjTEAUDtRBQAtsLkCAAAAgOk5G177CwDVElUAULXhlIrXJgEAAAAAk/OsrLUxAFAzUQUAtXtlBAAAAAAwWWsjAKBmogoAbKoAAAAAgIdyMpxWCwBVElUAUK1hM3ViEgAAAAAwaU6rBaBaogoAanZqBAAAAAAweSsjAKBWogoAaiaqAAAAAIDpmxkBALUSVQBgMwUAAAAAPCSvAAagWqIKAGo2MwIAAAAAAAAeiqgCAAAAAAAAACAQVQAAAAAAAAAABKIKAGp2YwQAAAAAAAA8FFEFADW7MgIAAAAAmLxrIwCgVqIKAGp2NAIAAAAAmLyjEQBQK1EFADVzUgUAAAAATN/WCAColagCgGrt9oc+qrg1CQAAAACYtK0RAFArUQUAtbs0AgAAAACYrNvd/rA1BgBqJaoAoHYXRgAAAAAAk3VhBADUTFQBQNWGSv2TSQAAAADAJJ0bAQA1E1UA0IKNEQAAAADA5Lzf7Q9HYwCgZqIKAKpXNlaX5fLRJAAAAABgMm47D1MB0ABRBQCtWA8bLQAAAACgfRunVADQAlEFAE0YNlhnJgEAAAAAzft5tz+cGwMALRBVANCMstG6KJcfTQIAAAAAmvWpuzuVFgCaIKoAoCm7/aE/reK9SQAAAABAc/qgYrXbH26MAoBWiCoAaE7ZdK07J1YAAAAAQEsEFQA0SVQBQJOGEyu+LevWNAAAAACgaj/u9odTQQUALRJVANCssgm7LJfTsn42DQAAAACoznVZ3wwPSAFAk0QVADStbMiOZb3qN2dlfTQRAAAAAHhwfUzxZrc/zMraGgcALXtqBABMwbA5Wy0X81m59pHFuqwTkwEAAACAP0UfUmzLuhBSADAlogoAJqU/uaJczofVLRfzVbnMhgXcj/737KUxAAAAFeq/5L0wBrhX27KOw+dyADA5ogoAJk0VD/dvuZhvOlEFAABQp/6L3o0xAADwpZ4YAQAAAAAAAADAb4kqAAAAAAAAAAACUQUAAAAAAAAAQCCqAAAAAAAAAAAIRBUAAAAAAAAAAIGoAgAAAAAAAAAgEFUAAAAAAAAAAASiCgAAAAAAAACAQFQBAAAAAAAAABCIKgAAAAAAAAAAAlEFAAAAAAAAAEAgqgAAAAAAAAAACEQVAAAAAAAAAACBqAIAAAAAAAAAIBBVAAAAAAAAAAAEogoAAAAAAAAAgEBUAQAAAAAAAAAQiCoAAAAAAAAAAAJRBQAAAAAAAABAIKoAAAAAAAAAAAhEFQAAAAAAAAAAgagCAAAAAAAAACAQVQAAAAAAAAAABKIKAAAAAAAAAIBAVAEAAAAAAAAAEIgqAAAAAAAAAAACUQUAAAAAAAAAQCCqAAAAAAAAAAAIRBUAAAAAAAAAAIGoAgAAAAAAAAAgEFUAAAAAAAAAAASiCgAAAAAAAACAQFQBAAAAAAAAABCIKgAAAAAAAAAAAlEFAAAAAAAAAEAgqgAAAAAAAAAACEQVAAAAAAAAAACBqAIAAAAAAAAAIBBVAAAAAAAAAAAEogoAAAAAAAAAgEBUAQAAAAAAAAAQiCoAAAAAAAAAAAJRBQAAAAAAAABAIKoAAAAAAAAAAAhEFQAAAAAAAAAAgagCAAAAAAAAACAQVQAAAAAAAAAABKIKAAAAAAAAAIBAVAEAAAAAAAAAEIgqAAAAAAAAAAACUQUAAAAAAAAAQCCqAAAAAAAAAAAIRBUAAAAAAAAAAIGoAgAAAAAAAAAgEFUAAAAAAAAAAASiCgAAAAAAAACAQFQBAAAAAAAAABCIKgAAAAAAAAAAAlEFAAAAAAAAAEAgqgAAAAAAAAAACEQVAAAAAAAAAACBqAIAAAAAAAAAIBBVAAAAAAAAAAAEogoAAAAAAAAAgEBUAQAAAAAAAAAQiCoAAAAAAAAAAAJRBQAAAAAAAABAIKoAAAAAAAAAAAhEFQAAAAAAAAAAgagCAAAAAAAAACAQVQAAAAAAAAAABKIKAAAAAAAAAIBAVAEAAAAAAAAAEIgqAAAAAAAAAAACUQUAAAAAAAAAQCCqAAAAAAAAAAAIRBUAAAAAAAAAAIGoAgAAAAAAAAAgEFUAAAAAAAAAAASiCgAAAAAAAACAQFQBAAAAAAAAABCIKgAAAAAAAAAAAlEFAAAAAAAAAEAgqgAAAAAAAAAACEQVAAAAAAAAAACBqAIAAAAAAAAAIBBVAAAAAAAAAAAEogoAAAAAAAAAgEBUAQAAAAAAAAAQiCoAAAAAAAAAAAJRBQAAAAAAAABAIKoAAAAAAAAAAAhEFQAAAAAAAAAAgagCAAAAAAAAACAQVQAAAAAAAAAABKIKAAAAAAAAAIBAVAEAAAAAAAAAEIgqAAAAAAAAAAACUQUAAAAAAAAAQCCqAAAAAAAAAAAIRBUAAAAAAAAAAIGoAgAAAAAAAAAgEFUAAAAAAAAAAASiCgAAAAAAAACAQFQBAAAAAAAAABCIKgAAAAAAAAAAAlEFAAAAAAAAAEAgqgAAAAAAAAAACEQVAAAAAAAAAACBqAIAAAAAAAAAIBBVAAAAAAAAAAAEogoAAAAAAAAAgEBUAQAAAAAAAAAQiCoAAAAAAAAAAAJRBQAAAAAAAABAIKoAAAAAAAAAAAhEFQAAAAAAAAAAgagCAAAAAAAAACAQVQAAAAAAAAAABKIKAAAAAAAAAIBAVAEAAAAAAAAAEIgqAAAAAAAAAAACUQUAAAAAAAAAQCCqAAAAAAAAAAAIRBUAAAAAAAAAAIGoAgAAAAAAAAAgEFUAAAAAAAAAAASiCgAAAAAAAACAQFQBAAAAAAAAABCIKgAAAAAAAAAAAlEFAAAAAAAAAEAgqgAAAAAAAAAACEQVAAAAAAAAAACBqAIAAAAAAAAAIBBVAAAAAAAAAAAEogoAAAAAAAAAgEBUAQAAAAAAAAAQiCoAAAAAAAAAAAJRBQAAAAAAAABAIKoAAAAAAAAAAAhEFQAAAAAAAAAAgagCAAAAAAAAACAQVQAAAAAAAAAABKIKAAAAAAAAAIBAVAEAAAAAAAAAEIgqAAAAAAAAAAACUQUAAAAAAAAAQCCqAAAAAAAAAAAIRBUAAAAAAAAAAIGoAgAAAAAAAAAgEFUAAAAAAAAAAASiCgAAAAAAAACAQFQBAAAAAAAAABCIKgAAAAAAAAAAAlEFAAAAAAAAAEAgqgAAAAAAAAAACEQVAAAAAAAAAACBqAIAAAAAAAAAIBBVAAAAAAAAAAAEogoAAAAAAAAAgEBUAQAAAAAAAAAQiCoAAAAAAAAAAAJRBQAAAAAAAABAIKoAAAAAAAAAAAhEFQAAAAAAAAAAgagCAAAAAAAAACAQVQAAAAAAAAAABKIKAAAAAAAAAIBAVAEAAAAAAAAAEIgqAAAAAAAAAACCp0YAwNQtF/NZucxMAu6N3y8Y+Xeq3LtWxgDwaJ0aAYzqub+t4F7d7PaHK2MAYMpEFQBMznIx7z+EXHd3H0a+NBEAGvN6WAAAfL2Tsj4YA9yf5WLeX67L2pZ12V93+8ONyQAwFaIKAKayeXve3YUUZ2W9MBEAAAAA+NP0n8f9GojfLhfzPq7Y7PaHo9EA0LonRgBA68ombV0u/Qbth05QAQAAAAAP6Vl3F1f8c7mYXwwPQwFAs0QVADSrbMj6d85vy4/vhs0aAAAAAFCPPq44LhfzV0YBQKtEFQA0qWzEVuVyVdZL0wAAAACAavUPQ/20XMzPjQKAFokqAGjO8LqPD53TKQAAAACgFd/1rwMxBgBaI6oAoClDUPHOJAAAAACgOa+FFQC0RlQBQDPKhuu0XBwTCAAAAADt6sOKjTEA0ApRBQBNKBut5+Vy2XnlBwAAAAC07u1yMV8ZAwAtEFUA0IpNWS+MAQAAAAAm4WJ4kAoAqiaqAKB6ZXM1K5fvTAIAAAAAJqN/gOrMGAConagCgBZsjAAAAAAAJufMaRUA1E5UAUDVhlMqXpsEAAAAAEzOs7LWxgBAzUQVANTOEYAAAAAAMF0+/wOgaqIKAGr3yggAAAAAYLJeLBfzU2MAoFaiCgCqNbz644VJAAAAAMCkrYwAgFqJKgComUIdAAAAAKZvZQQA1EpUAUDNRBUAAAAAMH0zIwCgVqIKAGymAAAAAICHdGIEANRKVAFAzWZGAAAAAAAAwEMRVQAAAAAAAAAABKIKAAAAAAAAAIBAVAFAzW6MAIARHY0AAAAAAPgjRBUA1OzKCAAYy25/OJoCANivAVClayMAoFaiCgBqdjQCAEbmgzoAsF8DwH0FAH43UQUANfPkEwBj2xoBAHy93f5gvwaAvRoAj4KoAoBqDR/SeaIYgDFtjQAAvtrPRgDAyC6NAIBaiSoAqN3WCAAYkQ/qAMD9FIC6XDsBCYCaiSoAqN25EQAwlt3+cNN5uhYAvsZtJ6oAYFzuKwBUTVQBQNWGSv2jSQAwIsEeAHy5yyFSBAB7NAAeBVEFAC3YGAEAY9ntD9tOsAcAX+LW/gyAkb0ve7SjMQBQM1EFANXz5RcA9+DMCADgDzv3xRcAI7q1NwOgBaIKAFqxHjZaAPDVhtdLfW8SAPC7fSr3z40xADCiM6+UAqAFogoAmjA8DbU2CQBGvLdsyuWTSQDA/3VrPwbAyPrXflwYAwAtEFUA0Iyy0bosl3+YBAAjWpV1bQwA8D+dDac8AcAY+rjdaz8AaIaoAoCm7PaH83J5bxIAjHRf6Y+afdV5xRQA/DdvPEkMwIj6oGLltR8AtERUAUBzyqZrXS5vTAKAke4r/ZO3s86rQADgc31w+K2gAoARfewEFQA0SFQBQJOGD/a+6TxZDMA495X+Q71VWT+aBgD85yniS6MAYCTfl/uKoAKAJokqAGhW2YRtu7sni70OBIAx7is3ZfXv9e2jvWsTAeAR6qP1/kuv0+EkJwD4Wv3pFH8r95WNUQDQKlEFAE0bvgBblx//2okrABjn3rIta9bdvWpKXAHAY/DvmKKsmS+9ABhJH1O8GU6nEOoB0LS//PLLL6YAwGQsF/Pn5bLu7o5w/7uJAJ/5ZjjhBv7oveX0s3vLiYkAMBF9SNH/bXQ5vF4RvuTvJB8uA5/7NNxbLoQUAEyJqAKASRu+COtDi5VpwL3pf79eNvDvFFUwxn2lv6f095bZsACgJf177PsvuY7l76KjcTDC30YtfLjcnzx24X8L7k1/X7mx3wZgykQVAAB8leVivimXtw38U0UVAAAw7l6ghQ+XP/avH/C/BQDAl3piBAAAAAAAAAAAvyWqAAAAAAAAAAAIRBUAAAAAAAAAAIGoAgAAAAAAAAAgEFUAAAAAAAAAAASiCgAAAAAAAACAQFQBAAAAAAAAABCIKgAAAAAAAAAAAlEFAAAAAAAAAEAgqgAAAAAAAAAACEQVAAAAAAAAAACBqAIAAAAAAAAAIBBVAAAAAAAAAAAEogoAAAAAAAAAgEBUAQAAAAAAAAAQiCoAAAAAAAAAAAJRBQAAAAAAAABAIKoAAAAAAAAAAAhEFQAAAAAAAAAAgagCAAAAAAAAACAQVQAAAAAAAAAABKIKAAAAAAAAAIBAVAEAAAAAAAAAEIgqAAAAAAAAAAACUQUAAAAAAAAAQCCqAAAAAAAAAAAIRBUAAAAAAAAAAIGoAgAAAAAAAAAgEFUAAAAAAAAAAASiCgAAAAAAAACAQFQBAAAAAAAAABCIKgAAAAAAAAAAAlEFAAAAAAAAAEAgqgAAAAAAAAAACEQVAAAAAAAAAACBqAIAAAAAAAAAIBBVAAAAAAAAAAAEogoAAAAAAAAAgEBUAQAAAAAAAAAQiCoAAAAAAAAAAAJRBQAAAAAAAABAIKoAAAAAAAAAAAhEFQAAAAAAAAAAgagCAAAAAAAAACAQVQAAAAAAAAAABKIKAAAAAAAAAIBAVAEAAAAAAAAAEIgqAAAAAAAAAAACUQUAAAAAAAAAQCCqAAAAAAAAAAAIRBUAAAAAAAAAAIGoAgAAAAAAAAAgEFUAAAAAAAAAAASiCgAAAAAAAACAQFQBAAAAAAAAABCIKgAAAAAAAAAAAlEFAAAAAAAAAEAgqgAAAAAAAAAACEQVAAAAAAAAAACBqAIAAAAAAAAAIBBVAAAAAAAAAAAEogoAAAAAAAAAgEBUAQAAAAAAAAAQiCoAAAAAAAAAAAJRBQAAAAAAAABAIKoAAAAAAAAAAAhEFQAAAAAAAAAAgagCAAAAAAAAACAQVQAAAAAAAAAABKIKAAAAAAAAAIBAVAEAAAAAAAAAEIgqAAAAAAAAAAACUQUAAAAAAAAAQCCqAAAAAAAAAAAIRBUAAAAAAAAAAIGoAgAAAAAAAAAgEFUAAAAAAAAAAASiCgAAAAAAAACAQFQBAAAAAAAAABCIKgAAAAAAAAAAAlEFAAAAAAAAAEAgqgAAAAAAAAAACEQVAAAAAAAAAACBqAIAAAAAAAAAIBBVAAAAAAAAAAAEogoAAAAAAAAAgEBUAQAAAAAAAAAQiCoAAAAAAAAAAAJRBQAAAAAAAABAIKoAAAAAAAAAAAhEFQAAAAAAAAAAgagCAAAAAAAAACAQVQAAAAAAAAAABKIKAAAAAAAAAIBAVAEAAAAAAAAAEIgqAAAAAAAAAAACUQUAAAAAAAAAQCCqAAAAAAAAAAAIRBUAAAAAAAAAAIGoAgAAAAAAAAAgEFUAAAAAAAAAAASiCgAAAAAAAACAQFQBAAAAAAAAABCIKgAAAAAAAAAAAlEFAAAAAAAAAEAgqgAAAAAAAAAACEQVAAAAAAAAAACBqAIAAAAAAAAAIBBVAAAAAAAAAAAEogoAAAAAAAAAgEBUAQAAAAAAAAAQiCoAAAAAAAAAAAJRBQAAAAAAAABAIKoAAAAAAAAAAAhEFQAAAAAAAAAAgagCAAAAAAAAACAQVQAAAAAAAAAABKIKAAAAAAAAAIBAVAEAAAAAAAAAEIgqAAAAAAAAAAACUQUAAAAAAAAAQCCqAAAAAAAAAAAIRBUAAAAAAAAAAIGoAgAAAAAAAAAgEFUAAAAAAAAAAASiCgAAAAAAAACAQFQBAAAAAAAAABCIKgAAAAAAAAAAgqdGAADAI/FhuZibAgAAAAAAv5uTKgAAAAAAAAAAAlEFAAAAAAAAAEAgqgAAAAAAAAAACEQVAAAAAAAAAACBqAIAAAAAAAAAIBBVAAAAAAAAAAAEogoAAAAAAAAAgEBUAQAAAAAAAAAQiCoAAAAAAAAAAAJRBQAAAAAAAABAIKoAAAAAAAAAAAhEFQAAAAAAAAAAgagCAAAAAP7F3t3dtnGmARhV0kDSQQwI0m3SwWo7cAlKBVEJdAdOB3IH2gpW7kC+JUGA6sCqQDvc8MJAnt0E4vB3zgEG4yt58I1ffKDnoQYAAACCqAIAAAAAAAAAIIgqAAAAAAAAAACCqAIAAAAAAAAAIIgqAAAAAAAAAACCqAIAAAAAAAAAIIgqAAAAAAAAAACCqAIAAAAAAAAAIIgqAAAAAAA4VytLAADANkQVAABsa2UJAAAAn1cAADhHogoAALa1sgQAAAAAAJwjUQUAANtaWQIAAOBIPVkCAAC2IaoAAGAr88VyNZxerAQAAHCERBUAAGxFVAEAwBgeLQEAAHBknjcROAAAvJmoAgCAMTxYAgAAwOcUAADOjagCAIAxrP+z0itAAACAY3JvCQAA2JaoAgCArc0Xy68XvgUGAAAcj8/D55QnywAAwLZEFQAAjGVmCQAAAJ9PAAA4J6IKAABGMV8sV8Ppg5UAAAAObP1bKh4tAwAAYxBVAAAwpo/D8WwZAACAA3kZjlvLAADAWEQVAACMZr5Yfh1O760EAABwIHeb36IHAACjEFUAADCq+WL5NJx+tRIAAMCefRo+j9xbBgAAxiSqAABgdJv/yBRWAAAA+7IOKm4tAwAAYxNVAACwE8IKAABgTwQVAADsjKgCAICd2YQV/xyOF6sBAACMbP0541dBBQAAuySqAABgp+aL5eNwejccn6wGAAAwks/DcbMJuQEAYGe+e319tQoAAOzF9dXlzXCaDcc/rAYAAPAGX9afKeaL5YOlAABgH0QVAADs3fXV5bvhdDcc74fjJysCAAD8H+vXfKwjivvNb8IDAIC9EVUAAHBQm8Dil83xbnPALvw4HD+fwHU+D8fK7cJcmSvMlbliwlbfHE/zxfLJkgAAcCiiCgAAYBI2r5/59wlc6of5YjlzxzBX5gpzZa4AAAAO73tLAAAAAAAAAADwZ6IKAAAAAAAAAIAgqgAAAAAAAAAACKIKAAAAAAAAAIAgqgAAAAAAAAAACKIKAAAAAAAAAIAgqgAAAAAAAAAACKIKAAAAAAAAAIAgqgAAAAAAAAAACKIKAAAAAAAAAIAgqgAAAAAAAAAACKIKAAAAAAAAAIAgqgAAAAAAAAAACKIKAAAAAAAAAIAgqgAAAAAAAAAACKIKAAAAAAAAAIAgqgAAAAAAAAAACKIKAAAAAAAAAIAgqgAAAAAAAAAACKIKAAAAAAAAAIAgqgAAAAAAAAAACKIKAAAAAAAAAIAgqgAAAAAAAAAACKIKAAAAAAAAAIAgqgAAAAAAAAAACKIKAAAAAAAAAIAgqgAAAAAAAAAACKIKAAAAAAAAAIAgqgAAAAAAAAAACKIKAAAAAAAAAIAgqgAAAAAAAAAACKIKAAAAAAAAAIAgqgAAAAAAAAAACKIKAAAAAAAAAIAgqgAAAAAAAAAACKIKAAAAAAAAAIAgqgAAAAAAAAAACKIKAAAAAAAAAIAgqgAAAAAAAAAACKIKAAAAAAAAAIAgqgAAAAAAAAAACKIKAAAAAAAAAIAgqgAAAAAAAAAACKIKAAAAAAAAAIAgqgAAAAAAAAAACKIKAAAAAAAAAIAgqgAAAAAAAAAACKIKAAAAAAAAAIAgqgAAAAAAAAAACKIKAAAAAAAAAIAgqgAAAAAAAAAACKIKAAAAAAAAAIAgqgAAAAAAAAAACKIKAAAAAAAAAIAgqgAAAAAAAAAACKIKAAAAAAAAAIAgqgAAAAAAAAAACKIKAAAAAAAAAIAgqgAAAAAAAAAACKIKAAAAAAAAAIAgqgAAAAAAAAAACKIKAAAAAAAAAIAgqgAAAAAAAAAACKIKAAAAAAAAAIAgqgAAAAAAAAAACKIKAAAAAAAAAIAgqgAAAAAAAAAACKIKAAAAAAAAAIAgqgAAAAAAAAAACKIKAAAAAAAAAIAgqgAAAAAAAAAACKIKAAAAAAAAAIAgqgAAAAAAAAAACKIKAAAAAAAAAIAgqgAAAAAAAAAACKIKAAAAAAAAAIAgqgAAAAAAAAAACKIKAAAAAAAAAIAgqgAAAAAAAAAACKIKAAAAAAAAAIAgqgAAAAAAAAAACKIKAAAAAAAAAIAgqgAAAAAAAAAACKIKAAAAAAAAAIAgqgAAAAAAAAAACKIKAAAAAAAAAIAgqgAAAAAAAAAACKIKAAAAAAAAAIAgqgAAAAAAAAAACKIKAAAAAAAAAIAgqgAAAAAAAAAACKIKAAAAAAAAAIAgqgAAAAAAAAAACKIKAAAAAAAAAIAgqgAAAAAAAAAACKIKAAAAAAAAAIAgqgAAAAAAAAAACKIKAAAAAAAAAIAgqgAAAAAAAAAACKIKAAAAAAAAAIAgqgAAAAAAAAAACKIKAAAAAAAAAIAgqgAAAAAAAAAACKIKAAAAAAAAAIAgqgAAAAAAAAAACKIKAAAAAAAAAIAgqgAAAAAAAAAACKIKAAAAAAAAAIAgqgAAAAAAAAAACKIKAAAAAAAAAIAgqgAAAAAAAAAACKIKAAAAAAAAAIAgqgAAAAAAAAAACKIKAAAAAAAAAIAgqgAAAAAAAAAACKIKAAAAAAAAAIAgqgAAAAAAAAAACKIKAAAAAAAAAIAgqgAAAAAAAAAACKIKAAAAAAAAAIAgqgAAAAAAAAAACKIKAAAAAAAAAIAgqgAAAAAAAAAACKIKAAAAAAAAAIAgqgAAAAAAAAAACKIKAAAAAAAAAIAgqgAAAAAAAAAACKIKAAAAAAAAAIAgqgAAAAAAAAAACKIKAAAAAAAAAIAgqgAAAAAAAAAACKIKAAAAAAAAAIAgqgAAAAAAAAAACKIKAAAAAAAAAIAgqgAAAAAAAAAACKIKAAAAAAAAAIAgqgAAAAAAAAAACKIKAAAAAAAAAIAgqgAAAAAAAAAACKIKAAAAAAAAAIAgqgAAAAAAAAAACKIKAAAAAAAAAIAgqgAAAAAAAAAACKIKAAAAAAAAAIAgqgAAAAAAAAAACKIKAAAAAAAAAIAgqgAAAAAAAAAACKIKAAAAAAAAAIAgqgAAAAAAAAAACKIKAAAAAAAAAIAgqgAAAAAAAAAACKIKAAAAAAAAAIAgqgAAAAAAAAAACKIKAAAAAAAAAIAgqgAAAAAAAAAACKIKAAAAAAAAAIAgqgAAAAAAAAAACKIKAAAAAAAAAIAgqgAAAAAAAAAACKIKAAAAAAAAAIAgqgAAAAAAAAAACKIKAAAAAAAAAIAgqgAAAAAAAAAACKIKAAAAAAAAAIAgqgAAAAAAAAAACKIKAAAAAAAAAIAgqgAAAAAAAAAACKIKAAAAAAAAAIAgqgAAAAAAAAAACKIKAAAAAAAAAIAgqgAAAAAAAAAACKIKAAAAAAAAAIAgqgAAAAAAAAAACKIKAAAAAAAAAIAgqgAAAAAAAAAACKIKAAAAAAAAAIAgqgAAAAAAAAAACKIKAAAAAAAAAIAgqgAAAAAAAAAACKIKAAAAAAAAAIAgqgAAAAAAAAAACKIKAAAAAAAAAIAgqgAAAAAAAAAACKIKAAAAAAAAAIAgqgAAAAAAAAAACKIKAAAAAAAAAIAgqgAAAAAAAAAACKIKAAAAAAAAAIAgqgAAAAAAAAAACKIKAAAAAAAAAIAgqgAAAAAAAAAACKIKAAAAAAAAAIAgqgAAAAAAAAAACKIKAAAAAAAAAIAgqgAAAAAAAAAACKIKAAAAAAAAAIAgqgAAAAAAAAAACKIKAAAAAAAAAIAgqgAAAAAAAAAACKIKAAAAAAAAAIAgqgAAAAAAAAAACKIKAAAAAAAAAIAgqgAAAAAAAAAACKIKAAAAAAAAAIAgqgAAAAAAAAAACKIKAAAAAAAAAIAgqgAAAAAAAAAACKIKAAAAAAAAAIAgqgAAAAAAAAAACKIKAAAAAAAAAIAgqgAAAAAAAAAACKIKAAAAAAAAAIAgqgAAAAAAAAAACKIKAAAAAAAAAIAgqgAAAAAAAAAACKIKAABgKp4sAYzu64lc58qtwn4FAADAW4gqAACASZgvlqfy8PfR3eKE5upUHv6u3C3sV/YrAACAtxBVAAAAU/L5BK5x5TZxYp5P4Bp98x/7lf0KAADgTUQVAADAlBz7g9Xn+WK5cps4MY9Hfn1fTuib/2C/AgAAODKiCgAAYEoeXR+YKzBX5goAAODvElUAAACTMV8sH4bTyxFf4oO7xAk69rm6d4uwX9mvAAAA3kpUAQAATM39kV7X8+YhGpyUzas1jvXf7vrVH0/uEvYr+xUAAMBbiSoAAICp+Xik1zVzazhhM/MO9isAAIBzJKoAAAAmZb5YrobT70d2Wetv/d67O5z4XH06ssv6Yq6wX9mvAAAAtiWqAAAApmh2cVzvqr9zSzgDd+YK7FcAAADnRlQBAABMznyx/Dqcbo/kcj55Nz3manS/D9fz6K5gruxXAAAA2xJVAAAAk7R5MPThwJfx5cK3fjm/uTr0a0DWr/0wV5zbXB36NSD2KwAAYLJEFQAAwGTNF8vZxeEeAD8Px83mW8hwTnN1e8C5Wj/4vXEXOMO5ujv0XNmvAACAqRJVAAAAk3agB8AeUGGuzBWYKwAAgBMgqgAAACZv86BqX68C+XzxxwOqlZVnAnO1r1cW/OvCg1/sV7var8wVAAAwad+9vr5aBQAAgMH11eXNcLofjp929Fd82LxyBKY0V+83c/XDDn78y3DMhrn6aKWxX9mvAAAAdkFUAQAA8I3rq8sfh9Pd5hjrIfD62763fjsFE5+r2XD8NuKPXb8GYWausF/ZrwAAAHZJVAEAABC+eVh1e/G2bwKvv0H/MBwf54vlkxWF/87Vu81MbTtXYgqwXwEAAOyFqAIAAOAvXF9d/jKc1q8wuBmOdxf/+6HV+hu+6wdSj+vDe+jhb8/V+s8//NVcDTP1YOXAfgUAALBPogoAAAAAAAAAgPC9JQAAAAAAAAAA+DNRBQAAAAAAAABAEFUAAAAAAAAAAARRBQAAAAAAAABAEFUAAAAAAAAAAARRBQAAAAAAAABAEFUAAAAAAAAAAARRBQAAAAAAAABAEFUAAAAAAAAAAARRBQAAAAAAAABAEFUAAAAAAAAAAARRBQAAAAAAAABAEFUAAAAAAAAAAARRBQAAAAAAAABAEFUAAAAAAAAAAARRBQAAAAAAAABAEFUAAAAAAAAAAARRBQAAAAAAAABAEFUAAAAAAAAAAARRBQAAAAAAAABAEFUAAAAAAAAAAARRBQAAAAAAAABAEFUAAAAAAAAAAARRBQAAAAAAAABAEFUAAAAAAAAAAARRBQAAAAAAAABAEFUAAAAAAAAAAARRBQAAAAAAAABAEFUAAAAAAAAAAARRBQAAAAAAAABAEFUAAAAAAAAAAARRBQAAAAAAAABAEFUAAAAAAAAAAARRBQAAAAAAAABAEFUAAAAAAAAAAARRBQAAAAAAAABAEFUAAAAAAAAAAARRBQAAAAAAAABAEFUAAAAAAAAAAARRBQAAAAAAAABAEFUAAAAAAAAAAARRBQAAAAAAAABAEFUAAAAAAAAAAARRBQAAAAAAAABAEFUAAAAAAAAAAARRBQAAAAAAAABAEFUAAAAAAAAAAARRBQAAAAAAAABAEFUAAAAAAAAAAARRBQAAAAAAAABAEFUAAAAAAAAAAARRBQAAAAAAAABAEFUAAAAAAAAAAARRBQAAAAAAAABAEFUAAAAAAAAAAARRBQAAAAAAAABAEFUAAAAAAAAAAARRBQAAAAAAAABAEFUAAAAAAAAAAARRBQAAAAAAAABAEFUAAAAAAAAAAARRBQAAAAAAAABAEFUAAAAAAAAAAARRBQAAAAAAAABAEFUAAAAAAAAAAARRBQAAAAAAAABAEFUAAAAAAAAAAARRBQAAAAAAAABAEFUAAAAAAAAAAARRBQAAAAAAAABAEFUAAAAAAAAAAARRBQAAAAAAAABAEFUAAAAAAAAAAARRBQAAAAAAAABAEFUAAAAAAAAAAARRBQAAAAAAAABAEFUAAAAAAAAAAARRBQAAAAAAAABAEFUAAAAAAAAAAARRBQAAAAAAAABAEFUAAAAAAAAAAARRBQAAAAAAAABAEFUAAAAAAAAAAARRBQAAAAAAAABAEFUAAAAAAAAAAARRBQAAAAAAAABAEFUAAAAAAAAAAARRBQAAAAAAAABAEFUAAAAAAAAAAARRBQAAAAAAAABAEFUAAAAAAAAAAARRBQAAAAAAAABAEFUAAAAAAAAAAARRBQAAAAAAAABAEFUAAAAAAAAAAARRBQAAAAAAAABAEFUAAAAAAAAAAARRBQAAAAAAAABAEFUAAAAAAAAAAARRBQAAAAAAAABAEFUAAAAAAAAAAARRBQAAAAAAAABAEFUAAAAAAAAAAARRBQAAAAAAAABAEFUAAAAAAAAAAARRBQAAAAAAAABAEFUAAAAAAAAAAARRBQAAAAAAAABAEFUAAAAAAAAAAARRBQAAAAAAAABAEFUAAAAAAAAAAARRBQAAAAAAAABAEFUAAAAAAAAAAARRBQAAAAAAAABAEFUAAAAAAAAAAARRBQAAAAAAAABAEFUAAAAAAAAAAARRBQAAAAAAAABAEFUAAAAAAAAAAARRBQAAAAAAAABAEFUAAAAAAAAAAARRBQAAAAAAAABAEFUAAAAAAAAAAARRBQAAAAAAAABAEFUAAAAAAAAAAARRBQAAAAAAAABAEFUAAAAAAAAAAARRBQAAAAAAAABAEFUAAAAAAAAAAARRBQAAAAAAAABAEFUAAAAAAAAAAARRBQAAAAAAAABAEFUAAAAAAAAAAARRBQAAAAAAAABAEFUAAAAAAAAAAARRBQAAAAAAAABAEFUAAAAAAAAAAARRBQAAAAAAAABAEFUAAAAAAAAAAARRBQAAAAAAAABAEFUAAAAAAAAAAARRBQAAAAAAAABAEFUAAAAAAAAAAARRBQAAAAAAAABAEFUAAAAAAAAAAARRBQAAAAAAAABAEFUAAAAAAAAAAARRBQAAAAAAAABAEFUAAAAAAAAAAARRBQAAAAAAAABAEFUAAAAAAAAAAARRBQAAAAAAAABAEFUAAAAAAAAAAARRBQAAAAAAAABAEFUAAAAAAAAAAARRBQAAAAAAAABAEFUAAAAAAAAAAARRBQAAAAAAAABAEFUAAAAAAAAAAARRBQAAAAAAAABAEFUAAAAAAAAAAARRBQAAAAAAAABAEFUAAAAAAAAAAARRBQAAAAAAAABAEFUAAAAAAAAAAARRBQAAAAAAAABAEFUAAAAAAAAAAARRBQAAAAAAAABAEFUAAAAAAAAAAARRBQAAAAAAAABAEFUAAAAAAAAAAARRBQAAAAAAAABAEFUAAAAAAAAAAARRBQAAAAAAAABAEFUAAAAAAAAAAARRBQAAAAAAAABAEFUAAAAAAAAAAARRBQAAAAAAAABAEFUAAAAAAAAAAARRBQAAAAAAAABAEFUAAAAAAAAAAARRBQAAAAAAAABAEFUAAAAAAAAAAARRBQAAAAAAAABAEFUAAAAAAAAAAARRBQAAAAAAAABAEFUAAAAAAAAAAARRBQAAAAAAAABAEFUAAAAAAAAAAARRBQAAAAAAAABAEFUAAAAAAAAAAARRBQAAAAAAAABAEFUAAAAAAAAAAARRBQAAAAAAAABAEFUAAAAAAAAAAARRBQAAAAAAAABAEFUAAAAAAAAAAARRBQAAAAAAAABAEFUAAAAAAAAAAARRBQAAAAAAAABAEFUAAAAAAAAAAARRBQAAAAAAAABAEFUAAAAAAAAAAARRBQAAAAAAAABAEFUAAAAAAAAAAARRBQAAAAAAAABAEFUAAAAAAAAAAARRBQAAAAAAAPAfdu1AAAAAAECQv/UCIxRHAAypAgAAAAAAAABgSBUAAAAAAAAAAEOqAAAAAAAAAAAYUgUAAAAAAAAAwJAqAAAAAAAAAACGVAEAAAAAAAAAMKQKAAAAAAAAAIAhVQAAAAAAAAAADKkCAAAAAAAAAGBIFQAAAAAAAAAAQ6oAAAAAAAAAABhSBQAAAAAAAADAkCoAAAAAAAAAAIZUAQAAAAAAAAAwpAoAAAAAAAAAgCFVAAAAAAAAAAAMqQIAAAAAAAAAYEgVAAAAAAAAAABDqgAAAAAAAAAAGFIFAAAAAAAAAMCQKgAAAAAAAAAAhlQBAAAAAAAAADCkCgAAAAAAAACAIVUAAAAAAAAAAAypAgAAAAAAAABgSBUAAAAAAAAAAEOqAAAAAAAAAAAYUgUAAAAAAAAAwJAqAAAAAAAAAACGVAEAAAAAAAAAMKQKAAAAAAAAAIAhVQAAAAAAAAAADKkCAAAAAAAAAGBIFQAAAAAAAAAAQ6oAAAAAAAAAABhSBQAAAAAAAADAkCoAAAAAAAAAAIZUAQAAAAAAAAAwpAoAAAAAAAAAgCFVAAAAAAAAAAAMqQIAAAAAAAAAYEgVAAAAAAAAAABDqgAAAAAAAAAAGFIFAAAAAAAAAMCQKgAAAAAAAAAAhlQBAAAAAAAAADCkCgAAAAAAAACAIVUAAAAAAAAAAAypAgAAAAAAAABgJIAA7dqBAAAAAIAgf+sFRiiOpAoAAAAAAAAAgCFVAAAAAAAAAAAMqQIAAAAAAAAAYEgVAAAAAAAAAABDqgAAAAAAAAAAGFIFAAAAAAAAAMCQKgAAAAAAAAAAhlQBAAAAAAAAADCkCgAAAAAAAACAIVUAAAAAAAAAAAypAgAAAAAAAABgSBUAAAAAAAAAAEOqAAAAAAAAAAAYUgUAAAAAAAAAwJAqAAAAAAAAAACGVAEAAAAAAAAAMKQKAAAAAAAAAIAhVQAAAAAAAAAADKkCAAAAAAAAAGBIFQAAAAAAAAAAQ6oAAAAAAAAAABhSBQAAAAAAAADAkCoAAAAAAAAAAIZUAQAAAAAAAAAwpAoAAAAAAAAAgCFVAAAAAAAAAAAMqQIAAAAAAAAAYEgVAAAAAAAAAABDqgAAAAAAAAAAGFIFAAAAAAAAAMCQKgAAAAAAAAAAhlQBAAAAAAAAADCkCgAAAAAAAACAIVUAAAAAAAAAAAypAgAAAAAAAABgSBUAAAAAAAAAAEOqAAAAAAAAAAAYUgUAAAAAAAAAwJAqAAAAAAAAAACGVAEAAAAAAAAAMKQKAAAAAAAAAIAhVQAAAAAAAAAADKkCAAAAAAAAAGBIFQAAAAAAAAAAQ6oAAAAAAAAAABhSBQAAAAAAAADAkCoAAAAAAAAAAIZUAQAAAAAAAAAwpAoAAAAAAAAAgCFVAAAAAAAAAAAMqQIAAAAAAAAAYEgVAAAAAAAAAABDqgAAAAAAAAAAGFIFAAAAAAAAAMCQKgAAAAAAAAAAhlQBAAAAAAAAADCkCgAAAAAAAACAIVUAAAAAAAAAAAypAgAAAAAAAABgSBUAAAAAAAAAAEOqAAAAAAAAAAAYUgUAAAAAAAAAwJAqAAAAAAAAAACGVAEAAAAAAAAAMKQKAAAAAAAAAIAhVQAAAAAAAAAADKkCAAAAAAAAAGBIFQAAAAAAAAAAQ6oAAAAAAAAAABhSBQAAAAAAAADAkCoAAAAAAAAAAIZUAQAAAAAAAAAwpAoAAAAAAAAAgCFVAAAAAAAAAAAMqQIAAAAAAAAAYEgVAAAAAAAAAABDqgAAAAAAAAAAGFIFAAAAAAAAAMCQKgAAAAAAAAAAhlQBAAAAAAAAADCkCgAAAAAAAACAIVUAAAAAAAAAAAypAgAAAAAAAABgSBUAAAAAAAAAAEOqAAAAAAAAAAAYUgUAAAAAAAAAwJAqAAAAAAAAAACGVAEAAAAAAAAAMKQKAAAAAAAAAIAhVQAAAAAAAAAADKkCAAAAAAAAAGBIFQAAAAAAAAAAQ6oAAAAAAAAAABhSBQAAAAAAAADAkCoAAAAAAAAAAIZUAQAAAAAAAAAwpAoAAAAAAAAAgCFVAAAAAAAAAAAMqQIAAAAAAAAAYEgVAAAAAAAAAABDqgAAAAAAAAAAGFIFAAAAAAAAAMCQKgAAAAAAAAAAhlQBAAAAAAAAADCkCgAAAAAAAACAIVUAAAAAAAAAAAypAgAAAAAAAABgSBUAAAAAAAAAAEOqAAAAAAAAAAAYUgUAAAAAAAAAwJAqAAAAAAAAAACGVAEAAAAAAAAAMKQKAAAAAAAAAIAhVQAAAAAAAAAADKkCAAAAAAAAAGBIFQAAAAAAAAAAQ6oAAAAAAAAAABhSBQAAAAAAAADAkCoAAAAAAAAAAIZUAQAAAAAAAAAwpAoAAAAAAAAAgCFVAAAAAAAAAAAMqQIAAAAAAAAAYEgVAAAAAAAAAABDqgAAAAAAAAAAGFIFAAAAAAAAAMCQKgAAAAAAAAAAhlQBAAAAAAAAADCkCgAAAAAAAACAIVUAAAAAAAAAAAypAgAAAAAAAABgSBUAAAAAAAAAAEOqAAAAAAAAAAAYUgUAAAAAAAAAwJAqAAAAAAAAAACGVAEAAAAAAAAAMKQKAAAAAAAAAIAhVQAAAAAAAAAADKkCAAAAAAAAAGBIFQAAAAAAAAAAQ6oAAAAAAAAAABhSBQAAAAAAAADAkCoAAAAAAAAAAIZUAQAAAAAAAAAwpAoAAAAAAAAAgCFVAAAAAAAAAAAMqQIAAAAAAAAAYEgVAAAAAAAAAABDqgAAAAAAAAAAGFIFAAAAAAAAAMCQKgAAAAAAAAAAhlQBAAAAAAAAADCkCgAAAAAAAACAIVUAAAAAAAAAAAypAgAAAAAAAABgSBUAAAAAAAAAAEOqAAAAAAAAAAAYUgUAAAAAAAAAwJAqAAAAAAAAAACGVAEAAAAAAAAAMKQKAAAAAAAAAIAhVQAAAAAAAAAADKkCAAAAAAAAAGBIFQAAAAAAAAAAQ6oAAAAAAAAAABhSBQAAAAAAAADAkCoAAAAAAAAAAEYrqxtxSj68aAAAAABJRU5ErkJggg==;" parent="1" vertex="1">
          <mxGeometry x="200" y="1160" width="50" height="50" as="geometry" />
        </mxCell>
        <mxCell id="v1EW0JT8d4S7AqYUZW40-8" value="" style="shape=image;verticalLabelPosition=bottom;labelBackgroundColor=default;verticalAlign=top;aspect=fixed;imageAspect=0;image=data:image/png,iVBORw0KGgoAAAANSUhEUgAACFUAAAhVCAYAAACx2Qd4AAAACXBIWXMAAC4jAAAuIwF4pT92AAAAGXRFWHRTb2Z0d2FyZQBBZG9iZSBJbWFnZVJlYWR5ccllPAAAgdBJREFUeNrs2jERACAQwDDAv+dn5qiERELn7plZAAAAAAAAAAC8jgQAAAAAAAAAAD9TBQAAAAAAAABAMFUAAAAAAAAAAARTBQAAAAAAAABAMFUAAAAAAAAAAARTBQAAAAAAAABAMFUAAAAAAAAAAARTBQAAAAAAAABAMFUAAAAAAAAAAARTBQAAAAAAAABAMFUAAAAAAAAAAARTBQAAAAAAAABAMFUAAAAAAAAAAARTBQAAAAAAAABAMFUAAAAAAAAAAARTBQAAAAAAAABAMFUAAAAAAAAAAARTBQAAAAAAAABAMFUAAAAAAAAAAARTBQAAAAAAAABAMFUAAAAAAAAAAARTBQAAAAAAAABAMFUAAAAAAAAAAARTBQAAAAAAAABAMFUAAAAAAAAAAARTBQAAAAAAAABAMFUAAAAAAAAAAARTBQAAAAAAAABAMFUAAAAAAAAAAARTBQAAAAAAAABAMFUAAAAAAAAAAARTBQAAAAAAAABAMFUAAAAAAAAAAARTBQAAAAAAAABAMFUAAAAAAAAAAARTBQAAAAAAAABAMFUAAAAAAAAAAARTBQAAAAAAAABAMFUAAAAAAAAAAARTBQAAAAAAAABAMFUAAAAAAAAAAARTBQAAAAAAAABAMFUAAAAAAAAAAARTBQAAAAAAAABAMFUAAAAAAAAAAARTBQAAAAAAAABAMFUAAAAAAAAAAARTBQAAAAAAAABAMFUAAAAAAAAAAARTBQAAAAAAAABAMFUAAAAAAAAAAARTBQAAAAAAAABAMFUAAAAAAAAAAARTBQAAAAAAAABAMFUAAAAAAAAAAARTBQAAAAAAAABAMFUAAAAAAAAAAARTBQAAAAAAAABAMFUAAAAAAAAAAARTBQAAAAAAAABAMFUAAAAAAAAAAARTBQAAAAAAAABAMFUAAAAAAAAAAARTBQAAAAAAAABAMFUAAAAAAAAAAARTBQAAAAAAAABAMFUAAAAAAAAAAARTBQAAAAAAAABAMFUAAAAAAAAAAARTBQAAAAAAAABAMFUAAAAAAAAAAARTBQAAAAAAAABAMFUAAAAAAAAAAARTBQAAAAAAAABAMFUAAAAAAAAAAARTBQAAAAAAAABAMFUAAAAAAAAAAARTBQAAAAAAAABAMFUAAAAAAAAAAARTBQAAAAAAAABAMFUAAAAAAAAAAARTBQAAAAAAAABAMFUAAAAAAAAAAARTBQAAAAAAAABAMFUAAAAAAAAAAARTBQAAAAAAAABAMFUAAAAAAAAAAARTBQAAAAAAAABAMFUAAAAAAAAAAARTBQAAAAAAAABAMFUAAAAAAAAAAARTBQAAAAAAAABAMFUAAAAAAAAAAARTBQAAAAAAAABAMFUAAAAAAAAAAARTBQAAAAAAAABAMFUAAAAAAAAAAARTBQAAAAAAAABAMFUAAAAAAAAAAARTBQAAAAAAAABAMFUAAAAAAAAAAARTBQAAAAAAAABAMFUAAAAAAAAAAARTBQAAAAAAAABAMFUAAAAAAAAAAARTBQAAAAAAAABAMFUAAAAAAAAAAARTBQAAAAAAAABAMFUAAAAAAAAAAARTBQAAAAAAAABAMFUAAAAAAAAAAARTBQAAAAAAAABAMFUAAAAAAAAAAARTBQAAAAAAAABAMFUAAAAAAAAAAARTBQAAAAAAAABAMFUAAAAAAAAAAARTBQAAAAAAAABAMFUAAAAAAAAAAARTBQAAAAAAAABAMFUAAAAAAAAAAARTBQAAAAAAAABAMFUAAAAAAAAAAARTBQAAAAAAAABAMFUAAAAAAAAAAARTBQAAAAAAAABAMFUAAAAAAAAAAARTBQAAAAAAAABAMFUAAAAAAAAAAARTBQAAAAAAAABAMFUAAAAAAAAAAARTBQAAAAAAAABAMFUAAAAAAAAAAARTBQAAAAAAAABAMFUAAAAAAAAAAARTBQAAAAAAAABAMFUAAAAAAAAAAARTBQAAAAAAAABAMFUAAAAAAAAAAARTBQAAAAAAAABAMFUAAAAAAAAAAARTBQAAAAAAAABAMFUAAAAAAAAAAARTBQAAAAAAAABAMFUAAAAAAAAAAARTBQAAAAAAAABAMFUAAAAAAAAAAARTBQAAAAAAAABAMFUAAAAAAAAAAARTBQAAAAAAAABAMFUAAAAAAAAAAARTBQAAAAAAAABAMFUAAAAAAAAAAARTBQAAAAAAAABAMFUAAAAAAAAAAARTBQAAAAAAAABAMFUAAAAAAAAAAARTBQAAAAAAAABAMFUAAAAAAAAAAARTBQAAAAAAAABAMFUAAAAAAAAAAARTBQAAAAAAAABAMFUAAAAAAAAAAARTBQAAAAAAAABAMFUAAAAAAAAAAARTBQAAAAAAAABAMFUAAAAAAAAAAARTBQAAAAAAAABAMFUAAAAAAAAAAARTBQAAAAAAAABAMFUAAAAAAAAAAARTBQAAAAAAAABAMFUAAAAAAAAAAARTBQAAAAAAAABAMFUAAAAAAAAAAARTBQAAAAAAAABAMFUAAAAAAAAAAARTBQAAAAAAAABAMFUAAAAAAAAAAARTBQAAAAAAAABAMFUAAAAAAAAAAARTBQAAAAAAAABAMFUAAAAAAAAAAARTBQAAAAAAAABAMFUAAAAAAAAAAARTBQAAAAAAAABAMFUAAAAAAAAAAARTBQAAAAAAAABAMFUAAAAAAAAAAARTBQAAAAAAAABAMFUAAAAAAAAAAARTBQAAAAAAAABAMFUAAAAAAAAAAARTBQAAAAAAAABAMFUAAAAAAAAAAARTBQAAAAAAAABAMFUAAAAAAAAAAARTBQAAAAAAAABAMFUAAAAAAAAAAARTBQAAAAAAAABAMFUAAAAAAAAAAARTBQAAAAAAAABAMFUAAAAAAAAAAARTBQAAAAAAAABAMFUAAAAAAAAAAARTBQAAAAAAAABAMFUAAAAAAAAAAARTBQAAAAAAAABAMFUAAAAAAAAAAARTBQAAAAAAAABAMFUAAAAAAAAAAARTBQAAAAAAAABAMFUAAAAAAAAAAARTBQAAAAAAAABAMFUAAAAAAAAAAARTBQAAAAAAAABAMFUAAAAAAAAAAARTBQAAAAAAAABAMFUAAAAAAAAAAARTBQAAAAAAAABAMFUAAAAAAAAAAARTBQAAAAAAAABAMFUAAAAAAAAAAARTBQAAAAAAAABAMFUAAAAAAAAAAARTBQAAAAAAAABAMFUAAAAAAAAAAARTBQAAAAAAAABAMFUAAAAAAAAAAARTBQAAAAAAAABAMFUAAAAAAAAAAARTBQAAAAAAAABAMFUAAAAAAAAAAARTBQAAAAAAAABAMFUAAAAAAAAAAARTBQAAAAAAAABAMFUAAAAAAAAAAARTBQAAAAAAAABAMFUAAAAAAAAAAARTBQAAAAAAAABAMFUAAAAAAAAAAARTBQAAAAAAAABAMFUAAAAAAAAAAARTBQAAAAAAAABAMFUAAAAAAAAAAARTBQAAAAAAAABAMFUAAAAAAAAAAARTBQAAAAAAAABAMFUAAAAAAAAAAARTBQAAAAAAAABAMFUAAAAAAAAAAARTBQAAAAAAAABAMFUAAAAAAAAAAARTBQAAAAAAAABAMFUAAAAAAAAAAARTBQAAAAAAAABAMFUAAAAAAAAAAARTBQAAAAAAAABAMFUAAAAAAAAAAARTBQAAAAAAAABAMFUAAAAAAAAAAARTBQAAAAAAAABAMFUAAAAAAAAAAARTBQAAAAAAAABAMFUAAAAAAAAAAARTBQAAAAAAAABAMFUAAAAAAAAAAARTBQAAAAAAAABAMFUAAAAAAAAAAARTBQAAAAAAAABAMFUAAAAAAAAAAARTBQAAAAAAAABAMFUAAAAAAAAAAARTBQAAAAAAAABAMFUAAAAAAAAAAARTBQAAAAAAAABAMFUAAAAAAAAAAARTBQAAAAAAAABAMFUAAAAAAAAAAARTBQAAAAAAAABAMFUAAAAAAAAAAARTBQAAAAAAAABAMFUAAAAAAAAAAARTBQAAAAAAAABAMFUAAAAAAAAAAARTBQAAAAAAAABAMFUAAAAAAAAAAARTBQAAAAAAAABAMFUAAAAAAAAAAARTBQAAAAAAAABAMFUAAAAAAAAAAARTBQAAAAAAAABAMFUAAAAAAAAAAARTBQAAAAAAAABAMFUAAAAAAAAAAARTBQAAAAAAAABAMFUAAAAAAAAAAARTBQAAAAAAAABAMFUAAAAAAAAAAARTBQAAAAAAAABAMFUAAAAAAAAAAARTBQAAAAAAAABAMFUAAAAAAAAAAARTBQAAAAAAAABAMFUAAAAAAAAAAARTBQAAAAAAAABAMFUAAAAAAAAAAARTBQAAAAAAAABAMFUAAAAAAAAAAARTBQAAAAAAAABAMFUAAAAAAAAAAARTBQAAAAAAAABAMFUAAAAAAAAAAARTBQAAAAAAAABAMFUAAAAAAAAAAARTBQAAAAAAAABAMFUAAAAAAAAAAARTBQAAAAAAAABAMFUAAAAAAAAAAARTBQAAAAAAAABAMFUAAAAAAAAAAARTBQAAAAAAAABAMFUAAAAAAAAAAARTBQAAAAAAAABAMFUAAAAAAAAAAARTBQAAAAAAAABAMFUAAAAAAAAAAARTBQAAAAAAAABAMFUAAAAAAAAAAARTBQAAAAAAAABAMFUAAAAAAAAAAARTBQAAAAAAAABAMFUAAAAAAAAAAARTBQAAAAAAAABAMFUAAAAAAAAAAARTBQAAAAAAAABAMFUAAAAAAAAAAARTBQAAAAAAAABAMFUAAAAAAAAAAARTBQAAAAAAAABAMFUAAAAAAAAAAARTBQAAAAAAAABAMFUAAAAAAAAAAARTBQAAAAAAAABAMFUAAAAAAAAAAARTBQAAAAAAAABAMFUAAAAAAAAAAARTBQAAAAAAAABAMFUAAAAAAAAAAARTBQAAAAAAAABAMFUAAAAAAAAAAARTBQAAAAAAAABAMFUAAAAAAAAAAARTBQAAAAAAAABAMFUAAAAAAAAAAARTBQAAAAAAAABAMFUAAAAAAAAAAARTBQAAAAAAAABAMFUAAAAAAAAAAARTBQAAAAAAAABAMFUAAAAAAAAAAARTBQAAAAAAAABAMFUAAAAAAAAAAARTBQAAAAAAAABAMFUAAAAAAAAAAARTBQAAAAAAAABAMFUAAAAAAAAAAARTBQAAAAAAAABAMFUAAAAAAAAAAARTBQAAAAAAAABAMFUAAAAAAAAAAARTBQAAAAAAAABAMFUAAAAAAAAAAARTBQAAAAAAAABAMFUAAAAAAAAAAARTBQAAAAAAAABAMFUAAAAAAAAAAARTBQAAAAAAAABAMFUAAAAAAAAAAARTBQAAAAAAAABAMFUAAAAAAAAAAARTBQAAAAAAAABAMFUAAAAAAAAAAARTBQAAAAAAAABAMFUAAAAAAAAAAARTBQAAAAAAAABAMFUAAAAAAAAAAARTBQAAAAAAAABAMFUAAAAAAAAAAARTBQAAAAAAAABAMFUAAAAAAAAAAARTBQAAAAAAAABAMFUAAAAAAAAAAARTBQAAAAAAAABAMFUAAAAAAAAAAARTBQAAAAAAAABAMFUAAAAAAAAAAARTBQAAAAAAAABAMFUAAAAAAAAAAARTBQAAAAAAAABAMFUAAAAAAAAAAARTBQAAAAAAAABAMFUAAAAAAAAAAARTBQAAAAAAAABAMFUAAAAAAAAAAARTBQAAAAAAAABAMFUAAAAAAAAAAARTBQAAAAAAAABAMFUAAAAAAAAAAARTBQAAAAAAAABAMFUAAAAAAAAAAARTBQAAAAAAAABAMFUAAAAAAAAAAARTBQAAAAAAAABAMFUAAAAAAAAAAARTBQAAAAAAAABAMFUAAAAAAAAAAARTBQAAAAAAAABAMFUAAAAAAAAAAARTBQAAAAAAAABAMFUAAAAAAAAAAARTBQAAAAAAAABAMFUAAAAAAAAAAARTBQAAAAAAAABAMFUAAAAAAAAAAARTBQAAAAAAAABAMFUAAAAAAAAAAARTBQAAAAAAAABAMFUAAAAAAAAAAARTBQAAAAAAAABAMFUAAAAAAAAAAARTBQAAAAAAAABAMFUAAAAAAAAAAARTBQAAAAAAAABAMFUAAAAAAAAAAARTBQAAAAAAAABAMFUAAAAAAAAAAARTBQAAAAAAAABAMFUAAAAAAAAAAARTBQAAAAAAAABAMFUAAAAAAAAAAARTBQAAAAAAAABAMFUAAAAAAAAAAARTBQAAAAAAAABAMFUAAAAAAAAAAARTBQAAAAAAAABAMFUAAAAAAAAAAARTBQAAAAAAAABAMFUAAAAAAAAAAARTBQAAAAAAAABAMFUAAAAAAAAAAARTBQAAAAAAAABAMFUAAAAAAAAAAARTBQAAAAAAAABAMFUAAAAAAAAAAARTBQAAAAAAAABAMFUAAAAAAAAAAARTBQAAAAAAAABAMFUAAAAAAAAAAARTBQAAAAAAAABAMFUAAAAAAAAAAARTBQAAAAAAAABAMFUAAAAAAAAAAARTBQAAAAAAAABAMFUAAAAAAAAAAARTBQAAAAAAAABAMFUAAAAAAAAAAARTBQAAAAAAAABAMFUAAAAAAAAAAARTBQAAAAAAAABAMFUAAAAAAAAAAARTBQAAAAAAAABAMFUAAAAAAAAAAARTBQAAAAAAAABAMFUAAAAAAAAAAARTBQAAAAAAAABAMFUAAAAAAAAAAARTBQAAAAAAAABAMFUAAAAAAAAAAARTBQAAAAAAAABAMFUAAAAAAMBl745u4zjSBI7zFn4nM+AAhapXKQPORmBmQGaguQjcjuDGEewoAzmDYQb0azcaK2ZARuCrOXFvbe9nS6Q0M109vx9QKANra6v6e5GAv4oAABAQVQAAAAAAAAAABEQVAAAAAAAAAAABUQUAAAAAAAAAQEBUAQAAAAAAAAAQEFUAAAAAAAAAAAREFQAAAAAAAAAAAVEFAAAAAAAAAEBAVAEAAAAAAAAAEBBVAAAAAAAAAAAERBUAAAAAAAAAAAFRBQAAAAAAAABAQFQBAAAAAAAAABAQVQAAAAAAAAAABEQVAAAAAAAAAAABUQUAAAAAAAAAQEBUAQAAAAAAAAAQEFUAAAAAAAAAAAREFQAAAAAAAAAAAVEFAAAAAAAAAEBAVAEAAAAAAAAAEBBVAAAAAAAAAAAERBUAAAAAAAAAAAFRBQAAAAAAAABAQFQBAAAAAAAAABAQVQAAAAAAAAAABEQVAAAAAAAAAAABUQUAAAAAAAAAQEBUAQAAAAAAAAAQEFUAAAAAAAAAAAREFQAAAAAAAAAAAVEFAAAAAAAAAEBAVAEAAAAAAAAAEBBVAAAAAAAAAAAERBUAAAAAAAAAAAFRBQAAAAAAAABAQFQBAAAAAAAAABAQVQAAAAAAAAAABEQVAAAAAAAAAAABUQUAAAAAAAAAQEBUAQAAAAAAAAAQEFUAAAAAAAAAAAREFQAAAAAAAAAAAVEFAAAAAAAAAEBAVAEAAAAAAAAAEBBVAAAAAAAAAAAERBUAAAAAAAAAAAFRBQAAAAAAAABAQFQBAAAAAAAAABAQVQAAAAAAAAAABEQVAAAAAAAAAAABUQUAAAAAAAAAQEBUAQAAAAAAAAAQEFUAAAAAAAAAAAREFQAAAAAAAAAAAVEFAAAAAAAAAEBAVAEAAAAAAAAAEBBVAAAAAAAAAAAERBUAAAAAAAAAAAFRBQAAAAAAAABAQFQBAAAAAAAAABAQVQAAAAAAAAAABEQVAAAAAAAAAAABUQUAAAAAAAAAQEBUAQAAAAAAAAAQEFUAAAAAAAAAAAREFQAAAAAAAAAAAVEFAAAAAAAAAEBAVAEAAAAAAAAAEBBVAAAAAAAAAAAERBUAAAAAAAAAAAFRBQAAAAAAAABAQFQBAAAAAAAAABAQVQAAAAAAAAAABEQVAAAAAAAAAAABUQUAAAAAAAAAQEBUAQAAAAAAAAAQEFUAAAAAAAAAAAREFQAAAAAAAAAAAVEFAAAAAAAAAEBAVAEAAAAAAAAAEBBVAAAAAAAAAAAERBUAAAAAAAAAAAFRBQAAAAAAAABAQFQBAAAAAAAAABAQVQAAAAAAAAAABEQVAAAAAAAAAAABUQUAAAAAAAAAQEBUAQAAAAAAAAAQEFUAAAAAAAAAAAREFQAAAAAAAAAAAVEFAAAAAAAAAEBAVAEAAAAAAAAAEBBVAAAAAAAAAAAERBUAAAAAAAAAAAFRBQAAAAAAAABAQFQBAAAAAAAAABAQVQAAAAAAAAAABEQVAAAAAAAAAAABUQUAAAAAAAAAQEBUAQAAAAAAAAAQEFUAAAAAAAAAAAREFQAAAAAAAAAAAVEFAAAAAAAAAEBAVAEAAAAAAAAAEBBVAAAAAAAAAAAERBUAAAAAAAAAAAFRBQAAAAAAAABAQFQBAAAAAAAAABAQVQAAAAAAAAAABEQVAAAAAAAAAAABUQUAAAAAAAAAQEBUAQAAAAAAAAAQEFUAAAAAAAAAAAREFQAAAAAAAAAAAVEFAAAAAAAAAEBAVAEAAAAAAAAAEBBVAAAAAAAAAAAERBUAAAAAAAAAAAFRBQAAAAAAAABAQFQBAAAAAAAAABAQVQAAAAAAAAAABEQVAAAAAAAAAAABUQUAAAAAAAAAQEBUAQAAAAAAAAAQEFUAAAAAAAAAAAREFQAAAAAAAAAAAVEFAAAAAAAAAEBAVAEAAAAAAAAAEBBVAAAAAAAAAAAERBUAAAAAAAAAAAFRBQAAAAAAAABAQFQBAAAAAAAAABAQVQAAAAAAAAAABEQVAAAAAAAAAAABUQUAAAAAAAAAQEBUAQAAAAAAAAAQEFUAAAAAAAAAAAREFQAAAAAAAAAAAVEFAAAAAAAAAEBAVAEAAAAAAAAAEBBVAAAAAAAAAAAERBUAAAAAAAAAAAFRBQAAAAAAAABAQFQBAAAAAAAAABAQVQAAAAAAAAAABEQVAAAAAAAAAAABUQUAAAAAAAAAQEBUAQAAAAAAAAAQEFUAAAAAAAAAAAREFQAAAAAAAAAAAVEFAAAAAAAAAEBAVAEAAAAAAAAAEBBVAAAAAAAAAAAERBUAAAAAAAAAAAFRBQAAAAAAAABAQFQBAAAAAAAAABAQVQAAAAAAAAAABEQVAAAAAAAAAAABUQUAAAAAAAAAQOA7nwCAOSs5Leu2eF4AAAAAwLfzWNf9bvXD+OhzADBH//Xrr7/6CgDMRslpUbfr53XliwAAAADAQTzU9aGuTT+M9z4HAHMhqgBgFp5fpLit68bXAAAAAICj+qWudT+MG58CgNaJKgBoWsnpYvcHtDMxBQAAAABMzS6uWPXDuPUpAGiVqAKAZpWcdj/iY1PXua8BAAAAAJP1Uz+MK58BgBaJKgBoUsmpq9sPvgQAAAAANGH3asWyH8ZHnwKAlogqAGhOyWlz5sd9AAAAAEBrhBUANOdvPgEALSk5rc8EFQAAAADQojd1bUtOFz4FAK0QVQDQjPqHrdu6vfMlAAAAAKBZu7Bi4zMA0Ao//gOAJpScFnW7r+vc1wAAAACA5v13P4xrnwGAqfNSBQCt2JwJKgAAAABgLrrnv0gFAJMmqgBg8uofrpZ1u/IlAAAAAGA2dn+BqvMZAJg6UQUALfCHKwAAAACYnxuvVQAwdaIKACat/qHq7ZlXKgAAAABgrlY+AQBTJqoAwB+qAAAAAIBjufYJAJgyUQUAU7f0CQAAAABgti6fX6sFgEkSVQAwWc9/mLr0JQAAAABg1rxWAcBkiSoAmDKFOgAAAADM39InAGCqRBUATNnCJwAAAACA2Vv4BABMlagCgCnzUgUAAAAAzJ8fAQzAZIkqAJiyC58AAAAAAACAYxFVAAAAAAAAAAAERBUAAAAAAAAAAAFRBQAAAAAAAABAQFQBAAAAAAAAABAQVQAAAAAAAAAABEQVAAAAAAAAAAABUQUAAAAAAAAAQEBUAQAAAAAAAAAQEFUAAAAAAAAAAAREFQAAAAAAAAAAAVEFAAAAAAAAAEBAVAEAAAAAAAAAEBBVAAAAAAAAAAAERBUAAAAAAAAAAAFRBQAAAAAAAABAQFQBAAAAAAAAABAQVQAAAAAAAAAABEQVAAAAAAAAAAABUQUAAAAAAAAAQEBUAQAAAAAAAAAQEFUAAAAAAAAAAAS+8wkA4Kv93ScAAAAAYKLWdb3xGQDgdUQVAPCV+mHc+goAAAAATFHJ6dFXAIDX8+M/AAAAAAAAAAACogoAAAAAAAAAgICoAgAAAAAAAAAgIKoAAAAAAAAAAAiIKgAAAAAAAAAAAqIKAAAAAAAAAICAqAIAAAAAAAAAICCqAAAAAAAAAAAIiCoAAAAAAAAAAAKiCgAAAAAAAACAgKgCAAAAAAAAACAgqgAAAAAAAAAACIgqAAAAAAAAAAACogoAAAAAAAAAgICoAgAAAAAAAAAgIKoAAAAAAAAAAAiIKgAAAAAAAAAAAqIKAAAAAAAAAICAqAIAAAAAAAAAICCqAAAAAAAAAAAIiCoAAAAAAAAAAAKiCgAAAAAAAACAgKgCAAAAAAAAACAgqgAAAAAAAAAACIgqAAAAAAAAAAACogoAAAAAAAAAgICoAgAAAAAAAAAgIKoAAAAAAAAAAAiIKgAAAAAAAAAAAqIKAAAAAAAAAICAqAIAAAAAAAAAICCqAAAAAAAAAAAIiCoAAAAAAAAAAAKiCgAAAAAAAACAgKgCAAAAAAAAACAgqgAAAAAAAAAACIgqAAAAAAAAAAACogoAAAAAAAAAgICoAgAAAAAAAAAgIKoAAAAAAAAAAAiIKgAAAAAAAAAAAqIKAAAAAAAAAICAqAIAAAAAAAAAICCqAAAAAAAAAAAIiCoAAAAAAAAAAAKiCgAAAAAAAACAgKgCAAAAAAAAACAgqgAAAAAAAAAACIgqAAAAAAAAAAACogoAAAAAAAAAgICoAgAAAAAAAAAgIKoAAAAAAAAAAAiIKgAAAAAAAAAAAqIKAAAAAAAAAICAqAIAAAAAAAAAICCqAAAAAAAAAAAIiCoAAAAAAAAAAAKiCgAAAAAAAACAgKgCAAAAAAAAACAgqgAAAAAAAAAACIgqAAAAAAAAAAACogoAAAAAAAAAgICoAgAAAAAAAAAgIKoAAAAAAAAAAAiIKgAAAAAAAAAAAqIKAAAAAAAAAICAqAIAAAAAAAAAICCqAAAAAAAAAAAIiCoAAAAAAAAAAAKiCgAAAAAAAACAgKgCAAAAAAAAACAgqgAAAAAAAAAACIgqAAAAAAAAAAACogoAAAAAAAAAgICoAgAAAAAAAAAgIKoAAAAAAAAAAAiIKgAAAAAAAAAAAqIKAAAAAAAAAICAqAIAAAAAAAAAICCqAAAAAAAAAAAIiCoAAAAAAAAAAAKiCgAAAAAAAACAgKgCAAAAAAAAACAgqgAAAAAAAAAACIgqAAAAAAAAAAACogoAAAAAAAAAgICoAgAAAAAAAAAgIKoAAAAAAAAAAAiIKgAAAAAAAAAAAqIKAAAAAAAAAICAqAIAAAAAAAAAICCqAAAAAAAAAAAIiCoAAAAAAAAAAAKiCgAAAAAAAACAgKgCAAAAAAAAACAgqgAAAAAAAAAACIgqAAAAAAAAAAACogoAAAAAAAAAgICoAgAAAAAAAAAgIKoAAAAAAAAAAAiIKgAAAAAAAAAAAqIKAAAAAAAAAICAqAIAAAAAAAAAICCqAAAAAAAAAAAIiCoAAAAAAAAAAAKiCgAAAAAAAACAgKgCAAAAAAAAACAgqgAAAAAAAAAACIgqAAAAAAAAAAACogoAAAAAAAAAgICoAgAAAAAAAAAgIKoAAAAAAAAAAAiIKgAAAAAAAAAAAt/5BAAAAAAA01RyWtRtWdduf1vXxR/+lW1dj7u9H8Z7XwwAAL4tUQUAAAAAwIQ8hxSruq7ruvzMv371m//uqW4f6tr0w7j1JQEA4OuJKgAAAAAAJuA5pujqunnlL3H+/N/e1F/rYfdr9cO48WUBAOD1/uYTAAAAAAAcT8npoq51/cd/nr0+qPij3QsX/6i/7raut74yAAC8jqgCAAAAAOBInoOH+7re7en/YvfjQXZhxa2vDQAALyeqAAAAAAA4gufQYXv26VWJfdr9WJDdqxUbXx0AAF5GVAEAAAAAcGDPQcU/zj4FD4dyI6wAAICXEVUAAAAAABxQyWl59imoOIZdWLE2BQAA+DKiCgAAAACAAyk5Ler24cjHeFfPcW0aAADweaIKAAAAAIDD2Zwd9kd+/Ok5ngMPAADgL4gqAAAAAAAOoOR0W7eriRxnF3b4MSAAAPAZogoAAAAAgMPoJnae70tOS2MBAIA/J6oAAAAAANiz51cqLid4NK9VAADAXxBVAAAAAADs32qi53pTcloZDwAAxEQVAAAAAAB7VHJ6W7c3Ez5iV894YVIAAPCfRBUAAAAAAPu1nPj5zuvqjAkAAP6TqAIAAAAAYL+uGzjju5LTwqgAAOD3RBUAAAAAAPv1tpFzbowKAAB+T1QBAAAAALBf542c86rktDQuAAD4N1EFAAAAAMCeNBgpbEwNAAD+TVQBAAAAAMC/XJacOp8BAAA+EVUAAAAAAPBbq5LThc8AAACiCgAAAAAAfu+8rrXPAAAAogoAAAAAgH26b/TcNyWnt8YHAMCpE1UAAAAAAOxJP4yPDR/faxUAAJw8UQUAAAAAwH7dNXruq5LTtfEBAHDKRBUAAAAAAPt13/DZ1yWnCyMEAOBUiSoAAAAAAPbrQ8Nnv6xrZYQAAJwqUQUAAAAAwB71w7it20PDV1iVnBYmCQDAKRJVAAAAAADs36bhs5/X1RkhAACnSFQBAAAAALB/67qeGj7/TclpaYwAAJwaUQUAAAAAwJ71w/h49imsaFlnkgAAnBpRBQAAAADAYeyiioeGz39Vcro1RgAATomoAgAAAADgAJ5fq+gav0ZXcrowTQAAToWoAgAAAADgQPph3NTtruErXNa1MkkAAE6FqAIAAAAA4LC6xs//Q8lpYYwAAJwCUQUAAAAAwAH1w7it2/vGr7E2SQAAToGoAgAAAADg8HY/QuOp4fN/X3JaGiMAAHMnqgAAAAAAOLB+GB/P2n/twWsVAADMnqgCAAAAAOAI+mHs6vbQ8BXelJxuTRIAgDkTVQAAAAAAHM+q8fOvS04XxggAwFyJKgAAAAAAjqQfxg91u2v4Cud1dSYJAMBciSoAAAAAAI6r9dcq3pWcFsYIAMAciSoAAAAAAI6oH8b7uv3U+DU2JgkAwByJKgAAAAAAjq+r66nh81+VnJbGCADA3IgqAAAAAACOrB/Gx7NPYUXLNiYJAMDciCoAAAAAACagH8Z13R4avsJlyWllkgAAzImoAgAAAABgOm4bP39XcrowRgAA5kJUAQAAAAAwEf0wbut21/AVzutamyQAAHMhqgAAAAAAmJbbxs9/U3J6a4wAAMyBqAIAAAAAYEL6YfxYtx8bv4bXKgAAmAVRBQAAAADA9OyihKeGz39Vcro2RgAAWieqAAAAAACYmH4YH+u2avwaXqsAAKB5ogoAAAAAgAnqh3FTt18avsJlyakzSQAAWiaqAAAAAACYrtZfq1iVnBbGCABAq0QVAAAAAAAT1Q/jtm4/N3yF87o6kwQAoFWiCgAAAACAadu9VvHU8PlvSk5LYwQAoEWiCgAAAACACeuH8WPd1o1fozNJAABaJKoAAAAAAJi+XVTx0PD5r0pOt8YIAEBrRBUAAAAAABPXD+PjWfuvPXQlpwvTBACgJaIKAAAAAIAG9MO4qdtdw1e4rGtlkgAAtERUAQAAAADQjq7x8/9QcloYIwAArRBVAAAAAAA0oh/Gbd3eN36NtUkCANAKUQUAAAAAQFt2P0LjqeHzf19yWhojAAAtEFUAAAAAADSkH8bHs/Zfe/BaBQAATRBVAAAAAAA0ph/Grm4PDV/hTcnp1iQBAJg6UQUAAAAAQJtWjZ9/XXK6MEYAAKZMVAEAAAAA0KB+GD/U7a7hK5zX1ZkkAABTJqoAAAAAAGhX669VvCs5LYwRAICpElUAAAAAADSqH8b7uv3U+DU2JgkAwFSJKgAAAAAA2tbV9dTw+a9KTktjBABgikQVAAAAAAAN64fx8exTWNGyjUkCADBFogoAAAAAgMb1w7iu20PDV7gsOa1MEgCAqRFVAAAAAADMw23j5+9KThfGCADAlIgqAAAAAABmoB/Gbd3uGr7CeV1rkwQAYEpEFQAAAAAA83Hb+PlvSk5vjREAgKkQVQAAAAAAzEQ/jB/r9mPj1/BaBQAAkyGqAAAAAACYl12U8NTw+a9KTtfGCADAFIgqAAAAAABmpB/Gx7qtGr+G1yoAAJgEUQUAAAAAwMz0w7ip2y8NX+Gy5NSZJAAAxyaqAAAAAACYp9Zfq1iVnBbGCADAMYkqAAAAAABmqB/Gbd1+bvgK53V1JgkAwDGJKgAAAAAA5qv11ypuSk5LYwQA4FhEFQAAAAAAM9UP48e6/dj4NTqTBADgWEQVAAAAAADztq7roeHzX5Wcbo0RAIBjEFUAAAAAAMxYP4yPZ+2/9tCVnC5MEwCAQxNVAAAAAADMXD+Mm7rdNXyFy7pWJgkAwKGJKgAAAAAATkPX+Pl/KDktjBEAgEMSVQAAAAAAnIB+GLd1e9/4NdYmCQDAIYkqAAAAAABOR1fXU8Pn/77ktDRGAAAORVQBAAAAAHAi+mH8eNb+aw9eqwAA4GBEFQAAAAAAJ6Qfxq5uDw1f4U3J6dYkAQA4BFEFAAAAAMDpWTV+/nXJ6cIYAQDYN1EFAAAAAMCJ6YfxQ93uGr7CeV2dSQIAsG+iCgAAAACA09T6axXvSk4LYwQAYJ9EFQAAAAAAJ6gfxvu6vW/8GhuTBABgn0QVAAAAAACna/daxVPD578qOS2NEQCAfRFVAAAAAACcqH4YH+vWNX6NjUkCALAvogoAAAAAgBPWD+O6bg8NX+Gy5LQySQAA9kFUAQAAAADAbePn70pOF8YIAMC3JqoAAAAAADhx/TBu63bX8BXO61qbJAAA35qoAgAAAACAndvGz39TcnprjAAAfEuiCgAAAAAAdq9VfKzbT41fw2sVAAB8U6IKAAAAAAD+pavrqeHzX5Wcro0RAIBvRVQBAAAAAMD/6YfxsW6rxq/htQoAAL4ZUQUAAAAAAP+vH8ZN3X5p+AqXJafOJAEA+BZEFQAAAAAA/FHrr1WsSk4LYwQA4GuJKgAAAAAA+J1+GLd1+7nhK5zX1ZkkAABfS1QBAAAAAECk9dcqbkpOS2MEAOBriCoAAAAAAPgP/TB+rNuPjV+jM0kAAL6GqAIAAAAAgD+zruuh4fNflZxujREAgNcSVQAAAAAAEOqH8fGs/dceupLThWkCAPAaogoAAAAAAP5UP4ybut01fIXLulYmCQDAa4gqAAAAAAD4nK7x8/9QcloYIwAALyWqAAAAAADgL/XDuK3b+8avsTZJAABeSlQBAAAAAMCX6Op6avj835eclsYIAMBLiCoAAAAAAPisfhg/nrX/2oPXKgAAeBFRBQAAAAAAX6Qfxq5uDw1f4U3J6dYkAQD4UqIKAAAAAABeYtX4+dclpwtjBADgS4gqAAAAAAD4Yv0wfqjbXcNXOK+rM0kAAL6EqAIAAAAAgJdq/bWKdyWnhTECAPA5ogoAAAAAAF6kH8b7ur1v/BobkwQA4HNEFQAAAAAAvMbutYqnhs9/VXJaGiMAAH9FVAEAAAAAwIv1w/hYt67xa2xMEgCAvyKqAAAAAADgVfphXNftoeErXJacViYJAMCfEVUAAAAAAPA1bhs/f1dyujBGAAAiogoAAAAAAF6tH8Zt3e4avsJ5XWuTBAAgIqoAAAAAAOBr3TZ+/puS01tjBADgj77zCQAA4PhKTou6LaL/7flv/gEAwGTV37N+rL+n/an+47uGr7F7rWJpmgAA/JaoAgAAjuA5orh+Xlef+Xd32y91bXerH8YPviAAABPUnX16seK80fNf1d97X/v9NgAAv+XHfwAAwAGVnJZ1bes//rOu//lf9u7otm0rCgMwN7A3kAGCfHU3kDdwNog2sDYwO0GVCSpPUGeCWhM0eSVBwNrA3qCX9U2bpk3qOErFQ34fQJwnw/fwvFAXPy+L/whUfOS8eHrr75f098NbgE26Tt1RAADGou36h1TWwdvYmCQAAB8TqgAAgP/B8H3mHKb4tXh+kOJzFum6TtcQrli7uwAAjEXb9dvi6ZS1qBZDgNkkAQD4QKgCAAC+s7wp+1vx7WGKTw3HKv80hDXy50QAAGAMogd/156vAQD4QKgCAAC+k+HzHPl0iuvv/K+GsMa74TQMdx0AgGNru354Bn4buIUhvNyYJAAAA6EKAAD4DoZARSp3xeFPp/icYeP3t/R/V+4+AAAjEP20itfp2frCGAEAEKoAAIAD+yhQcX6Ef/+zzV8AAI6t7fr7VH4M3kZjkgAACFUAAMDhbYvjBCo+uPUpEAAARmCTrn3g9S+dBAcAgFAFAAAcUF2VwzHHl0dexvApkK1pAABwTG3XPxTxT3to8kl0AADMlFAFAAAcSF2VZ8V4No3P03oaUwEA4Jjart+msgvcwiJda5MEAJgvoQoAADic4XjjkxGtZ52DHgAAcExN8PVfe64GAJgvoQoAADiAuioviuN/9uNTQ8CjMR0AAI6p7fq7VG6Ct7ExSQCAeRKqAACAwxjrJusr34AGAGAEmnQ9Bl7/ZQ5SAwAwM0IVAADwjeqqXKVyPtLlDadVvDIlAACOqe36+yL+aQ9OqwAAmCGhCgAA+Ab5FIixb64KVQAAcHRt1zep7AO3cJ4D1QAAzIhQBQAAfJumeDoNYswujQkAgJFYB1//xuf1AADmRagCAABeqK7Ks1Sugqz1wsQAADi2tutvU9kFbmEIVDcmCQAwH0IVAADwcttAaz0zLgAARiL6aRVXOWANAMAMCFUAAMAL5JMfloGWfGZqAACMQdv171K5Cd7G1iQBAOZBqAIAAF5m6xYAAMCLDadVPAZe/9In9gAA5kGoAgAAvlJdlcMG8MKdAACAl2m7/iGVJngbW5MEAJg+oQoAAPgKdVWeFvE3fwEA4Ojart+ksg/cwiIHrgEAmDChCgAA+DpNuk7cBgAAOIhV9N8HOXgNAMBECVUAAMAz1VX5QypXQZd/b4IAAIxN2/V3qewCtzAErhuTBACYLqEKAAB4vk3gtd8bHwAAI7UKvv6rHMAGAGCChCoAAOAZ6qp8lcoy6vrzG4AAADDGZ9X7VN4Eb2NjkgAA0yRUAQAAzxN5k/St8QEAMHJNuh4Dr3+Zg9gAAEyMUAUAAPyHuiqbVBaBW7g1RQAAxqzt+odU1sHbcFoFAMAECVUAAMAX1FV5WsTe3B3e9hOqAABg9Nqu36byPnALixzIBgBgQoQqAADgy4a3zU4Cr/82v/UHAAARRD+tYp2D2QAATIRQBQAAfEZdlRepvA7cwnBKRWOSAABE0Xb9XSpvA7cwBLJ9BgQAYEKEKgAA4POa4OvftF1/b4wAAAQT/bSK1zmgDQDABAhVAADAv6ircpXKMnAL+8IbcgAABJSDwT8Gb6MxSQCAaRCqAACAT+RvIDfB22jarn8wTQAAghoCwvvA61/moDYAAMEJVQAAwD8Nxw0vAq9/13b91hgBAIgqB4Sb4G00ObANAEBgQhUAAPCRuirPivjfcG5MEgCA6HJQeBe4hcUEflsAAMyeUAUAAPzdcMzwSeD137Rdf2eMAABMRBN8/esc3AYAICihCgAAyOqqvEjlMnALj4VTKgAAmJAcGL4J3MIQ2N6YJABAXEIVAADwl+ibnZu26++NEQCAiWmKpwBxVJc5wA0AQEBCFQAAUPxxSsUqlfPALezbrm9MEgCAqcnB4fABaJMEAIhJqAIAgNmrq/K0iL/JuTZJAACmKgeI94FbOM9BbgAAghGqAACAp0DCSeD179quvzVGAABm8Nwe2SYHugEACESoAgCAWaur8iyV6+BtOKUCAIDJy0HiXeAWTjy7AwDEI1QBAMDcRf/sx03b9e+MEQCAmYgeSrjOwW4AAIIQqgAAYLbqqrxI5TJwC4+FN90AAJiRHCi+Cd7G1iQBAOIQqgAAYM62wdfftF3/YIwAAMzMECx+DLz+ZQ54AwAQgFAFAACzVFflsBG7CNzCvu36jUkCADA3OVjcBG9ja5IAADEIVQAAMDt1VZ4W8TdhVyYJAMBc5YDxPnALixz0BgBg5IQqAACYoyZdJ4HXv2u7/s4YAQCYuVX03yU58A0AwIgJVQAAMCt1VZ6lchW8jZVJAgAwdzlovAvcwhD0bkwSAGDchCoAAJibbfD1v2m7/t4YAQDgD6vg67+qq/IHYwQAGC+hCgAAZqOuylepLAO38Fh4kw0AAP6UA8dvgrexMUkAgPESqgAAYE6ib1Y2bdc/GCMAAPz9Obl4CiBHtcwBcAAARkioAgCAWairskllEbiF923Xe4MNAAA+kYPH6+BteNYHABgpoQoAACavrsrTIv4m69okAQDg37Vdv03lfeAWFjkIDgDAyAhVAAAwB8NbXyeB1/+27fo7YwQAgC8KH6TOgXAAAEbkdwHYu3/fOLYsP+C1g5fYMEAGzkmjUBVacmbABtjzF4hrZ5uoH7Cx1QM7VwmG4bQVOPLCbiaOycSZMc3AgLOV0ioUQOYOyGgTA+Nby9asnh6fxF/dXefW5wMU7lvs7uiee/gGrNa37/nJEQAAkLO6Kl+n5W3wMtxSwXP+HThOy7GTAAAm4n+n518F3fsQBB8C4XNtBAAYD6EKAAByF3028Ye266+0kYfYfLPxND2zzXPkVAAAQnmbfqdbuakOAGA8hCoAAMhWXZXDXy6fBC7htogfCmE3P+uz4u5GkzdOAwAgvKa4C8gCADACv3MEAADkaPON/eiBhEXb9Te6yXd+zl+nZ53+8Y+FQAUAQC5O0u94c8cAADAOQhUAAORq+NZ+5NEHl23Xr7SR31JXZZOWvy1i38YCAMD9mk1QHACAPTP+AwCA7NRVeVzchSoia3SS3/j5Hj5cPy+EKQAAcna0eafxXgAAsGduqgAAIEdNeg4C7/+s7fq1NvKtTaBi+NkQqAAAyN9iExgHAGCPhCoAAMhKXZWztLwNXMJt4dto3P+z/SVQ8cppAABMwhAUXzoGAID9EqoAACA3TfD9L9uuv9JG7rEuBCoAAKbmzSY4DgDAnghVAACQjboq50XssQjXhW+icf/P9vBzIVABADBN3hEAAPZIqAIAgCxsRiNE/7Cxabv+Rjf55md7lpZ3TgIAYLJebQLkAADsgVAFAAC5WBR3M4ejumy7fqWN3MPPBQAAy02QHACAHROqAAAgvLoqj9PyPngZC53knp/teVqOnAQAwOQdeGcAANgPoQoAAHIQfezHWdv1n7SRe/jgHAAAvxsCAOyRUAUAAKHVVTlLy5vAJdwWPhzl/p/t12l55SQAANg4SL8jnjoGAIDdEqoAACC66LdULNuuv9FG7jF3BAAAfEOoAgBgx4QqAAAIq67K4YaHyN/kv267vtFJfsPMEQAA8A2hCgCAHROqAAAgpLoqD9PSBC/D2A++x+gPAAC+dbAZEwcAwI4IVQAAEFWTnoPA+79su/5cG7lPXZUzpwAAwG84dgQAALsjVAEAQDh1VR6n5V3wMuY6CQAAPIGbKgAAdkioAgCAiFbB9/+x7forbeQ7Zo4AAAAAAPZPqAIAgFA2YxFOApdwW9yNLgEAAAAAYOSEKgAAiGYVfP9N2/U32ggAAAAAMH5CFQAAhFFX5SItR4FLuG67fqmTPMAnRwAAAAAA+ydUAQBACHVVHhbxx2bMdZIHcpsJAAC/5coRAADsjlAFAABRDDc8HATe/0Xb9Wtt5IGuHAEAAH5XBADYP6EKAABGr67K12l5G7yMhU7yUG3XX6Xl2kkAAHDP74prpwAAsDtCFQAARLAMvv8Pm78kh8dYOwIAAL5x6QgAAHZLqAIAgFGrq/I0LSeBS7gt4odC2I9zRwAAgN8RAQD2S6gCAICxix5IWLRdf6ONPFb6uRk+ML91EgAAfEWoAgBgx4QqAAAYrboqm7QcBS7hc9v1K53kGdxyAgDAF2fGCgIA7J5QBQAAo1RX5XFaFsHLWOgkzzSEKtxWAQDAoHEEAAC7J1QBAMBYNek5CLz/i7br19rIc2xGx7itAgCAj26pAADYD6EKAABGp67KWVreBi5huFnALRW8iLbrm7R8dhIAAJN1XbilAgBgb4QqAAAYoyb4/pe+RcYLOy2MAQEAmKrF5gYzAAD2QKgCAIBRqatynpaTwCUM3yIzroEXtQnpnDoJAIDJGcYKnjsGAID9EaoAAGA06qo8LOLfUtH4FhnbkH6u1mn52UkAAEzGcFPZ3DEAAOyXUAUAAGOySM9R4P1ftl2/0ka2ZfPz9ZeFUSAAAFMwF9gGANg/oQoAAEahrsrj4i5UEVmjk2zb5vrnWXo+Ow0AgGwZ+wEAMBJCFQAAjMUyPQeB93+2Gc8AW5d+1j6l53X6xw+FWysAAHJj7AcAwIgIVQAAsHd1Vc7S8iZwCcOHngudZNfarm/SMoQrzgrhCgCAXDTGfgAAjIdQBQAAY7CMvn8ferIv6WfvKj3z9I/H6fk5PRdOBQAgrMv0u93SMQAAjMdPjgAAgH2qq3KelleBS7je3BYAe7UJ9qw2z/Dv1nCDxXFxd5MFAEDuhpvjDoLXYOwHAMAICVUAALA3dVUeFvFvqTD2g1Fqu/5TWobn3GkAAJm/VzRF/EDFYBj7caWjAADjYvwHAAD7FP3bZMPVvP7CGgAA9mRzO9f7DEox9gMAYKSEKgAA2Iu6Ko+L+B9+uqUCAAD2a5VJHXOtBAAYJ6EKAAD2ZRV8/2eb8QoAAMAebMZ+vMqglA/GfgAAjJdQBQAAO1dX5SwtJ4FLuC3cUgEAAPt8p8hl7MfntusbHQUAGC+hCgAA9mEVfP9N2/U32ggAAHuzzKSOuVYCAIybUAUAADtVV+Vww8NR4BKu265f6iQAAOz1neIkg1I+GCkIADB+QhUAAOxMXZWHaWmClzHXSQAA2Ns7xXEG7xQDYz8AAIIQqgAAYJea9BwE3v9l2/VrbQQAgL1ZBX+n+GKhlQAAMQhVAACwE3VVvk7Lu+BlzHUSAAD29k6Ry9iPj8LaAABxCFUAALAry+D7Hz74vNJGAADYvYzGflxnUgcAwGQIVQAAsHV1VZ4Wsb9Rdlv44BMAAPZpCGnnMPZj3nb9jXYCAMQhVAEAwC5Ev6Vi4YNPAADYj01I+00GpRj7AQAQkFAFAABbVVdlk5ajwCV8brt+pZMAALCX94nDtOTw+7ixHwAAQQlVAACwNZsPQBfBy1joJAAA7M2qyGPsh9vvAACCEqoAAGCbos89vnA9LwAA7EdGYz+G94pzHQUAiEmoAgCArair8nVa3gYvwy0VAACwn/eJXMZ+3KZnrqMAAHEJVQAAsC3L4Pv/0Hb9lTYCAMBeNEUeYz/mxn4AAMQmVAEAwIurq3KelpPAJVwX8UMhAAAQ9X1ilpZ3GZRi7AcAQAaEKgAAeFGba3qb4GU0vk0GAAB7e59YZVCKsR8AAJkQqgAA4KUt0nMUeP+XbdevtBEAAPaiCf4+8ec6BLUBAPIgVAEAwIupq/K4uAtVRNboJAAA7OV9YlbkMfZjCGobJwgAkAmhCgAAXlKTnoPA+z9ru36tjQAAsBerDGow9gMAIDNCFQAAvIjNt8reBi5h+PCz0UkAANjL+8Twu3guYz+udBQAIB9CFQAAvJTo19suffgJAAC7V1fl67S8z6AUYz8AADIkVAEAwLPVVTlPy6vAJVwX8UMhAAAQ1SqTOuZaCQCQH6EKAACepa7KwyJ+IGHRdv2NbgIAwM7fJ5oidkD7iw9uvgMAyJNQBQAAz7VIz0Hg/Q9X9J5rIwAA7FZGYz8+p3eKRkcBAPIkVAEAwJPVVXlcxP8QdKGTAACwF6tM6phrJQBAvoQqAAB4juhjP87arv+kjQAAsFt1VQ7h5lzGfninAADImFAFAABPUlflLC1vApdwW7ilAgAA9vEucZyWJoNSjP0AAJgAoQoAAJ4q+i0Vy7brb7QRAAB2bpWegwzqENIGAJgAoQoAAB4tg6t6r32jDAAA9vYucZJBKR/TO8VaRwEA8idUAQDAo9RVeVjEv6p3rpMAALDzd4njIo+xH9eZ1AEAwAMIVQAA8FhNEfuq3kvfKAMAgL1YFXmM/ZgbJQgAMB1CFQAAPNjmm2Xvgpcx10kAANj5u8RpYewHAAABCVUAAPAYq+D7Hz4AvdJGAADYnc0IwVUGpRj7AQAwQUIVAAA8SF2VsyL2N8tuCx+AAgDAPqyKPMZ+LIz9AACYHqEKAAAeahV8/40PQAEAYLc2Yz/eZFDKRXqfONdRAIDpEaoAAOCH6qps0nIUuITrtuuXOgkAADt9j8hl7Mdw691cRwEApkmoAgCA79p8ELoIXsZcJwEAYOeGYHMOYz/mbr0DAJguoQoAAH4k+gehwzW9a20EAIDdqatylpa3GZRi7AcAwMQJVQAA8JvqqnxdxP8gdKGTAACw0/cIYz8AAMiGUAUAAN+zDL7/D23XX2kjAADsVJOeoxzqMPYDAAChCgAA7lVX5WlaTgKXMHyrbKmTAACw0/eIWVreZVDKZdv13icAABCqAADg1zbX9Ub/AHHhW2UAALDz94hVBqUY+wEAwJ8JVQAAcJ9FEfu63s9t16+0EQAAvEc8QWOMIAAAXwhVAADwC3VVHhd3H4ZGttBJAADY6XvE67S8z6AUYz8AAPgFoQoAAL7VpOcg8P7P2q5fayMAAOzUKpM65loJAMDXhCoAAPizuipnaXkbuIRh9nGjkwAAsNP3iOF38FcZlPLB2A8AAL4lVAEAwNea4Ptf+hAUAAB2J6OxH5/Tu0SjowAAfEuoAgCAv1dX5TwtJ4FLuE6P2ccAALBbq0zqmGslAAD3EaoAAGAIVBwW8W+paNquv9FNAADY2XvEoshn7McnHQUA4D5CFQAADIYPQ48C7/+y7fqVNgIAwG7UVXlcxA9mD4z9AADgu4QqAAAmbvNhaPQZyAudBACAnVql5yCDOrxLAADwXUIVAAAsg+//zFW9AACwO5uxHycZlPIxvUusdRQAgO8RqgAAmLC6KmdpeRO4hNvCN8sAAGCX7xDHRR5jP64zqQMAgC0TqgAAmLbot1Qs266/0UYAANiZVZHH2I+5dwkAAB5CqAIAYKLqqpyn5VXgEq7brm90EgAAdvYOcVoY+wEAwMQIVQAATFBdlYdF/FsqjP0AAIDdvkOsMijF2A8AAB5FqAIAYJqaIvaVvZdt159rIwAA7MyqyGPsx8LYDwAAHkOoAgBgYuqqPE7Lu+BluKUCAAB29w4xjP14k0EpF8LZAAA8llAFAMD0rILvf5h//EkbAQBg+zIa+3GbnrmOAgDwWEIVAAATUlflLC0ngUsYPghtdBIAAHZmWeQx9mNu7AcAAE8hVAEAMC2r4PtvfBAKAAC7sQllv82gFGM/AAB4MqEKAICJqKtykZajwCVct12/1EkAANjJ+4OxHwAAUAhVAABMwuYD0SZ4GXOdBACAnRneH45yqMNtdwAAPIdQBQDANDRF7DnIl23Xr7URAAC2bzP2410GpVy67Q4AgOcSqgAAyFxdla+L+B+IznUSAAB28v5g7AcAAHxFqAIAIH/Rv5n1oe36K20EAICdWBT5jP3wHgEAwLMJVQAAZKyuytO0nAQuYfh2met6AQBgN+8Pwy137zMoxdgPAABejFAFAEDeon+QuGi7/kYbAQBgJ1aZ1DHXSgAAXopQBQBApuqqbIrY1/Z+brt+pZMAALCz94dXGZRifCAAAC9KqAIAIEN1VR4Wd7OQI1voJAAA7OT9IZexH0Mwu9FRAABeklAFAECehrEfB4H3f9F2/VobAQBgJ1aZ1DHXSgAAXppQBQBAZuqqnKXlbfAy3FIBAAC7eX8YfvfOZezHJx0FAOClCVUAAOSnCb5/M5ABAGAH6qo8zuD9YWDsBwAAWyNUAQCQkboq52k5CVzCdXE3ugQAANi+VRF7bOAXc60EAGBbhCoAADJRV+VhEf9bZk3b9Te6CQAAW39/GMZ+nGRQykdjPwAA2CahCgCAfAwfih4F3v9l2/UrbQQAgO3KaOzHdSZ1AAAwYkIVAAAZ2HwougheRqOTAACwE6sik7EfbroDAGDbhCoAAPKwLGJ/KHrWdv1aGwEAYLvqqjwt8hn74R0CAICtE6oAAAiurspZWt4ELuG2cEsFAADs4t3hsLi7pSI6Yz8AANgZoQoAgPiW0fffdv2VNgIAwNatCmM/AADgUYQqAAACq6tynpZXgUu4bru+0UkAANj6u8Mw9uNNBqVcGPsBAMAuCVUAAAS1ubo3+i0VC50EAICdvDusMihlGB0411EAAHbpJ0cAABDWEEiIfHXvcF3voq5KwQoAILqrzbNOzydjCRihZWHsBwAAPIlQBQBAQHVVHqflffAyhm/LnegmAJCBL7/TvN/8rnaRlvO261eOhhG8O8zS8jaDUoaxH+c6CgDArhn/AQAQ09IRAACM1pv0/Pe6Km/S0zgO9sXYDwAAeD6hCgCAYDbfNHvjJAAARm8Yt/A+/f52tfkdDnatSc9RBnUsjP0AAGBfhCoAAOJZOQIAgFCGv9T+Y12VbhtjZzZBnncZlHJplA4AAPskVAEAEEhdlYsij2+aAQBM0bv0+9x6M5IBtvneYOwHAAC8EKEKAIAgNh+M/icnAQAQ2kl6BCvYtlzC2E3b9VfaCQDAPglVAADE8V/S848dAwBAeK/Sc+4Y2Ia6Kl+n5X0GpQxjP4zMAQBg74QqAAACqKvyn6flr5wEAEA2TtLveP7CmG1YZVCDsR8AAIyGUAUAQAz/yxEAAGTnXV2VM8fAS0k/T01xdxNKdEtjPwAAGAuhCgCAkaur8j+n5Z86CQCALK0cAS/03pDL2I/Pbdc3OgoAwFgIVQAAjN9/cAQAANk6qqty7hh4AatM6vDvAwAAoyJUAQAwYnVV/k1afnISAABZaxwBz3xvWBR5jP340Hb9Jx0FAGBMhCoAAMbt3zoCAIDsDbdVnDoGniL97BwXeQRzjP0AAGCUhCoAAEaqrsp/nZZDJwEAMAlzR8ATrdJz4N8BAADYDqEKAIDx+veOAABgMmaOgMfajP04yaCUj8Z+AAAwVkIVAADj9S8dAQDAZBzUVTlzDDxURmM/rjOpAwCATAlVAACM14EjAACYlNeOgEdYZfLOMG+7/kY7AQAYK6EKAIDx+keOAABgUg4dAQ9RV+Vpkc/Yj7WOAgAwZkIVAAAAADAObqrgh+qqHMI3qwxKMfYDAIAQhCoAAEaorsq/dgoAAJPjpgoeYlUY+wEAADsjVAEAME7/xBEAAABf24z9eJNBKRfGfgAAEIVQBQDACLVdv3QKAADAFxmN/bhNz1xHAQCIQqgCAAAAAMZh7Qj4jiF4bewHAADsmFAFAMB4/T9HAAAA1FU5S8vbDEoZxn6c6ygAAJEIVQAAjNf/dQQAAJOydgR8y9gPAADYL6EKAIDx+j+OAABgOtquXzsF7tGk5yiDOhbGfgAAEJFQBQDAeP1XRwAAMBkXjoBvbcZ+vMuglMu261c6CgBAREIVAAAj1Xb9/0zL3zkJAIBJOHcEfM3YDwAAGAehCgCAcfsfjgAAIHvDXzoLVfCtRZHH2I+m7for7QQAICqhCgCAcfuP6fmTYwAAyNqy7fobx8AXdVW+Tsv7DEoZxn4sdRQAgMiEKgAARqzt+uu0/DcnAQCQreGWCn/pzLdWmfxsz7USAIDohCoAAEau7fq/TsvfOQkAgCzN3VLB1+qqbNLyKoNSlsZ+AACQA6EKAIAY/p0jAADIzkXb9eeOgS8yGvvxOf1sNzoKAEAOhCoAAAJou/5v0vK3TgIAIBufC6MR+LVVJnX42QYAIBtCFQAAcfwbRwAAkIXb9MyM/eBrdVUuijzGfnxIP9ufdBQAgFwIVQAABLGZR/zBSQAAhDbcUPFaoIKv1VV5nJYmh59vYz8AAMiNUAUAQCzL4u6bjQAAxHNZ3N1QceUo+MYqPQcZ1DHXSgAAciNUAQAQyOYbjQsnAQAQyhCK/UP6Xc7ID35lM/bjJINSPhr7AQBAjoQqAACCabt+Vdx9yxEAgPE7K+7GfSwdBd/KaOzHdSZ1AADAr/zkCAAAQmrS80fHAAAwSsNfMJ+nZ2nUBz+wKjIZ++EWFgAAciVUAQAQUNv167oqh289vnUaAAB7N9wiNvyF8jD64NwIBB4i/T5/WuQz9mOtowAA5EqoAgAgriY9wwexkb/Z9nsfwAIAMDV1VR4Wd7dURGfsBwAA2fudIwAAiGlzlXT02dxmiwMAMEWrwtgPAAAIQagCACC2IZRwHXj/r+qqnGsjAABTsRn78SaDUi7cOgcAwBQIVQAABLb5VtgieBnLzfXHAACQtYzGftymZ66jAABMgVAFAEBwbdefp+UycAnDtccLnQQAYAKawtgPAAAIRagCACAP0UMJ7+uqPNZGAABytfl9910GpVxsgt0AADAJQhUAABlou/5TWs6Cl7HSSQAAMpbD7WzGfgAAMDlCFQAA+Rg+pL0NvP+Tuipn2ggAQKbmObxzGPsBAMDUCFUAAGRi8+HmMngZK50EACA3dVWepuUgeBmX6Z3D7+sAAEyOUAUAQEbarm/Sch24hKO6Khc6CQBAZmbB92/sBwAAkyVUAQCQn3nw/Td1VR5qIwAAGZlF/x297forbQQAYIqEKgAAMtN2/Totl4FLGK5FbnQSAICMvAq892Hsx1ILAQCYKqEKAIA8zYPv/11dla+1EQCA6NLvtceBt2/sBwAAkydUAQCQoc3VvB+Dl+HbcAAA5OA48u/kxn4AADB1QhUAAPlqirtvlkV1UlflqTYCAMBefG67vnEMAABMnVAFAECm2q6/Ke6CFZG5rQIAAPZj7ggAAECoAgAga23XD6GEz4FLOKqrstFJAADYqQ/pXeKTYwAAAKEKAIApWETff12Vh9oIAEBEbdevg23Z2A8AAPiKUAUAQOY2H+JeBC7hoDAGBACA2G4D7XWuXQAA8A+EKgAApiH6bRVv66qcaSMAAEGtg+zzo7EfAADwS0IVAAAT0Hb9VVo+BC+j0UkAAIJaB9jjtd+5AQDg14QqAACmYxihcRt4/yd1Vc61EQCAgM4D7HHedv2NVgEAwC8JVQAATMTmA9LoY0CauioPdRMAgGC/i1+l5XLEWxzGfqx1CgAAfk2oAgBgQtquXxXj/jD3R46K+MEQAACmaTXSfRn7AQAA3yFUAQAwPU3w/S/qqjzWRgAAItkEnK9HuDVjPwAA4DuEKgAAJmZzre9Z4BIO0rPUSQAAAhrbrWsXxn4AAMD3CVUAAExTk57bwPt/U1flTBsBAIik7frztFyMZDvD+8BcVwAA4PuEKgAAJqjt+qsi/m0PbqsAACCieTGOMSCnxn4AAMCPCVUAAEzXEEq4Drz/V3VVzrURAIBINkGG02K/N8f9bOwHAAA8jFAFAMBEbT7MXQQvY1lX5aFuAgAQ7HfxT2mZFfsJVpylP3+lCwAA8DBCFQAAE7aZ6XwZuISDIn4wBACAaf4uvo9gxR/Snzt3+gAA8HBCFQAARA8lvK+r8lgbAQCIZhOseJ2ez1v+o4bgxl+mP2/p1AEA4HGEKgAAJm7zQe5Z8DJWOgkAQNDfx6/SMwQrPhTbubXiIj3Hm1vqAACARxKqAABgMNxWcRt4/yd1Vc60EQCAqNqub4q7WyvOXuh382HM3+/Tf+5pem6cMAAAPI1QBQAAxeZD1uhXAa90EgCA4L+XD7dWzNM/Hqfn5+IuGPEYwxiRj+n5Z+k/Z5aetVMFAIDn+Ys//elPTgGAUaqrcp2Wk7Hvs+36v9AtMvr37iotR4FL+IM50QAAZPh7+qy4u8XicPMM/zwEoz9t/k+G9+chkHHltIB7/jtk+O8In7EBwBP95AgAAPjKPD1/DLz/pq7KleuNAQDIyebGibWTAACA3TP+AwCAP9t8WHsZuISD9DQ6CQAAAADASxCqAADgW/Pg+39XV+VrbQQAAAAA4LmEKgAA+IXNHOaPwctY6iQAAAAAAM8lVAEAwH2a9NwG3v9JXZWn2ggAAAAAwHMIVQAA8Ctt198Ud8GKyNxWAQAAAADAswhVAABwr7brh1DC58AlHNVV2egkAAAAAABPJVQBAMD3LKLvv67KQ20EAAAAAOAphCoAAPhNbdev03IRuISDwhgQAAAAAACeSKgCAIAfiX5bxdu6KmfaCAAAAADAYwlVAADwXW3XX6XlQ/AyGp0EAAAAAOCxhCoAAHiIYYTGbeD9n9RVOddGAAAAAAAeQ6gCAIAfarv+pog/BqSpq/JQNwEAAAAAeCihCgAAHqTt+lVaLgOXcFTED4YAAAAAALBDQhUAADxGE3z/i7oqj7URAAAAAICHEKoAAODB2q5fp+UscAkH6VnqJAAAAAAADyFUAQDAYzXpuQ28/zd1Vc60EQAAAACAHxGqAADgUdquvyri3/bgtgoAAAAAAH5IqAIAgKcYQgnXgff/qq7KuTYCAAAAAPA9QhUAADxa2/U3aVkEL2NZV+WhbgIAAAAA8FuEKgAAeJK268/Tchm4hIMifjAEAAAAAIAtEqoAAOA5oocS3tdVeayNAAAAAADcR6gCAIAna7v+U1rOgpex0kkAAAAAAO4jVAEAwHMNt1XcBt7/SV2VM20EAAAAAOBbQhUAADxL2/U3aVkGL2OlkwAAAAAAfEuoAgCAZ2u7vknLdeASjuqqXOgkAAAAAABfE6oAAOClzIPvv6mr8lAbAQAAAAD4QqgCAIAX0Xb9Oi2XgUs4SE+jkwAAAAAAfCFUAQDAS5oH3/+7uipfayMAAAAAAAOhCgAAXkzb9Vdp+Ri8jKVOAgAAAAAwEKoAAOClNem5Dbz/k7oqT7URAAAAAAChCgAAXlTb9TfFXbAiMrdVAAAAAAAgVAEAwMtru34IJXwOXMJRXZWNTgIAAAAATJtQBQAA27KIvv+6Kg+1EQAAAABguoQqAADYirbr12m5CFzCQWEMCAAAAADApAlVAACwTdFvq3hbV+VMGwEAAAAApkmoAgCArWm7/iotH4KX0egkAAAAAMA0CVUAALBtwwiN28D7P6mrcq6NAAAAAADTI1QBAMBWtV1/U8QfA9LUVXmomwAAAAAA0yJUAQDA1rVdv0rLZeASjor4wRAAAAAAAB5JqAIAgF1pgu9/UVflsTYCAAAAAEyHUAUAADvRdv06LWeBSzhIz1InAQAAAACmQ6gCAIBdatJzG3j/b+qqnGkjAAAAAMA0CFUAALAzbddfFfFve3BbBQAAAADARAhVAACwa0Mo4Trw/l/VVTnXRgAAAACA/AlVAACwU23X36RlEbyMZV2Vh7oJAAAAAJA3oQoAAHau7frztFwGLuGgiB8MAQAAAADgB4QqAADYl+ihhPd1VR5rIwAAAABAvoQqAADYi7brP6XlLHgZK50EAAAAAMiXUAUAAPs03FZxG3j/J3VVzrQRAAAAACBPQhUAAOxN2/U3aVkGL2OlkwAAAAAAeRKqAABgr9qub9JyHbiEo7oqFzoJAAAAAJAfoQoAAMZgHnz/TV2Vh9oIAAAAAJAXoQoAAPau7fp1Wi4Dl3CQnkYnAQAAAADyIlQBAMBYzIPv/11dla+1EQAAAAAgH0IVAACMQtv1V2n5GLyMpU4CAAAAAORDqAIAgDFp0nMbeP8ndVWeaiMAAAAAQB6EKgAAGI2262+Ku2BFZG6rAAAAAADIhFAFAACj0nb9EEr4HLiEo7oqG50EAAAAAIhPqAIAgDFaRN9/XZWH2ggAAAAAEJtQBQAAo9N2/TotF4FLOCiMAQEAAAAACE+oAgCAsYp+W8Xbuipn2ggAAAAAEJdQBQAAo9R2/VVaPgQvo9FJAAAAAIC4hCoAABizYYTGbeD9n9RVOddGAAAAAICYhCoAABittutvivhjQJq6Kg91EwAAAAAgHqEKAABGre36VVouA5dwVMQPhgAAAAAATJJQBQAAETTB97+oq/JYGwEAAAAAYhGqAABg9NquX6flLHAJB+lZ6iQAAAAAQCxCFQAARNGk5zbw/t/UVTnTRgAAAACAOIQqAAAIoe36qyL+bQ9uqwAAAAAACESoAgCASIZQwnXg/b+qq3KujQAAAAAAMQhVAAAQRtv1N2lZBC9jWVfloW4CAAAAAIyfUAUAAKG0XX+elsvAJRwU8YMhAAAAAACTIFQBAEBE0UMJ7+uqPNZGAAAAAIBxE6oAACCctus/peUseBkrnQQAAAAAGDehCgAAohpuq7gNvP+Tuipn2ggAAAAAMF5CFQAAhNR2/U1alsHLWOkkAAAAAMB4CVUAABBW2/VNWq4Dl3BUV+VCJwEAAAAAxkmoAgCA6ObB99/UVXmojQAAAAAA4yNUAQBAaG3Xr9NyGbiEg/Q0OgkAAAAAMD5CFQAA5GAefP/v6qp8rY0AAAAAAOMiVAEAQHht11+l5WPwMpY6CQAAAAAwLkIVAADkoknPbeD9n9RVeaqNAAAAAADjIVQBAEAW2q6/Ke6CFZG5rQIAAAAAYESEKgAAyEbb9UMo4XPgEo7qqmx0EgAAAABgHIQqAADIzSL6/uuqPNRGAAAAAID9E6oAACArbdev03IRuISDwhgQAAAAAIBREKoAACBH0W+reFtX5UwbAQAAAAD2S6gCAIDstF1/lZYPwctodBIAAAAAYL+EKgAAyNUwQuM28P5P6qqcayMAAAAAwP4IVQAAkKW262+K+GNAmroqD3UTAAAAAGA/hCoAAMhW2/WrtFwGLuGoiB8MAQAAAAAIS6gCAIDcNcH3v6ir8lgbAQAAAAB2T6gCAICstV2/TstZ4BIO0rPUSQAAAACA3ROqAABgCpr03Abe/5u6KmfaCAAAAACwW0IVAABkr+36qyL+bQ9uqwAAAAAA2DGhCgAApmIIJVwH3v+ruirn2ggAAAAAsDtCFQAATELb9TdpWQQvY1lX5aFuAgAAAADshlAFAACT0Xb9eVouA5dwUMQPhgAAAAAAhCFUAQDA1EQPJbyvq/JYGwEAAAAAtk+oAgCASWm7/lNazoKXsdJJAAAAAIDtE6oAAGCKhtsqbgPv/6Suypk2AgAAAABsl1AFAACT03b9TVqWwctY6SQAAAAAwHYJVQAAMElt1zdpuQ5cwlFdlQudBAAAAADYHqEKAACmbB58/01dlYfaCAAAAACwHUIVAABMVtv167RcBi7hID2NTgIAAAAAbIdQBQAAUzcPvv93dVW+1kYAAAAAgJcnVAEAwKS1XX+Vlo/By1jqJAAAAADAyxOqAACAuxEat4H3f1JX5ak2AgAAAAC8LKEKAAAmr+36m+IuWBGZ2yoAAAAAAF6YUAUAABR/H6wYQgmfA5dwVFdlo5MAAAAAAC9HqAIAAP7BIvr+66o81EYAAAAAgJchVAEAABtt16/TchG4hIPCGBAAAAAAgBcjVAEAAL8U/baKt3VVzrQRAAAAAOD5hCoAAOArbddfpeVD8DIanQQAAAAAeD6hCgAA+LVhhMZt4P2f1FU510YAAAAAgOcRqgAAgG+0XX9TxB8D0tRVeaibAAAAAABPJ1QBAAD3aLt+lZbLwCUcFfGDIQAAAAAAeyVUAQAAv60Jvv9FXZXH2ggAAAAA8DRCFQAA8Bvarl+n5SxwCQdF/GAIAAAAAMDeCFUAAMD3Nem5Dbz/07oqD7URAAAAAODxhCoAAOA72q6/SssycAnDbRWnOgkAAAAA8HhCFQAA8GNDqOI68P6FKgAAAAAAnkCoAgAAfqDt+pu0LAKX8EYXAQAAAAAeT6gCAAAeoO3687RcRt1/XZUzXQQAAAAAeByhCgAAeLjIt1Ucax8AAAAAwOMIVQAAwAO1Xf8pLWdBt3+sgwAAAAAAjyNUAQAAjzPcVnHrGAAAAAAA8idUAQAAj9B2/U1alk4CAAAAACB/QhUAAPBIbdc3abl2EgAAAAAAeROqAACAp5k7AgAAAACAvAlVAADAE7Rdv07LZaAtX+kaAAAAAMDjCFUAAMDTzQPt9Uq7AAAAAAAeR6gCAACeqO36q7R8DLLXtY4BAAAAADyOUAUAADxPk57bke/xQpsAAAAAAB5PqAIAAJ6h7fqb4i5YMWbnOgUAAAAA8HhCFQAA8Ext1y/T8nmk2xtu0RCqAAAAAAB4AqEKAAB4GYuR7ut8c5sGAAAAAACPJFQBAAAvoO36dVouRri1RncAAAAAAJ5GqAIAAF7OcFvF7Yj286Ht+ittAQAAAAB4GqEKAAB4IZsAQzOS7XxO+2l0BQAAAADg6YQqAADgBbVdvyz2PwZkuC1jrhsAAAAAAM8jVAEAAC9vnp7P+/zz267/pA0AAAAAAM8jVAEAAC+s7fqbtMyK/QQrfk5//rkuAAAAAAA8n1AFAABswVfBissd/ZHDyI/fpz935fQBAAAAAF6GUAUAAGzJEKxIzyz944ct/1FDcON1+rPWTh0AAAAA4OUIVQAAwJa1Xd+k5V8UL39rxXA7xR+G4EZ6rpw0AAAAAMDLEqoAAIAdaLv+0+bWit8Xzw9XXBd3t18cp//MpdMFAAAAANiOnxwBAADszmZEx6yuyuO0nm6ekwf8vw5BiuH/9zz9Z5w7SQAAAACA7ROqAACAPdiM61hunqKuytdpOdz8r2fpudo8X4IYAAAAAADsmFAFAACMwDAe5Kv/ce1EAAAAAAD273eOAAAAAAAAAADg14QqAAAAAAAAAADuIVQBAAAAAAAAAHAPoQoAAAAAAAAAgHsIVQAAAAAAAAAA3EOoAgAAAAAAAADgHkIVAAAAAAAAAAD3EKoAAAAAAAAAALiHUAUAAAAAAAAAwD2EKgAAAAAAAAAA7iFUAQAAAAAAAABwD6EKAAAAAAAAAIB7CFUAAAAAAAAAANxDqAIAAAAAAAAA4B5CFQAAAAAAAAAA9xCqAAAAAAAAAAC4h1AFAAAAAAAAAMA9hCoAAAAAAAAAAO4hVAEAAAAAAAAAcA+hCgAAAAAAAACAewhVAAAAAAAAAADcQ6gCAAAAAAAAAOAeQhUAAAAAAAAAAPcQqgAAAAAAAAAAuIdQBQAAAAAAAADAPYQq+P/s3cFtHFUAx+EFcYcOsLTaPdMB0EHowHSQDlg6sDtIOnAJoQPnuquVnA5MBc6ssjd+JwLye6Pvk57m/r+N9Jt5AAAAAAAAAEAQVQAAAAAAAAAABFEFAAAAAAAAAEAQVQAAAAAAAAAABFEFAAAAAAAAAEAQVQAAAAAAAAAABFEFAAAAAAAAAEAQVQAAAAAAAAAABFEFAAAAAAAAAEAQVQAAAAAAAAAABFEFAAAAAAAAAEAQVQAAAAAAAAAABFEFAAAAAAAAAEAQVQAAAAAAAAAABFEFAAAAAAAAAEAQVQAAAAAAAAAABFEFAAAAAAAAAEAQVQAAAAAAAAAABFEFAAAAAAAAAEAQVQAAAAAAAAAABFEFAAAAAAAAAEAQVQAAAAAAAAAABFEFAAAAAAAAAEAQVQAAAAAAAAAABFEFAAAAAAAAAEAQVQAAAAAAAAAABFEFAAAAAAAAAEAQVQAAAAAAAAAABFEFAAAAAAAAAEAQVQAAAAAAAAAABFEFAAAAAAAAAEAQVQAAAAAAAAAABFEFAAAAAAAAAEAQVQAAAAAAAAAABFEFAAAAAAAAAEAQVQAAAAAAAAAABFEFAAAAAAAAAEAQVQAAAAAAAAAABFEFAAAAAAAAAEAQVQAAAAAAAAAABFEFAAAAAAAAAEAQVQAAAAAAAAAABFEFAAAAAAAAAEAQVQAAAAAAAAAABFEFAAAAAAAAAEAQVQAAAAAAAAAABFEFAAAAAAAAAEAQVQAAAAAAAAAABFEFAAAAAAAAAEAQVQAAAAAAAAAABFEFAAAAAAAAAEAQVQAAAAAAAAAABFEFAAAAAAAAAEAQVQAAAAAAAAAABFEFAAAAAAAAAEAQVQAAAAAAAAAABFEFAAAAAAAAAEAQVQAAAAAAAAAABFEFAAAAAAAAAEAQVQAAAAAAAAAABFEFAAAAAAAAAEAQVQAAAAAAAAAABFEFAAAAAAAAAEAQVQAAAAAAAAAABFEFAAAAAAAAAEAQVQAAAAAAAAAABFEFAAAAAAAAAEAQVQAAAAAAAAAABFEFAAAAAAAAAEAQVQAAAAAAAAAABFEFAAAAAAAAAEAQVQAAAAAAAAAABFEFAAAAAAAAAEAQVQAAAAAAAAAABFEFAAAAAAAAAEAQVQAAAAAAAAAABFEFAAAAAAAAAEAQVQAAAAAAAAAABFEFAAAAAAAAAEAQVQAAAAAAAAAABFEFAAAAAAAAAEAQVQAAAAAAAAAABFEFAAAAAAAAAEAQVQAAAAAAAAAABFEFAAAAAAAAAEAQVQAAAAAAAAAABFEFAAAAAAAAAEAQVQAAAAAAAAAAhO9MAABfZ7/bHqwAAAAAwKBuTAAA/56oAgC+3h8mAAAAAAAAWB/XfwAAAAAAAAAABFEFAAAAAAAAAEAQVQAAAAAAAAAABFEFAAAAAAAAAEAQVQAAAAAAAAAABFEFAAAAAAAAAEAQVQAAAAAAAAAABFEFAAAAAAAAAEAQVQAAAAAAAAAABFEFAAAAAAAAAEAQVQAAAAAAAAAABFEFAAAAAAAAAEAQVQAAAAAAAAAABFEFAAAAAAAAAEAQVQAAAAAAAAAABFEFAAAAAAAAAEAQVQAAAAAAAAAABFEFAAAAAAAAAEAQVQAAAAAAAAAABFEFAAAAAAAAAEAQVQAAAAAAAAAABFEFACN7MgEAAAAAAACvRVQBwMieTAAAAAAAq/fRBACMSlQBwMgeTQAAAAAAq/dkAgBGJaoAYGSiCgAAAABYvw8mAGBUogoAhnU8nZ82fv0HAAAAAGv3YAIARiWqAMALFQAAAADwWj5dP64CgCGJKgAY3TsTAAAAAMBq3ZkAgJGJKgAY2rVSf28JAAAAAFidvzc+qgJgcKIKAGZwMAEAAAAArM7d8XR+NgMAIxNVADC8698q7i0BAAAAAKvxaePqDwAmIKoAYBaH64sWAAAAADC/W3+pAGAGogoApnB9wXqz+XLPIgAAAAAwrz+Pp/MHMwAwA1EFANNYXrQel8dbSwAAAADAtN4fT+eDGQCYhagCgKksL1zvlsfvlgAAAACA6VyCilszADATUQUA07mGFb9uXAUCAAAAALO4F1QAMCNRBQBTut65+NNy/rIGAAAAAAzr8mHUb8fT2bW+AEzpm5eXFysAMLX9bnu7PO6W8701AAAAAGAY98s5HE/nZ1MAMCtRBQCrsN9tf1get8u5FO8/WgQAAAAAXsXlzxQPmy8xxZM5AJidqAKA1dnvtpdrQd4s55fl/GwRAAAAAPhffVzO43IejqfzgzkAWBNRBQCrt99tb5bHjSUAAAAA4D/1fDydH80AwJqJKgAAAAAAAAAAwrcmAAAAAAAAAAD4J1EFAAAAAAAAAEAQVQAAAAAAAAAABFEFAAAAAAAAAEAQVQAAAAAAAAAABFEFAAAAAAAAAEAQVQAAAAAAAAAABFEFAAAAAAAAAEAQVQAAAAAAAAAABFEFAAAAAAAAAEAQVQAAAAAAAAAABFEFAAAAAAAAAEAQVQAAAAAAAAAABFEFAAAAAAAAAEAQVQAAAAAAAAAABFEFAAAAAAAAAEAQVQAAAAAAAAAABFEFAAAAAAAAAEAQVQAAAAAAAAAABFEFAAAAAAAAAEAQVQAAAAAAAAAABFEFAAAAAAAAAEAQVQAAAAAAAAAABFEFAAAAAAAAAEAQVQAAAAAAAAAABFEFAAAAAAAAAEAQVQAAAAAAAAAABFEFAAAAAAAAAEAQVQAAAAAAAAAABFEFAAAAAAAAAEAQVQAAAAAAAAAABFEFAAAAAAAAAEAQVQAAAAAAAAAABFEFAAAAAAAAAEAQVQAAAAAAAAAABFEFAAAAAAAAAEAQVQAAAAAAAAAABFEFAAAAAAAAAEAQVQAAAAAAAAAABFEFAAAAAAAAAEAQVQAAAAAAAAAABFEFAAAAAAAAAEAQVQAAAAAAAAAABFEFAAAAAAAAAEAQVQAAAAAAAAAABFEFAAAAAAAAAEAQVQAAAAAAAAAABFEFAAAAAAAAAEAQVQAAAAAAAAAABFEFAAAAAAAAAEAQVQAAAAAAAAAABFEFAAAAAAAAAEAQVQAAAAAAAAAABFEFAAAAAAAAAEAQVQAAAAAAAAAABFEFAAAAAAAAAEAQVQAAAAAAAAAABFEFAAAAAAAAAEAQVQAAAAAAAAAABFEFAAAAAAAAAEAQVQAAAAAAAAAABFEFAAAAAAAAAEAQVQAAAAAAAAAABFEFAAAAAAAAAEAQVQAAAAAAAAAABFEFAAAAAAAAAEAQVQAAAAAAAAAABFEFAAAAAAAAAEAQVQAAAAAAAAAABFEFAAAAAAAAAEAQVQAAAAAAAAAABFEFAAAAAAAAAEAQVQAAAAAAAAAABFEFAAAAAAAAAEAQVQAAAAAAAAAABFEFAAAAAAAAAEAQVQAAAAAAAAAABFEFAAAAAAAAAEAQVQAAAAAAAAAABFEFAAAAAAAAAEAQVQAAAAAAAAAABFEFAAAAAAAAAEAQVQAAAAAAAAAABFEFAAAAAAAAAEAQVQAAAAAAAAAABFEFAAAAAAAAAEAQVQAAAAAAAAAABFEFAAAAAAAAAEAQVQAAAAAAAAAABFEFAAAAAAAAAEAQVQAAAAAAAAAABFEFAAAAAAAAAEAQVQAAAAAAAAAABFEFAAAAAAAAAEAQVQAAAAAAAAAABFEFAAAAAAAAAEAQVQAAAAAAAAAABFEFAAAAAAAAAEAQVQAAAAAAAAAABFEFAAAAAAAAAEAQVQAAAAAAAAAABFEFAAAAAAAAAEAQVQAAAAAAAAAABFEFAAAAAAAAAEAQVQAAAAAAAAAABFEFAAAAAAAAAEAQVQAAAAAAAAAABFEFAAAAAAAAAEAQVQAAAAAAAAAABFEFAAAAAAAAAEAQVQAAAAAAAAAABFEFAAAAAAAAAEAQVQAAAAAAAAAABFEFAAAAAAAAAEAQVQAAAAAAAAAABFEFAAAAAAAAAEAQVQAAAAAAAAAABFEFAAAAAAAAAEAQVQAAAAAAAAAABFEFAAAAAAAAAEAQVQAAAAAAAAAABFEFAAAAAAAAAEAQVQAAAAAAAAAABFEFAAAAAAAAAEAQVQAAAAAAAAAABFEFAAAAAAAAAEAQVQAAAAAAAAAABFEFAAAAAAAAAEAQVQAAAAAAAAAABFEFAAAAAAAAAEAQVQAAAAAAAAAABFEFAAAAAAAAAEAQVQAAAAAAAAAABFEFAAAAAAAAAEAQVQAAAAAAAAAABFEFAAAAAAAAAEAQVQAAAAAAAAAABFEFAAAAAAAAAEAQVQAAAAAAAAAABFEFAAAAAAAAAEAQVQAAAAAAAAAABFEFAAAAAAAAAEAQVQAAAAAAAAAABFEFAAAAAAAAAEAQVQAAAAAAAAAABFEFAAAAAAAAAEAQVQAAAAAAAAAABFEFAAAAAAAAAEAQVQAAAAAAAAAABFEFAAAAAAAAAEAQVQAAAAAAAAAABFEFAAAAAAAAAEAQVQAAAAAAAAAABFEFAAAAAAAAAEAQVQAAAAAAAAAABFEFAAAAAAAAAEAQVQAAAAAAAAAABFEFAAAAAAAAAEAQVQAAAAAAAAAABFEFAAAAAAAAAEAQVQAAAAAAAAAABFEFAAAAAAAAAEAQVQAAAAAAAAAABFEFAAAAAAAAAEAQVQAAAAAAAAAABFEFAAAAAAAAAEAQVQAAAAAAAAAABFEFAAAAAAAAAEAQVQAAAAAAAAAABFEFAAAAAAAAAEAQVQAAAAAAAAAABFEFAAAAAAAAAEAQVQAAAAAAAAAABFEFAAAAAAAAAEAQVQAAAAAAAAAABFEFAAAAAAAAAEAQVQAAAAAAAAAABFEFAAAAAAAAAEAQVQAAAAAAAAAABFEFAAAAAAAAAEAQVQAAAAAAAAAABFEFAAAAAAAAAEAQVQAAAAAAAAAABFEFAAAAAAAAAEAQVQAAAAAAAAAABFEFAAAAAAAAAEAQVQAAAAAAAAAABFEFAAAAAAAAAEAQVQAAAAAAAAAABFEFAAAAAAAAAEAQVQAAAAAAAAAABFEFAAAAAAAAAEAQVQAAAAAAAAAABFEFAAAAAAAAAEAQVQAAAAAAAAAABFEFAAAAAAAAAEAQVQAAAAAAAAAABFEFAAAAAAAAAEAQVQAAAAAAAAAABFEFAAAAAAAAAEAQVQAAAAAAAAAABFEFAAAAAAAAAEAQVQAAAAAAAAAABFEFAAAAAAAAAEAQVQAAAAAAAAAABFEFAAAAAAAAAEAQVQAAAAAAAAAABFEFAAAAAAAAAEAQVQAAAAAAAAAABFEFAAAAAAAAAEAQVQAAAAAAAAAABFEFAAAAAAAAAEAQVQAAAAAAAAAABFEFAAAAAAAAAEAQVQAAAAAAAAAABFEFAAAAAAAAAEAQVQAAAAAAAAAABFEFAAAAAAAAAEAQVQAAAAAAAAAABFEFAAAAAAAAAEAQVQAAAAAAAAAABFEFAAAAAAAAAEAQVQAAAAAAAAAABFEFAAAAAAAAAEAQVQAAAAAAAAAABFEFAAAAAAAAAEAQVQAAAAAAAAAABFEFAAAAAAAAAEAQVQAAAAAAAAAABFEFAAAAAAAAAEAQVQAAAAAAAAAABFEFAAAAAAAAAEAQVQAAAAAAAAAABFEFAAAAAAAAAEAQVQAAAAAAAAAABFEFAAAAAAAAAEAQVQAAAAAAAAAABFEFAAAAAAAAAEAQVQAAAAAAAAAABFEFAAAAAAAAAEAQVQAAAAAAAAAABFEFAAAAAAAAAEAQVQAAAAAAAAAABFEFAAAAAAAAAEAQVQAAAAAAAAAABFEFAAAAAAAAAEAQVQAAAAAAAAAABFEFAAAAAAAAAEAQVQAAAAAAAAAABFEFAAAAAAAAAEAQVQAAAAAAAAAABFEFAAAAAAAAAEAQVQAAAAAAAAAABFEFAAAAAAAAAEAQVQAAAAAAAAAABFEFAAAAAAAAAEAQVQAAAAAAAAAABFEFAAAAAAAAAEAQVQAAAAAAAAAABFEFAAAAAAAAAEAQVQAAAAAAAAAABFEFAAAAAAAAAEAQVQAAAAAAAAAABFEFAAAAAAAAAEAQVQAAAAAAAAAABFEFAAAAAAAAAEAQVQAAAAAAAAAABFEFAAAAAAAAAEAQVQAAAAAAAAAABFEFAAAAAAAAAEAQVQAAAAAAAAAABFEFAAAAAAAAAEAQVQAAAAAAAAAABFEFAAAAAAAAAEAQVQAAAAAAAAAABFEFAAAAAAAAAEAQVQAAAAAAAAAABFEFAAAAAAAAAEAQVQAAAAAAAAAABFEFAAAAAAAAAEAQVQAAAAAAAAAABFEFAAAAAAAAAEAQVQAAAAAAAAAABFEFAAAAAAAAAEAQVQAAAAAAAAAABFEFAAAAAAAAAEAQVQAAAAAAAAAABFEFAAAAAAAAAEAQVQAAAAAAAAAABFEFAAAAAAAAAEAQVQAAAAAAAAAABFEFAAAAAAAAAEAQVQAAAAAAAAAABFEFAAAAAAAAAEAQVQAAAAAAAAAABFEFAAAAAAAAAEAQVQAAAAAAAAAABFEFAAAAAAAAAEAQVQAAAAAAAAAABFEFAAAAAAAAAEAQVQAAAAAAAAAABFEFAAAAAAAAAEAQVQAAAAAAAAAABFEFAAAAAAAAAEAQVQAAAAAAAAAABFEFAAAAAAAAAEAQVQAAAAAAAAAABFEFAAAAAAAAAEAQVQAAAAAAAAAABFEFAAAAAAAAAEAQVQAAAAAAAAAABFEFAAAAAAAAAEAQVQAAAAAAAAAABFEFAAAAAAAAAEAQVQAAAAAAAAAABFEFAAAAAAAAAEAQVQAAAAAAAAAABFEFAAAAAAAAAEAQVQAAAAAAAAAABFEFAAAAAAAAAEAQVQAAAAAAAAAABFEFAAAAAAAAAEAQVQAAAAAAAAAABFEFAAAAAAAAAEAQVQAAAAAAAAAABFEFAAAAAAAAAEAQVQAAAAAAAAAABFEFAAAAAAAAAEAQVQAAAAAAAAAABFEFAAAAAAAAAEAQVQAAAAAAAAAABFEFAAAAAAAAAEAQVQAAAAAAAAAABFEFAAAAAAAAAEAQVQAAAAAAAAAABFEFAAAAAAAAAEAQVQAAAAAAAAAABFEFAAAAAAAAAEAQVQAAAAAAAAAABFEFAAAAAAAAAEAQVQAAAAAAAAAABFEFAAAAAAAAAEAQVQAAAAAAAAAABFEFAAAAAAAAAEAQVQAAAAAAAAAABFEFAAAAAAAAn9m1AwEAAAAAQf7WC4xQHAEAQ6oAAAAAAAAAABhSBQAAAAAAAADAkCoAAAAAAAAAAIZUAQAAAAAAAAAwpAoAAAAAAAAAgCFVAAAAAAAAAAAMqQIAAAAAAAAAYEgVAAAAAAAAAABDqgAAAAAAAAAAGFIFAAAAAAAAAMCQKgAAAAAAAAAAhlQBAAAAAAAAADCkCgAAAAAAAACAIVUAAAAAAAAAAAypAgAAAAAAAABgSBUAAAAAAAAAAEOqAAAAAAAAAAAYUgUAAAAAAAAAwJAqAAAAAAAAAACGVAEAAAAAAAAAMKQKAAAAAAAAAIAhVQAAAAAAAAAADKkCAAAAAAAAAGBIFQAAAAAAAAAAQ6oAAAAAAAAAABhSBQAAAAAAAADAkCoAAAAAAAAAAIZUAQAAAAAAAAAwpAoAAAAAAAAAgCFVAAAAAAAAAAAMqQIAAAAAAAAAYEgVAAAAAAAAAABDqgAAAAAAAAAAGFIFAAAAAAAAAMCQKgAAAAAAAAAAhlQBAAAAAAAAADCkCgAAAAAAAACAIVUAAAAAAAAAAAypAgAAAAAAAABgSBUAAAAAAAAAAEOqAAAAAAAAAAAYUgUAAAAAAAAAwJAqAAAAAAAAAACGVAEAAAAAAAAAMKQKAAAAAAAAAIAhVQAAAAAAAAAADKkCAAAAAAAAAGBIFQAAAAAAAAAAQ6oAAAAAAAAAABhSBQAAAAAAAADAkCoAAAAAAAAAAIZUAQAAAAAAAAAwpAoAAAAAAAAAgCFVAAAAAAAAAAAMqQIAAAAAAAAAYEgVAAAAAAAAAABDqgAAAAAAAAAAGFIFAAAAAAAAAMCQKgAAAAAAAAAAhlQBAAAAAAAAADCkCgAAAAAAAACAIVUAAAAAAAAAAAypAgAAAAAAAABgSBUAAAAAAAAAAEOqAAAAAAAAAAAYUgUAAAAAAAAAwJAqAAAAAAAAAACGVAEAAAAAAAAAMKQKAAAAAAAAAIAhVQAAAAAAAAAADKkCAAAAAAAAAGBIFQAAAAAAAAAAQ6oAAAAAAAAAABhSBQAAAAAAAADAkCoAAAAAAAAAAIZUAQAAAAAAAAAwpAoAAAAAAAAAgCFVAAAAAAAAAAAMqQIAAAAAAAAAYEgVAAAAAAAAAABDqgAAAAAAAAAAGFIFAAAAAAAAAMCQKgAAAAAAAAAAhlQBAAAAAAAAADCkCgAAAAAAAACAIVUAAAAAAAAAAAypAgAAAAAAAABgSBUAAAAAAAAAAEOqAAAAAAAAAAAYUgUAAAAAAAAAwJAqAAAAAAAAAACGVAEAAAAAAAAAMKQKAAAAAAAAAIAhVQAAAAAAAAAADKkCAAAAAAAAAGBIFQAAAAAAAAAAQ6oAAAAAAAAAABhSBQAAAAAAAADAkCoAAAAAAAAAAIZUAQAAAAAAAAAwpAoAAAAAAAAAgCFVAAAAAAAAAAAMqQIAAAAAAAAAYEgVAAAAAAAAAABDqgAAAAAAAAAAGFIFAAAAAAAAAMCQKgAAAAAAAAAAhlQBAAAAAAAAADCkCgAAAAAAAACAIVUAAAAAAAAAAAypAgAAAAAAAABgSBUAAAAAAAAAAEOqAAAAAAAAAAAYUgUAAAAAAAAAwJAqAAAAAAAAAACGVAEAAAAAAAAAMKQKAAAAAAAAAIAhVQAAAAAAAAAADKkCAAAAAAAAAGBIFQAAAAAAAAAAQ6oAAAAAAAAAABhSBQAAAAAAAADASAAB2rUDAQAAAABB/tYLjFAcSRUAAAAAAAAAAEOqAAAAAAAAAAAYUgUAAAAAAAAAwJAqAAAAAAAAAACGVAEAAAAAAAAAMKQKAAAAAAAAAIAhVQAAAAAAAAAADKkCAAAAAAAAAGBIFQAAAAAAAAAAQ6oAAAAAAAAAABhSBQAAAAAAAADAkCoAAAAAAAAAAIZUAQAAAAAAAAAwpAoAAAAAAAAAgCFVAAAAAAAAAAAMqQIAAAAAAAAAYEgVAAAAAAAAAABDqgAAAAAAAAAAGFIFAAAAAAAAAMCQKgAAAAAAAAAAhlQBAAAAAAAAADCkCgAAAAAAAACAIVUAAAAAAAAAAAypAgAAAAAAAABgSBUAAAAAAAAAAEOqAAAAAAAAAAAYUgUAAAAAAAAAwJAqAAAAAAAAAACGVAEAAAAAAAAAMKQKAAAAAAAAAIAhVQAAAAAAAAAADKkCAAAAAAAAAGBIFQAAAAAAAAAAQ6oAAAAAAAAAABhSBQAAAAAAAADAkCoAAAAAAAAAAIZUAQAAAAAAAAAwpAoAAAAAAAAAgCFVAAAAAAAAAAAMqQIAAAAAAAAAYEgVAAAAAAAAAABDqgAAAAAAAAAAGFIFAAAAAAAAAMCQKgAAAAAAAAAAhlQBAAAAAAAAADCkCgAAAAAAAACAIVUAAAAAAAAAAAypAgAAAAAAAABgSBUAAAAAAAAAAEOqAAAAAAAAAAAYUgUAAAAAAAAAwJAqAAAAAAAAAACGVAEAAAAAAAAAMKQKAAAAAAAAAIAhVQAAAAAAAAAADKkCAAAAAAAAAGBIFQAAAAAAAAAAQ6oAAAAAAAAAABhSBQAAAAAAAADAkCoAAAAAAAAAAIZUAQAAAAAAAAAwpAoAAAAAAAAAgCFVAAAAAAAAAAAMqQIAAAAAAAAAYEgVAAAAAAAAAABDqgAAAAAAAAAAGFIFAAAAAAAAAMCQKgAAAAAAAAAAhlQBAAAAAAAAADCkCgAAAAAAAACAIVUAAAAAAAAAAAypAgAAAAAAAABgSBUAAAAAAAAAAEOqAAAAAAAAAAAYUgUAAAAAAAAAwJAqAAAAAAAAAACGVAEAAAAAAAAAMKQKAAAAAAAAAIAhVQAAAAAAAAAADKkCAAAAAAAAAGBIFQAAAAAAAAAAQ6oAAAAAAAAAABhSBQAAAAAAAADAkCoAAAAAAAAAAIZUAQAAAAAAAAAwpAoAAAAAAAAAgCFVAAAAAAAAAAAMqQIAAAAAAAAAYEgVAAAAAAAAAABDqgAAAAAAAAAAGFIFAAAAAAAAAMCQKgAAAAAAAAAAhlQBAAAAAAAAADCkCgAAAAAAAACAIVUAAAAAAAAAAAypAgAAAAAAAABgSBUAAAAAAAAAAEOqAAAAAAAAAAAYUgUAAAAAAAAAwJAqAAAAAAAAAACGVAEAAAAAAAAAMKQKAAAAAAAAAIAhVQAAAAAAAAAADKkCAAAAAAAAAGBIFQAAAAAAAAAAQ6oAAAAAAAAAABhSBQAAAAAAAADAkCoAAAAAAAAAAIZUAQAAAAAAAAAwpAoAAAAAAAAAgCFVAAAAAAAAAAAMqQIAAAAAAAAAYEgVAAAAAAAAAABDqgAAAAAAAAAAGFIFAAAAAAAAAMCQKgAAAAAAAAAAhlQBAAAAAAAAADCkCgAAAAAAAACAIVUAAAAAAAAAAAypAgAAAAAAAABgSBUAAAAAAAAAAEOqAAAAAAAAAAAYUgUAAAAAAAAAwJAqAAAAAAAAAACGVAEAAAAAAAAAMKQKAAAAAAAAAIAhVQAAAAAAAAAADKkCAAAAAAAAAGBIFQAAAAAAAAAAQ6oAAAAAAAAAABhSBQAAAAAAAADAkCoAAAAAAAAAAIZUAQAAAAAAAAAwpAoAAAAAAAAAgCFVAAAAAAAAAAAMqQIAAAAAAAAAYEgVAAAAAAAAAABDqgAAAAAAAAAAGFIFAAAAAAAAAMCQKgAAAAAAAAAAhlQBAAAAAAAAADCkCgAAAAAAAACAIVUAAAAAAAAAAAypAgAAAAAAAABgSBUAAAAAAAAAAEOqAAAAAAAAAAAYUgUAAAAAAAAAwJAqAAAAAAAAAACGVAEAAAAAAAAAMKQKAAAAAAAAAIAhVQAAAAAAAAAADKkCAAAAAAAAAGBIFQAAAAAAAAAAQ6oAAAAAAAAAABhSBQAAAAAAAADAkCoAAAAAAAAAAIZUAQAAAAAAAAAwpAoAAAAAAAAAgCFVAAAAAAAAAAAMqQIAAAAAAAAAYEgVAAAAAAAAAABDqgAAAAAAAAAAGFIFAAAAAAAAAMCQKgAAAAAAAAAAhlQBAAAAAAAAADCkCgAAAAAAAACAIVUAAAAAAAAAAIwAp9Z38W7EkCYAAAAASUVORK5CYII=;" parent="1" vertex="1">
          <mxGeometry x="200" y="1920" width="50" height="50" as="geometry" />
        </mxCell>
        <mxCell id="v1EW0JT8d4S7AqYUZW40-13" value="" style="shape=image;verticalLabelPosition=bottom;labelBackgroundColor=default;verticalAlign=top;aspect=fixed;imageAspect=0;image=data:image/png,iVBORw0KGgoAAAANSUhEUgAACFUAAAhVCAYAAACx2Qd4AAAACXBIWXMAAC4jAAAuIwF4pT92AAAAGXRFWHRTb2Z0d2FyZQBBZG9iZSBJbWFnZVJlYWR5ccllPAAAvThJREFUeNrs3d1tE1kYgGGDuCcdJJJl34YO4g5IB9ABlJAS6GApge0gW8FynShS6AAqyM4oY8iGlyXLj+3A80ifxnEU+3hOLl8dP7i6upoBAAAAAAAAAPBvD90CAAAAAAAAAIDPiSoAAAAAAAAAAIKoAgAAAAAAAAAgiCoAAAAAAAAAAIKoAgAAAAAAAAAgiCoAAAAAAAAAAIKoAgAAAAAAAAAgiCoAAAAAAAAAAIKoAgAAAAAAAAAgiCoAAAAAAAAAAIKoAgAAAAAAAAAgiCoAAAAAAAAAAIKoAgAAAAAAAAAgiCoAAAAAAAAAAIKoAgAAAAAAAAAgiCoAAAAAAAAAAIKoAgAAAAAAAAAgiCoAAAAAAAAAAIKoAgAAAAAAAAAgiCoAAAAAAAAAAIKoAgAAAAAAAAAgiCoAAAAAAAAAAIKoAgAAAAAAAAAgiCoAAAAAAAAAAIKoAgAAAAAAAAAgiCoAAAAAAAAAAIKoAgAAAAAAAAAgiCoAAAAAAAAAAIKoAgAAAAAAAAAgiCoAAAAAAAAAAIKoAgAAAAAAAAAgiCoAAAAAAAAAAIKoAgAAAAAAAAAgiCoAAAAAAAAAAIKoAgAAAAAAAAAgiCoAAAAAAAAAAIKoAgAAAAAAAAAgiCoAAAAAAAAAAIKoAgAAAAAAAAAgiCoAAAAAAAAAAIKoAgAAAAAAAAAgiCoAAAAAAAAAAIKoAgAAAAAAAAAgiCoAAAAAAAAAAIKoAgAAAAAAAAAgiCoAAAAAAAAAAIKoAgAAAAAAAAAgiCoAAAAAAAAAAIKoAgAAAAAAAAAgiCoAAAAAAAAAAIKoAgAAAAAAAAAgiCoAAAAAAAAAAIKoAgAAAAAAAAAgiCoAAAAAAAAAAIKoAgAAAAAAAAAgiCoAAAAAAAAAAIKoAgAAAAAAAAAgiCoAAAAAAAAAAIKoAgAAAAAAAAAgiCoAAAAAAAAAAIKoAgAAAAAAAAAgiCoAAAAAAAAAAIKoAgAAAAAAAAAgiCoAAAAAAAAAAIKoAgAAAAAAAAAgiCoAAAAAAAAAAIKoAgAAAAAAAAAgiCoAAAAAAAAAAIKoAgAAAAAAAAAgiCoAAAAAAAAAAIKoAgAAAAAAAAAgiCoAAAAAAAAAAIKoAgAAAAAAAAAgiCoAAAAAAAAAAIKoAgAAAAAAAAAgiCoAAAAAAAAAAIKoAgAAAAAAAAAgiCoAAAAAAAAAAIKoAgAAAAAAAAAgiCoAAAAAAAAAAIKoAgAAAAAAAAAgiCoAAAAAAAAAAIKoAgAAAAAAAAAgiCoAAAAAAAAAAIKoAgAAAAAAAAAgiCoAAAAAAAAAAIKoAgAAAAAAAAAgiCoAAAAAAAAAAIKoAgAAAAAAAAAgiCoAAAAAAAAAAIKoAgAAAAAAAAAgiCoAAAAAAAAAAIKoAgAAAAAAAAAgiCoAAAAAAAAAAIKoAgAAAAAAAAAgiCoAAAAAAAAAAIKoAgAAAAAAAAAgiCoAAAAAAAAAAIKoAgAAAAAAAAAgiCoAAAAAAAAAAIKoAgAAAAAAAAAgiCoAAAAAAAAAAIKoAgAAAAAAAAAgiCoAAAAAAAAAAIKoAgAAAAAAAAAgiCoAAAAAAAAAAIKoAgAAAAAAAAAgiCoAAAAAAAAAAIKoAgAAAAAAAAAgiCoAAAAAAAAAAIKoAgAAAAAAAAAgiCoAAAAAAAAAAIKoAgAAAAAAAAAgiCoAAAAAAAAAAIKoAgAAAAAAAAAgiCoAAAAAAAAAAIKoAgAAAAAAAAAgiCoAAAAAAAAAAIKoAgAAAAAAAAAgiCoAAAAAAAAAAIKoAgAAAAAAAAAgiCoAAAAAAAAAAIKoAgAAAAAAAAAgiCoAAAAAAAAAAIKoAgAAAAAAAAAgiCoAAAAAAAAAAIKoAgAAAAAAAAAgiCoAAAAAAAAAAIKoAgAAAAAAAAAgiCoAAAAAAAAAAIKoAgAAAAAAAAAgiCoAAAAAAAAAAIKoAgAAAAAAAAAgiCoAAAAAAAAAAIKoAgAAAAAAAAAgiCoAAAAAAAAAAIKoAgAAAAAAAAAgiCoAAAAAAAAAAIKoAgAAAAAAAAAgiCoAAAAAAAAAAIKoAgAAAAAAAAAgiCoAAAAAAAAAAIKoAgAAAAAAAAAgiCoAAAAAAAAAAIKoAgAAAAAAAAAgiCoAAAAAAAAAAIKoAgAAAAAAAAAgiCoAAAAAAAAAAIKoAgAAAAAAAAAgiCoAAAAAAAAAAIKoAgAAAAAAAAAgiCoAAAAAAAAAAIKoAgAAAAAAAAAgiCoAAAAAAAAAAIKoAgAAAAAAAAAgiCoAAAAAAAAAAIKoAgAAAAAAAAAgiCoAAAAAAAAAAIKoAgAAAAAAAAAgiCoAAAAAAAAAAIKoAgAAAAAAAAAgiCoAAAAAAAAAAIKoAgAAAAAAAAAgiCoAAAAAAAAAAIKoAgAAAAAAAAAgiCoAAAAAAAAAAIKoAgAAAAAAAAAgiCoAAAAAAAAAAIKoAgAAAAAAAAAgiCoAAAAAAAAAAIKoAgAAAAAAAAAgiCoAAAAAAAAAAIKoAgAAAAAAAAAgiCoAAAAAAAAAAIKoAgAAAAAAAAAgiCoAAAAAAAAAAIKoAgAAAAAAAAAgiCoAAAAAAAAAAIKoAgAAAAAAAAAgiCoAAAAAAAAAAIKoAgAAAAAAAAAgiCoAAAAAAAAAAIKoAgAAAAAAAAAgiCoAAAAAAAAAAIKoAgAAAAAAAAAgiCoAAAAAAAAAAIKoAgAAAAAAAAAgiCoAAAAAAAAAAIKoAgAAAAAAAAAgiCoAAAAAAAAAAIKoAgAAAAAAAAAgiCoAAAAAAAAAAIKoAgAAAAAAAAAgiCoAAAAAAAAAAIKoAgAAAAAAAAAgiCoAAAAAAAAAAIKoAgAAAAAAAAAgiCoAAAAAAAAAAIKoAgAAAAAAAAAgiCoAAAAAAAAAAIKoAgAAAAAAAAAgiCoAAAAAAAAAAIKoAgAAAAAAAAAgiCoAAAAAAAAAAIKoAgAAAAAAAAAgiCoAAAAAAAAAAIKoAgAAAAAAAAAgiCoAAAAAAAAAAIKoAgAAAAAAAAAgiCoAAAAAAAAAAIKoAgAAAAAAAAAgiCoAAAAAAAAAAIKoAgAAAAAAAAAgiCoAAAAAAAAAAIKoAgAAAAAAAAAgiCoAAAAAAAAAAIKoAgAAAAAAAAAgiCoAAAAAAAAAAIKoAgAAAAAAAAAgiCoAAAAAAAAAAIKoAgAAAAAAAAAgiCoAAAAAAAAAAIKoAgAAAAAAAAAgiCoAAAAAAAAAAIKoAgAAAAAAAAAgiCoAAAAAAAAAAIKoAgAAAAAAAAAgiCoAAAAAAAAAAIKoAgAAAAAAAAAgiCoAAAAAAAAAAIKoAgAAAAAAAAAgiCoAAAAAAAAAAIKoAgAAAAAAAAAgiCoAAAAAAAAAAIKoAgAAAAAAAAAgiCoAAAAAAAAAAIKoAgAAAAAAAAAgiCoAAAAAAAAAAIKoAgAAAAAAAAAgiCoAAAAAAAAAAIKoAgAAAAAAAAAgiCoAAAAAAAAAAIKoAgAAAAAAAAAgiCoAAAAAAAAAAIKoAgAAAAAAAAAgiCoAAAAAAAAAAIKoAgAAAAAAAAAgiCoAAAAAAAAAAIKoAgAAAAAAAAAgiCoAAAAAAAAAAIKoAgAAAAAAAAAgiCoAAAAAAAAAAIKoAgAAAAAAAAAgiCoAAAAAAAAAAIKoAgAAAAAAAAAgiCoAAAAAAAAAAIKoAgAAAAAAAAAgiCoAAAAAAAAAAIKoAgAAAAAAAAAgiCoAAAAAAAAAAIKoAgAAAAAAAAAgiCoAAAAAAAAAAIKoAgAAAAAAAAAgiCoAAAAAAAAAAIKoAgAAAAAAAAAgiCoAAAAAAAAAAIKoAgAAAAAAAAAgiCoAAAAAAAAAAIKoAgAAAAAAAAAgiCoAAAAAAAAAAIKoAgAAAAAAAAAgiCoAAAAAAAAAAIKoAgAAAAAAAAAgiCoAAAAAAAAAAIKoAgAAAAAAAAAgiCoAAAAAAAAAAIKoAgAAAAAAAAAgiCoAAAAAAAAAAIKoAgAAAAAAAAAgiCoAAAAAAAAAAIKoAgAAAAAAAAAgiCoAAAAAAAAAAIKoAgAAAAAAAAAgiCoAAAAAAAAAAIKoAgAAAAAAAAAgiCoAAAAAAAAAAIKoAgAAAAAAAAAgiCoAAAAAAAAAAIKoAgAAAAAAAAAgiCoAAAAAAAAAAIKoAgAAAAAAAAAgiCoAAAAAAAAAAIKoAgAAAAAAAAAgiCoAAAAAAAAAAIKoAgAAAAAAAAAgiCoAAAAAAAAAAIKoAgAAAAAAAAAgiCoAAAAAAAAAAIKoAgAAAAAAAAAgiCoAAAAAAAAAAIKoAgAAAAAAAAAgiCoAAAAAAAAAAIKoAgAAAAAAAAAgiCoAAAAAAAAAAIKoAgAAAAAAAAAgiCoAAAAAAAAAAIKoAgAAAAAAAAAgiCoAAAAAAAAAAIKoAgAAAAAAAAAgiCoAAAAAAAAAAIKoAgAAAAAAAAAgiCoAAAAAAAAAAIKoAgAAAAAAAAAgiCoAAAAAAAAAAIKoAgAAAAAAAAAgiCoAAAAAAAAAAIKoAgAAAAAAAAAgiCoAAAAAAAAAAIKoAgAAAAAAAAAgiCoAAAAAAAAAAIKoAgAAAAAAAAAgiCoAAAAAAAAAAIKoAgAAAAAAAAAgiCoAAAAAAAAAAIKoAgAAAAAAAAAgiCoAAAAAAAAAAIKoAgAAAAAAAAAgiCoAAAAAAAAAAIKoAgAAAAAAAAAgiCoAAAAAAAAAAIKoAgAAAAAAAAAgiCoAAAAAAAAAAIKoAgAAAAAAAAAgiCoAAAAAAAAAAIKoAgAAAAAAAAAgiCoAAAAAAAAAAIKoAgAAAAAAAAAgiCoAAAAAAAAAAIKoAgAAAAAAAAAgiCoAAAAAAAAAAIKoAgAAAAAAAAAgiCoAAAAAAAAAAIKoAgAAAAAAAAAgiCoAAAAAAAAAAIKoAgAAAAAAAAAgiCoAAAAAAAAAAIKoAgAAAAAAAAAgiCoAAAAAAAAAAIKoAgAAAAAAAAAgiCoAAAAAAAAAAIKoAgAAAAAAAAAgiCoAAAAAAAAAAIKoAgAAAAAAAAAgiCoAAAAAAAAAAIKoAgAAAAAAAAAgiCoAAAAAAAAAAIKoAgAAAAAAAAAgiCoAAAAAAAAAAIKoAgAAAAAAAAAgiCoAAAAAAAAAAIKoAgAAAAAAAAAgiCoAAAAAAAAAAIKoAgAAAAAAAAAgiCoAAAAAAAAAAIKoAgAAAAAAAAAgiCoAAAAAAAAAAIKoAgAAAAAAAAAgiCoAAAAAAAAAAIKoAgAAAAAAAAAgiCoAAAAAAAAAAIKoAgAAAAAAAAAgiCoAAAAAAAAAAIKoAgAAAAAAAAAgiCoAAAAAAAAAAIKoAgAAAAAAAAAgiCoAAAAAAAAAAIKoAgAAAAAAAAAgiCoAAAAAAAAAAIKoAgAAAAAAAAAgiCoAAAAAAAAAAIKoAgAAAAAAAAAgiCoAAAAAAAAAAIKoAgAAAAAAAAAgiCoAAAAAAAAAAIKoAgAAAAAAAAAgiCoAAAAAAAAAAIKoAgAAAAAAAAAgiCoAAAAAAAAAAIKoAgAAAAAAAAAgiCoAAAAAAAAAAIKoAgAAAAAAAAAgiCoAAAAAAAAAAIKoAgAAAAAAAAAgiCoAAAAAAAAAAIKoAgAAAAAAAAAgiCoAAAAAAAAAAIKoAgAAAAAAAAAgiCoAAAAAAAAAAIKoAgAAAAAAAAAgiCoAAAAAAAAAAIKoAgAAAAAAAAAgiCoAAAAAAAAAAIKoAgAAAAAAAAAgiCoAAAAAAAAAAIKoAgAAAAAAAAAgiCoAAAAAAAAAAIKoAgAAAAAAAAAgiCoAAAAAAAAAAIKoAgAAAAAAAAAgiCoAAAAAAAAAAIKoAgAAAAAAAAAgiCoAAAAAAAAAAIKoAgAAAAAAAAAgiCoAAAAAAAAAAIKoAgAAAAAAAAAgiCoAAAAAAAAAAIKoAgAAAAAAAAAgiCoAAAAAAAAAAIKoAgAAAAAAAAAgiCoAAAAAAAAAAIKoAgAAAAAAAAAgiCoAAAAAAAAAAIKoAgAAAAAAAAAgiCoAAAAAAAAAAIKoAgAAAAAAAAAgiCoAAAAAAAAAAIKoAgAAAAAAAAAgiCoAAAAAAAAAAIKoAgAAAAAAAAAgiCoAAAAAAAAAAIKoAgAAAAAAAAAgiCoAAAAAAAAAAIKoAgAAAAAAAAAgiCoAAAAAAAAAAIKoAgAAAAAAAAAgiCoAAAAAAAAAAIKoAgAAAAAAAAAgiCoAAAAAAAAAAIKoAgAAAAAAAAAgPHILALhPlov5argcTHPb6TCXZ+cXl+4UAAAAAAAA3+vB1dWVuwDAzlou5gfD5Xiaozv+2Ydh3oxzdn7xxl0EAAAAAADgW4gqANhJU0xxMsyz73ypd8O8HubV2fnFe3cWAAAAAACAuxJVALBTlov53uw6pnjxg196jCteOrkCAAAAAACAuxJVALAzlov5k9n113bs/8S3+XOY506tAAAAAAAA4GseugUA7ILlYv58uPw9+7lBxejpMKdTwAEAAAAAAABf5KQKALZuCir+2PDbfhhmdXZ+8dYOAAAAAAAAUEQVAGzVloKKtTGsOPBVIAAAAAAAABRf/wHA1iwX89Vse0HF6PEwp3YCAAAAAACAIqoAYCuWi/necHm9A0s5HNbyyo4AAAAAAABwm6gCgG05GWZ/R9byYjo1AwAAAAAAAD4SVQCwccvF/GC4vNixZZ3YGQAAAAAAAG4SVQCwDSc7uKYjp1UAAAAAAABwk6gCgI2aTql4tqPLe2mHAAAAAAAAWBNVALBpxzu8tqfLxXzPFgEAAAAAADASVQCwac93fH3HtggAAAAAAICRqAKATTvc8fWtbBEAAAAAAAAjUQUAG7NczFf3YJlP7BQAAAAAAAAjUQUAm3QfgoVD2wQAAAAAAMBIVAHAJu3dh0UuF/M9WwUAAAAAAICoAgA+5ytAAAAAAAAAEFUAAAAAAAAAABRRBQAAAAAAAABAEFUAAAAAAAAAAARRBQAAAAAAAABAEFUAAAAAAAAAAARRBQAAAAAAAABAEFUAAAAAAAAAAIRHbgEAAAAAAPB/LRfzveHyZPpxvO7F49mN5x7/x8t9GObtrecupxm9X//+7Pzi1N0HADZFVAEAAAAAAKQb4cQ6lFhN18Mf/FZjcHF067mjL6xp/fCv6Xo6mwIMwQUA8KOJKgAAAAAAgDFWOJh9CihWs6+fLrFtR7eu6+Di3ez6VIv1nJ6dX7y3wwDAtxBVAAAAAADAb2i5mK/jiXHGx/u/yEfbn+bpjc86hhan07w9O7946z8AALgLUQUAAAAAAPwGppMojmefQorHv9HHHyOLZ9PcjizGkywu/YcAAEVUAQAAAAAAv6jlYr6aXYcU4+y7Ix/9w979JMeRZPkBjm7rPXADYCwsYilgNtpogewTkH0CZB1AKvQJGHWCBnUBJk/QqBN0QqaVFhpwG2FhShxAJuAEJffKYDeLf4oAmUDGi/g+Mx9H1dh0u/uLHLPM/OXzj0MW79J0lYcuFgDAh4QqAAAAAABgQuqqfB+iyOPAiTzIyTBeDV0scsBiJWABAAhVAAAAAABAcHVVnqbpohCk2IXcxeLHPD4IWFy6IgQA5kmoAgAAAAAAAqqr8rjYhihymMLVHk/jw4BFviLkstheEXLnaABgHv7oCAAAAAAAII66Khdp5O4J/yeNvxUCFc8lXw/yJo1NOv/V0B0EAJg4nSoAAAAAAGDk6qo8TNOy0JViDPL1Kud5vO9e0Xb9yrEAwDQJVQAAAAAAwEgNV3wsi22Y4sCJjM6v3StSnZo0r4ptwMLVIAAwIa7/AAAAAACAkclhinzFRLG94uNVIVAxdkdDnfLVIM3QWQQAmAChCgAAAAAAGImPwhTnTiScHH4RrgCACRGqAAAAAACAPROmmBzhCgCYCKEKAAAAAADYk/xlexqXhTDFVP0mXOE4ACAeoQoAAAAAANiD4Uv2TRo/Oo3J+zVckWqewxVLxwEAcfzJEQAAAAAAwPOpq3KRplUaR05jdnLN3wzBiou2628cCQCMm04VAAAAAADwDOqqPE5jnf78RyFQMXdnafxHvvolXwHjOABgvIQqAAAAAADgiQ1XfeSuBGdOgw/kq1/ylSAvHQUAjJPrPwAAAAAA4InUVXlabK/6OHEafMFBGn9Pz8p1mpdt128cCQCMh04VAAAAAADwBIbuFP9RCFTwMLmLyU16bi4cBQCMh04VAAAAAACwQ7pT8B1y14q/DdeBvGy7/s6RAMB+6VQBAAAAAAA7ojsFO5K7VmyGcAUAsEc6VQAAAAAAwHeqq/IwTVfF9stw2IXcteLv6dl6m+YLXSsAYD90qgAAAAAAgO9QV+UiTZtCoIKncZ7GerhWBgB4ZkIVAAAAAADwjYbrPv5RbLsKwFPJ18nkYMXSUQDA8xKqAAAAAACAR8rXfaSxTn++cho8kxzceZOeu0tHAQDPR6gCAAAAAAAeYbiG4aZw3Qf78WN6Bm9ysMdRAMDTE6oAAAAAAIAHqqvyZZrWaRw5DfYoXwdyMwR8AIAnJFQBAAAAAAAPUFflRZr+XmyvYYB9y8Ge9RD0AQCeiFAFAAAAAAB8RV2VqzT9zUkwMjng8/f0fC4dBQA8DaEKAAAAAAD4groqD9O4Sn+eOw1G7M0Q/AEAdkyoAgAAAAAAPiMHKtK0TuOF0yCAc8EKANg9oQoAAAAAAPjIB4GKE6dBIL8GK4bnFwDYAaEKAAAAAAD4QF2Vp4VABXHlq2rWghUAsBtCFQAAAAAAMBCoYCLy8ytYAQA7IFQBAAAAAADFbwIVB06DCRCsAIAdEKoAAAAAAGD2BCqYKMEKAPhOQhUAAAAAAMza8IXzuhCoYJoEKwDgOwhVAAAAAAAwWwIVzEQOVqwcAwA83p8cAQAAAAAAc/RBoOLEaTyLd2ncfebfH6rBs3iRnvlV2/VLRwEADydUAQAAAADAXK0LX+bvwnWxDUvcpLEZRnbTdv3dY//DhrDL6fCPeT78YD5z3N/lPJ1vIVgBAA8nVAEAAAAAwOzkX+wXAhWPdV9sgyg3w7xpu36z6/+SIYixHv5x/ZnaHRfbkEUei2F2fcvD5WDFOp3zylEAwNcJVQAAAAAAMCt1VV6m6dxJfFUOUVwV22DD+ikCFN9iWMdmWNv7mr4PWLwfQha/783QsWLlKADg9wlVAAAAAAAwG3VVLtP0o5P4onfFNqxw1Xb9TZRFD2vN43Ko8yJNL4dxpKyfdZnO6SZSnQFgH4QqAAAAAACYhaGbwRsn8YkcpFgV2yDFZgobSvtYF9sOGxdD3ZeFgMXHcjePdb5OZbhyBQD4DKEKAAAAAAAmL39xXGy/ZGcrX+2xymPqnQqG/V0U24DFotgGLFz/svU+WLEQrACAzxOqAAAAAABg0uqqPCy2V1ocOI1fu1Jctl2/muPm33ewSM9EDlksi23YYu7dK06K7bUpSy8PAPjUHx0BAAAAAAATl78wPpn5GbxN489t15/ONVDxodyVIY0cLjlO//iXNK5nfiTndVUu/b8KAPiUUAUAAAAAAJM1fFE856secpji39quXw5dGvhIOperNBbpzz8X8w5XvEmvl1NPBAD8llAFAAAAAACTNHxBfDnT7X8Ypth4Gr4uh06EK4qr4bocAGAgVAEAAAAAwOQMXwyv0jiY2dZzGODfhSm+3UfhituZbf9oeN0AAAOhCgAAAAAApih3qDiZ0X7zl/9/yWGANG6U//sN4Yrj9Odf07if0dZf1FV54QkAgC2hCgAAAAAAJqWuypdpOp/Rln/KX/6ncaX6u5fONQd0jovtlSpz0aTX0bHqA4BQBQAAAAAAE/LBtR9zkK/6+Le26xuVf1rpjO/ylSrFfK4EydfmCOkAQCFUAQAAAADAtKyK7RfCU5avovjrcNXHRsmfT74SJE2nabyewXZP6qpsVB2AuROqAAAAAABgEoZrP15MfJvv0lgMV1KwB0PXiotiHl0rXqXX1amqAzBnQhUAAAAAAIQ3k2s/Xrddf5rGjYrv3wddK36e+FZXqg3AnAlVAAAAAAAwBatiutd+5Os+/jJ0R2BEhq4VuUPKXye8zXwNiGcPgNkSqgAAAAAAILS6KhfFdK/9yNd95O4UVyo9XsN1LP9ebAMwU9Sk19mxSgMwR0IVAAAAAACENfFrP96msWi7fqPS4zdcy3JcbIMwU5O7wFyqMgBzJFQBAAAAAEBk+VqCownu66e265f5egkljmOo16LYBmKm5sXQFQYAZkWoAgAAAACAkIbrCF5NcGs/tF3fqHBMOViRAzHFNIMVKxUGYG6EKgAAAAAAiGpq1xHcp/GXtutXShvfEKz468S2dVRXZaO6AMyJUAUAAAAAAOEM1xC8mNCWcqBi0Xb9lepOR6pnDv78MLFtXaTX36HqAjAXQhUAAAAAAETUTGgv7wMVN8o6PUPnkSkFKw4m9voDgN8lVAEAAAAAQCh1VS7TdDaR7QhUzMAEgxU/ptfhscoCMAdCFQAAAAAARNNMZB8CFTMywWBFo6oAzIFQBQAAAAAAYQxdKo4msh2BipmZWLDiXLcKAOZAqAIAAAAAgEiaiezjB4GKeRqCFW+9HgEgBqEKAAAAAABCmFCXih+GL9aZqVT//CxPIVihWwUAkydUAQAAAABAFM0E9vBWoIJsCFa887oEgHETqgAAAAAAYPQm0qXievgiHd5bpHEbfA+6VQAwaUIVAAAAAABE0ARff/7i/KUy8qG26++G5+Le6xMAxkmoAgAAAACAUaurclHE71LxcvgCHX4jPRc3aboIvo3creJQNQGYIqEKAAAAAADGrgm+/r8OX5zDZ6XnY5Wmt8G3caGSAEyRUAUAAAAAAKNVV+Vxms4Cb+HntusvVZIHyKGEd4HXv1RCAKZIqAIAAAAAgDFrAq/9tvBFMw80XA8T+Xk5qqvS8w7A5AhVAAAAAAAwSnVVHqbpZeAtLIcvyuFBhmtifor8zKsiAFMjVAEAAAAAwFjlQMVB0LW/brt+rYQ8VnpumiLuNSBnw5U9ADAZQhUAAAAAAIzVRdB152s/GuXjOyy9bgFgHIQqAAAAAAAYnboqT9N0EnT5F6794HsEvwZkqYIATIlQBQAAAAAAY7QMuu6f266/Uj524LLYdj2J5qCuypfKB8BUCFUAAAAAADBGUb+UdfUBOzF0O4n6PC1VEICpEKoAAAAAAGBUhl+5HwVc+k9t129UkF0Zup5cB1z6i/Q6PlRBAKZAqAIAAAAAgLGJ2KXivthe1wC7duF1DAD7I1QBAAAAAMDYRPwy9mK4rgF2Kj1XN2l663UMAPshVAEAAAAAwGgMV38cBFv2bdv1K9XjCTUB1+wKEAAmQagCAAAAAIAxifjr9kbZeEpt128K3SoAYC+EKgAAAAAAGJNFsPXqUsFzaQKuWagCgPCEKgAAAAAAGIW6Kk/TdBRs2Y3K8RyCdqtYqBwA0QlVAAAAAAAwFtF+1X6vSwXPrAm23oO6KnWrACA0oQoAAAAAAMYi2pevl0rGcxq6VVwHW/ZC5QCITKgCAAAAAIC9q6vyME0nwZYtVIHn7usWSgZAZEIVAAAAAACMwSLYet+2XX+nbDy39Nxdpek20JJP6qo8VjkAohKqAAAAAABgDBbB1rtSMjx/k319A8A/CVUAAAAAADAGi0BrvW27fq1k7NHK6xsAnodQBQAAAAAAe1VX5WGaTgIteaVq7FPb9Zs0/RxoyaeqBkBUQhUAAAAAAOzbIth6V0rGCFwFWuvJEJ4CgHCEKgAAAAAA2LdIv2J/N3QJgH278joHgKcnVAEAAAAAwL4tAq11pVyMQdv1d0WsK0AWqgZAREIVAAAAAADsW6RfsF8pF57Hb7JQLgAiEqoAAAAAAGBv6qo8TtNBkOXeuvqDkYkUqnD9BwAhCVUAAAAAALBPulTANxquAHkXZLkHdVUeqhoA0QhVAAAAAACwT5FCFWvlYoR0qwCAJyRUAQAAAADAPoX5krXtep0qGKN1oLUulAuAaIQqAAAAAADYp+Mg67xWKsao7fq11zsAPB2hCgAAAAAA9ukkyDrXSsWIRQn9HCsVANEIVQAAAAAAsBd1VZ4GWu6NijFi6yDrPFUqAKIRqgAAAAAAYF8OA611rVyMWJTQz4FSARCNUAUAAAAAAPsS5Vfrt23X3ykXIxamk0pdlQvlAiASoQoAAAAAAPYlSqeKjVIxZm3X52f03kkAwO4JVQAAAAAAsC9ROlWslYoAonSrWCgVAJEIVQAAAAAAsC86VcDu3DgCANg9oQoAAAAAAPblOMg6N0pFAHde9wCwe0IVAAAAAADsy1GERbZdv1YqAojynB4rFQCRCFUAAAAAAADEd+cIAGD3hCoAAAAAAHh2dVUeB1nqtWoRQdv1N0GWeqpaAEQiVAEAAAAAwD4cOwKYpQNHAEAkQhUAAAAAAPBlG0dAIO8cAQDsllAFAAAAAAB82cYREMidIwCA3RKqAAAAAAAA4NnUVXnoFACIQqgCAAAAAIB9OHUEsHN3Xv8AsFtCFQAAAAAA7EOUX6pvlIpAbhwBAOyWUAUAAAAAAHzZxhEAAMyXUAUAAAAAAAAAwGcIVQAAAAAAAAAAfIZQBQAAAAAAAADAZwhVAAAAAAAAAAB8hlAFAAAAAAAAAMBnCFUAAAAAAMCXHTsCAID5EqoAAAAAAGAfNkHWeaxUBLJwBACwW0IVAAAAAADsw8YRwGzdOAIAohCqAAAAAAAA4Nm0XX/nFACIQqgCAAAAAAC+7NgREMihIwCA3RKqAAAAAACALzt2BARy4ggAYLeEKgAAAAAA2IcbRwCzdOsIAIhEqAIAAAAAgGfXdv1dkKWeqRYR1FW5CLLUjWoBEIlQBQAAAAAA/I66Kg+dAgDAPAlVAAAAAACwL++CrPNUqQhgEWSdG6UCIBKhCgAAAAAA9iXKFSDHSkUAUTqqbJQKgEiEKgAAAAAA2BehCtidU697ANg9oQoAAAAAAPblJsg6F0pFAGde9wCwe0IVAAAAAADsS5RfrJ8qFWNWV+WxUwCApyFUAQAAAADAvkT5xfqBL60ZuTDBn7br18oFQCRCFQAAAAAA7Msm0Fp1q2DMFkHWea9UAEQjVAEAAAAAwF60Xb8JtNyFijFiUUI/N0oFQDRCFQAAAAAA7NO7IOtcKBUjdhZknUIVAIQjVAEAAAAAwD5tgqzzpK7KQ+VibNJzufB6B4CnI1QBAAAAAMA+Rfrl+kK5GKGXXu8A8HSEKgAAAAAA2Kd1oLUulAvP5XcRqgAgHKEKAAAAAAD2aRNorS+VizGpq/I4TSdBlnvbdv2dqgEQjVAFAAAAAAB703b9Jk33QZZ7VFflqaoxIotAa9WlAoCQhCoAAAAAANi3SF+2LpWLEXnpdQ4AT0uoAgAAAACAfVsHWqsrQBiFuioP0/TC6xwAnpZQBQAAAAAA+7YOtFZXgDAW0QI+OlUAEJJQBQAAAAAA+xbty9alkjECF4HW+q7t+jslAyAioQoAAAAAAPZq+LL1XaAluwKEvaqr8jhNJ4GWvFY1AKISqgAAAAAAYAzWgdaarwARrGCfLry+AeB5CFUAAAAAADAG62DrXSoZnr/Jvr4B4J+EKgAAAAAA2Lu266+CLfnFcAUDPKv03C3TdBBoye+GK34AICShCgAAAAAAxuI62HovlAzP3VddKRkAkQlVAAAAAAAwFtG+fF3WVXmobDyX9Lwt0nQSbNlrlQMgMqEKAAAAAADGYh1svfkKBt0qeE5NsPXet12/VjYAIvvDL7/84hQAeBZ1VeY3fa+cxOzdprFJ42YYV+7VBAAA4L26KvN7xqNAS75P49h7W57htXGcpv8TbNlv02tjqXoARKZTBQDw3PIHY2dp/JjGmzT+X12V6zS8wQYAACCLdgWIbhU8l8brGQCen1AFADAGOWTxJv8aSbgCAABg9lYB13yR3s8eKh1PJT1fizSdB1z6WvUAiE6oAgAYk9zF4s3QueLUcQAAAMxP2/X5qsjbYMvWrYKn1gRc88+uxQFgCoQqAIAxyp0rXAkCAAAwXxGvDNCtgicxdKk48zoGgP0QqgAAxir/yid3rWgcBQAAwOysgr6PvVQ6nkDE5+q+7fqV0gEwBUIVAMDYvaqr0odSAAAAMxL0CpDs3HWW7FJ6nvK1MicBl65LBQCTIVQBAETwo6tAAAAAZmcVdN1+GMBODNfJNEGXL1QBwGQIVQAAUbzxax8AAIBZWQVd99nQXQC+Vw7oHARc923b9UIVAEyGUAUAEIk35AAAADPRdv0mTddBl9/UVXmsinyr9Pws0nQedPkrFQRgSoQqAIBIjuqqbBwDAADAbKyCrjt3F3ANCN9kuPZj5XULAOMgVAEARHMxfLgAAADAxLVdv0rTfdDlv3ANCN+oSeMo6Np/HrrMAMBkCFUAANHkX/v4UAoAAGA+Ind8cA0Ij5Kel5dp+jHwFlaqCMDUCFUAABEtHQEAAMBsrAKvPf8w4EoJeYgJXPtx23a95x2AyRGqAAAiOqqr8tQxAAAATN9wlcDbwFs4Se9hL1WSB8iBhIPA62+UEIApEqoAAKJaOgIAAIDZWAVf/4/DtQ7wWen5aNJ0FngL94WuLABMlFAFABCVThUAAAAz0Xb9Ok3Xwbex0nWRzxkCN6+Cb+MyvU7vVBOAKRKqAACiOnMEAAAAs9IEX3++1iEHKw6VkveGoM1qAltxxQ0AkyVUAQCE5YMoAACA+ZhIt4qTwhUJDIbPNfLzcBB8K291qQBgyoQqAIDItE0FAACYl9UE9nBWV+VKKedtCFSs0ziawHYaFQVgyoQqAAAAAAAIoe36VZpuJ7CV87oqGxWdtXxdxskE9pG7VGyUE4ApE6oAAAAAACCS5UT28aquyqVyzs/QqeR8IttpVBSAqROqAAAAAAAgjLbr12m6nsh23ghWzMvEAhWvdakAYA6EKgCAsIYP0gAAAJifZkJ7EayYiYkFKu4LXSoAmAmhCgAg8pt3AAAAZmhi3SoywYqJm1igIrtMr8M7lQVgDoQqAICobhwBAADArC0nth/BiomaYKDiNo1LlQVgLoQqAICo1o4AAABgvtqu36Tp9cS2lYMVF6o7HRMMVGSNLhUAzIlQBQAQ1ZUjAAAAmL2mmN71kH8bvognsFTDwzTWxfQCFddt13s+AZgVoQoAIKJ36Q286z8AAABmbvi1fDPBrZ3XVXmVv5hX5XhS3Y6LbYfNswluTycVAGZHqAIAiMi9nQAAAPyq7fr8HvHdBLf2Io318AU9QaR6naYp/xDkZILbe+1HLgDMkVAFABDNrTaTAAAAfGQ50X3lL+Zv6qpcKPH4pTrl5/A/0jiY4PbyNTuNKgMwR0IVAEA03sADAADwG8Ov519PdHv5C/p/1FXp/fBI5Wta0lilP99MeJvL4bodAJgdoQoAIJJrXSoAAAD4giaN2wnv71Vdlfk6kEOlHo/huo91GucT3ubPbddfqTYAcyVUAQBEkdtMLh0DAAAAnzP8in7q7xvP0tjUVflSxfcv1eGi2F73cTLhbfo8BoDZE6oAAKJ42Xb9xjEAAADwJel947qY7jUg7+XrQP5eV+WVrhX7kc79OHcNSX/+bQbbde0HALMnVAEARPDD8MEYAAAAfE1TTPsakPdeFLpWPLuhO8VNse0aMnWu/QCAQqgCABi33GIyBypWjgIAAICHGH5VP5egwfuuFf87jf+k+k8nne8ijRym+Ntw7lPn2g8AGAhVAABjlX9VtBCoAAAA4LHSe8n85fdPM9ryv6dxk7/0F67YrXzFShqr9Oc/0jiZ0dZfuvYDALaEKgCAMcr3354OH4IBAADAo6X3lE2arme05T8U2y/939VV+T9zGMBT8O2GMEV+hjZpnM9s+69dwwoA/yJUAQCMSf6w68/pjfuFX0MAAACwA/kakPsZ7vu/pPF/66r87x6Bx0vntiy2YYpXxTyu+vjQu/y5jKcAAP7lT44AANizfM3HVRqX6U37xnEAAACwKzmwX1dlDlb8Y4bbzz+q/K9DQOC/uV7z9w2dPfJZ5UDB0UyPIQeQXnoaAOC3/vDLL784BQCe681pU2wT/mP3Lg1dEp7Wutj+4uPGFR8AAAA8tUCfSTyl/KOGfA5XukP+5tnIYYqLYRzM/Dj+7NoPAPiUUAUAz/kmNb9xj/ABhjeQAAAAMDF1VeYuiS+cxK/dCFbFzDtGpudhUWw7U5x7JH71U3oeGscAAJ9y/QcAAAAAAHOwLLadE09mfg65G8OPedRVeV1sAxaz6F6R9ntcbK+3mPMVH5/zs0AFAHyZUAUAAAAAAJOXQwN1VS6LbbDiwIn86mwYb9LZ/Jzm3M1jUgGL4XqPl8PQqeRT+RrcpWMAgC8TqgAAAAAAYBbarr+pqzJ/uf4Pp/GJF8P4MGCxjnhFSFr/aZoWxTZIcaa0X5Svgnk5hy4lAPA9hCoAAAAAAJiNtuvXdVX+kP584zS+6H3AIgcUbottd49fxxhDFkOI4n2QIg9Xe3xdDlQsIoZmAOC5CVUAAAAAADArbdev6qo8Tn++chpflQMK58PIAYb8Zfw6jZthbHIHkOdazBCgyLV7H6LIs+tcHu/iOesGAJEJVQAAAAAAMDtt1zdDsOLcaTxKDjD8s5NFls4xT+/SyNdI3AzzZhjvz3v9e/+h6T/jsNgGJN7Lfx8O432QQgeK3fghB4scAwA8jFAFAAAAAACz1Hb9cggECFZ8v5NhPvvc/3I4Z/bvJ4EKAHicPzoCAAAAAABm7KLYdlmAqXubO7Q4BgB4HKEKAAAAAABmq+36fFXFohCsYNpyoGLpGADg8YQqAAAAAACYNcEKJk6gAgC+g1AFAAAAAACzJ1jBRAlUAMB3EqoAAAAAAIBCsILJEagAgB0QqgAAAAAAgIFgBRMhUAEAOyJUAQAAAAAAH/ggWPHWaRCQQAUA7JBQBQAAAAAAfCQHK4YvpgUriOQHgQoA2C2hCgAAAAAA+ILhC+rXToIAcqBi5RgAYLeEKgAAAAAA4He0XX+Rph+cBCN1n8afBSoA4GkIVQAAAAAAwFcMX1j/pdh+gQ1jcZvGIj2fa0cBAE9DqAIAAAAAAB6g7fqrNC2K7RfZsG/v0jhNz+WNowCApyNUAQAAAAAADzR8gX2axrXTYI/epmcxByruHAUAPC2hCgAAAAAAeIT8RXYai/Tn/3Aa7MEP6flbOgYAeB5/cgQAAAAAAPA4dVUepunESfCM8rUzL133AQDPS6cKAAAAAAB4vIs0DhwDz+TnNE4FKgDg+elUAQAAAAAAj1BX5XGxDVXAU7tPo2m7/tJRAMB+CFUAAAAAAMDjNIUuFTy9d2ksdacAgP0SqgAAAAAAgAcaulScOwme2E9t1zeOAQD2T6gCAAAAAAAebuUIeEK6UwDAyAhVAAAAAADAA9RVuUjTmZPgiehOAQAjJFQBAAAAAAAP0zgCnsB1Ghe6UwDAOAlVAAAAAADAV9RVuSx0qWC37ottmGLlKABgvP7oCAAAAAAA4KsaR8AOvU7jWKACAMZPpwoAAAAAAPgddVVepOnISbAD+aqPZdv1G0cBADEIVQAAAAAAwBfUVXlY6FLB98thiqbt+rWjAIBYhCoAAAAAAODLcpeKA8fAN7ottmGKlaMAgJiEKgAAAAAA4DPqqjwutqEKeCxhCgCYCKEKAAAAAAD4vKbQpYLHydd8rIQpAGA6hCoAAAAAAOAjQ5eKcyfBA+UwRe5MsXYUADAtQhUAAAAAAPCplSPgK+7TuCq2YYqN4wCAaRKqAAAAAACAD9RVuUjTmZPgC96lcZnGVdv1d44DAKZNqAIAAAAAAH6rcQR85H1Xisu2628cBwDMh1AFAAAAAAAM6qpcFrG7VPyvNP6zSu7Mz2ms2q6/chQAME9CFQAAAAAA8C9N4LVft12/qKvyMP39chgvlPTRcpAihyhc7wEACFUAAAAAAEBWV+VFmo4Cb6HJ/2MIAqzy+CBgsRjmA5X+xG0a62IbotCRAgD4DaEKAAAAAABmbwgfNIG38HPb9euP/+WHAYthn6fFv0IWZzMt932xDVH8OtIZ3XgFAABfIlQBAAAAAABFkbtUHARf/1cNAYJ/hgjqqlwU24DF6TBPsZPF7bDndSFEAQA8klAFAAAAAACzVlflcfHAUMJIvW27fvMt/4dDd4v1R2dxWvwrZJH/OdKVKO8DFO9DFDdDtw4AgG8iVAEAAAAAwNw1RdwODfkqi50FQoZwRh5XH/77oaPF8WfGPgIXt8Ma348coLj73PUnAADfS6gCAAAAAIDZGjoznAfewuVzdGL4vcBCOsPDYtvZIvvw7/cWj/iv+vi/59fAxNfWAADwVIQqAAAAAACYs1XgtecuFZf7XsQQ6lh/8K+uPFYAwFT80REAAAAAADBHw5UWZ4G3cPEcXSoAAOZMqAIAAAAAgLlqAq/9tu36lRICADwtoQoAAAAAAGanrsplEbxLhSoCADw9oQoAAAAAAOaoCbz267brr5QQAODpCVUAAAAAADArQ5eKo8BbaFQRAOB5CFUAAAAAADAbdVUepuky8BZ+brt+rZIAAM9DqAIAAAAAgDm5SOMg+PoBAHgmQhUAAAAAAMzC0KUicijhbdv1G5UEAHg+QhUAAAAAAMxFvvYjapeK+0KXCgCAZydUAQAAAADA5NVVeZym88BbuGy7/k4lAQCel1AFAAAAAABzcBl47ffB1w8AEJZQBQAAAAAAk1ZX5SJNLwJv4UKXCgCA/RCqAAAAAABg6prAa79tu36lhAAA+yFUAQAAAADAZNVV+TJNZ4G3cKGKAAD7I1QBAAAAAMCUXQZe+3Xb9VdKCACwP0IVAAAAAABMUl2VyzQdBd5Co4oAAPslVAEAAAAAwOTUVXlYxO5S8XPb9WuVBADYL6EKAAAAAACm6CKNg+DrBwBgz4QqAAAAAACYlKFLReRQwtu26zcqCQCwf0IVAAAAAABMTb72I2qXivtClwoAgNEQqgAAAAAAYDLqqjxO03ngLVy2XX+nkgAA4yBUAQAAAADAlFwGXvt98PUDAEyOUAUAAAAAAJNQV+UiTS8Cb+FClwoAgHERqgAAAAAAYCqawGu/bbt+pYQAAOMiVAEAAAAAQHh1Vb5M01ngLVyoIgDA+AhVAAAAAAAwBZeB137ddv2VEgIAjI9QBQAAAAAAodVVuUzTUeAtNKoIADBOQhUAAAAAAIRVV+VhEb9LxVolAQDGSagCAAAAAIDILtI4CLz+pRICAIyXUAUAAAAAACENXSouAm/hbdv1G5UEABgvoQoAAAAAAKLK135E7VJxn0ajhAAA4yZUAQAAAABAOHVVHqfpPPAWLnWpAAAYP6EKAAAAAAAiugy89vvg6wcAmA2hCgAAAAAAQqmrcpGmF4G30LRdf6eSAADjJ1QBAAAAAEA0TeC137Zdr0sFAEAQQhUAAAAAAIRRV+XLNJ0F3kKjigAAcfzJEQDAJ5ZDG1GeziaNm7brbxwFAAAAjxS5y8N1ei+8UkIAgDiEKgDgU+eO4HnUVXmfpnUaVz5UAgAA4AHvI5dpOgq8hUYVAQBi+cMvv/ziFAB4FnVVNml65ST4ghywyL82umy7/s5xAAAA8KG6Kg+LbefDg6BbyF0qFioJABDLHx0BADAS+UOxHLrZ1FV54TgAAAD4yEURN1CRLZUQACAeoQoAYGzyB2R/q6tyPfwKCQAAgJkb3h9GDuC/bbt+o5IAAPEIVQAAY3WWxk1dlaeOAgAAYPaaIm6Xivth/QAABCRUAQCM2VEaa8EKAACA+UrvCY/T9GPgLVzqUgEAEJdQBQAwdvmXSIIVAAAA89UEXnvuUnGphAAAcQlVAAAR5GDFarhDFwAAgJlI7wMXaToPvIWm7fo7lQQAiEuoAgCI4qRwBy0AAMDcRH4feNt2vS4VAADBCVUAAJH8OPxKCQAAgIkb3v+dBd5Co4oAAPEJVQAA0fiVDwAAwDysAq/9uu36lRICAMQnVAEARHNSV+XSMQAAAEzX8L7vKPAWGlUEAJgGoQoAIKKlIwAAAJimuioPi9ihhNylYq2SAADTIFQBAER0VlflsWMAAACYpIsidpeKpRICAEyHUAUAENVLRwAAADAtQ5eKi8BbeNt2/UYlAQCmQ6gCAIhq4QgAAAAmp0njIOja74vY15YAAPAZQhUAQFSnjgAAAGA6hmsefwy8hUtdKgAApkeoAgCI6sgRAAAATEoTeO25S8WlEgIATI9QBQAQVl2VulUAAABM4/3dIk3ngbfQtF1/p5IAANMjVAEARHboCAAAACahCbz227brdakAAJgooQoAAAAAAPZm6FJxFngLjSoCAEyXUAUAAAAAAPu0Crz267brV0oIADBdQhUAQGQ3jgAAACCuuiqXaToKvIVGFQEApk2oAgAIq+36O6cAAAAQU12Vh0XsUELuUrFWSQCAaROqAACieucIAAAAQrsoYnepuFBCAIDpE6oAAKJaOwIAAICYhi4VkUMJb9uudyUlAMAMCFUAAFGtHQEAAEBYTRoHwdcPAMAMCFUAABHdt11/5RgAAADiqavyOE0/Bt7CT+k96UYlAQDmQagCAIhIoAIAACCuJvDa79O4VEIAgPkQqgAAImocAQAAQDx1VS7SdB54C5dt19+pJADAfAhVAADRvNVmFQAAIKwm8Npv0/vRRgkBAOZFqAIAiCS3Wb1wDAAAAPEMXSrOAm+hUUUAgPkRqgAAIllqswoAABDWKvDa36X3oyslBACYH6EKACCK123XXzkGAACAeOqqXKbpKPAWdE0EAJgpoQoAIIK3bdf7AAsAACCguioPi9hXZ1yn96RrlQQAmCehCgBg7HKgYukYAAAAwsoheV0qAAAISagCABiz1wIVAAAAcQ1dKiKHEnLQ/0YlAQDm60+OAAAYofs0lm3XXzkKAACA0HKg4iDw+hslBACYN50qAICxeZ3GsUAFAABAbHVVHqfpVeAt/JTem25UEgBg3nSqAADGIHemWKVx6QMrAACAyWiCv0+9VEIAAIQqAIB9uU4j30u71pUCAABgWuqqPE3TeeAt5ND/nUoCACBUAQCf+mux/bKf3btru97ZAgAATF/kLg+36b1ro4QAAGRCFQDwqZu269eOAQAAAB6vrspFms4Cb6FRRQAA3vujIwAAAAAAYIcid6l413b9SgkBAHhPqAIAAAAAgJ2oq3KZppPAW7hQRQAAPiRUAQAAAADArjSB137tOlAAAD4mVAEAAAAAwHerq7JJ01HgLehSAQDAJ4QqAAAAAAD4LnVVHhaxQwlv266/UUkAAD4mVAEAAAAAwPfKgYqDwOtvlBAAgM8RqgAAAAAA4JvVVXmcpleBt/BT2/UblQQA4HOEKgAAAAAA+B5N4LXfp3GphAAAfIlQBQAAAAAA36SuytM0nQfewmXb9XcqCQDAlwhVAAAAAADwrSJ3ebhtu75RQgAAfo9QBQAAAAAAj1ZX5SJNZ4G30KgiAABfI1QBAAAAAMC3iNyl4l3b9SslBADga4QqAAAAAAB4lLoql2k6CbyFC1UEAOAhhCoAAAAAAHisJvDar9uuXyshAAAPIVQBAAAAAMCD1VXZpOko8BYaVQQA4KGEKgAAAAAAeJC6Kg+L2FdnvNWlAgCAxxCqAAAAAADgoXKg4iDw+hslBADgMYQqAAAAAAD4qroqj9P0KvAWXrddv1FJAAAeQ6gCAAAAAICHaAKv/b7QpQIAgG8gVAEAAAAAwO+qq/I0TeeBt3DZdv2dSgIA8FhCFQAAAAAAfM1l4LXfBl8/AAB7JFQBAAAAAMAX1VW5SNNZ4C00ulQAAPCthCoAAAAAAPg9obtUtF2/UkIAAL6VUAUAAAAAAJ9VV+UyTSeBt7BURQAAvodQBQAAAAAAX9IEXvt12/VrJQQA4HsIVQAAAAAA8Im6Kps0HQXeQqOKAAB8L6EKAAAAAAB+o67KwzRdBN7CW10qAADYBaEKAAAAAAA+lgMVB4HX3yghAAC7IFQBAAAAAMA/1VV5nKZXgbfwuu36jUoCALALQhUAAAAAAHyoCbz2+0KXCgAAdkioAgAAAACAXw1dKs4Db+Gy7fo7lQQAYFeEKgAAAAAAeG8VeO23aVwqIQAAuyRUAQAAAABA7lKxSNNZ4C00ulQAALBrQhUAAAAAAGRN4LXftl2/UkIAAHZNqAIAAAAAYObqqlwWsbtULFURAICnIFQBAAAAAEATeO3XbdevlRAAgKcgVAEAAAAAMGN1VV6k6SjwFhpVBADgqQhVAAAAAADMVF2Vh0XsUMJbXSoAAHhKQhUAAAAAAPOVu1QcBF5/o4QAADwloQoAAAAAgBmqq/K42IYqonrddv1GJQEAeEpCFQAAAAAA89QUcbtU3Be6VAAA8AyEKgAAAAAAZmboUnEeeAuXbdffqSQAAE9NqAIAAAAAYH5Wgdd+m8alEgIA8ByEKgAAAAAAZqSuykWazgJvodGlAgCA5yJUAQAAAAAwL03gtd+2Xb9SQgAAnotQBQAAAADATNRVuSxid6lYqiIAAM9JqAIAAAAAYD6awGu/brt+rYQAADwnoQoAAAAAgBmoq/IiTUeBt9CoIgAAz02oAgAAAABg4uqqPCxihxLe6lIBAMA+CFUAAAAAAExf7lJxEHj9jRICAPD/2buj27iRJAzAxOLepQwkoMF+tTPQZGBnMJOBJ4PtjeC4GYwiODkDKQP5lQRxUgaaDI5cD27PZ68teSUNi/w+gOjXqq4nDv4pHoNQBQAAAADAjOU6nVefQxVRjVsq7kwSAIBjEKoAAAAAAJi3UsXdUrGvYgdCAAAITqgCAAAAAGCmDlsq1oFbaNqufzBJAACORagCAAAAAGC+doFrH7dUNEYIAMAxCVUAAAAAAMxQrtNqOC4Ct7C1pQIAgGMTqgAAAAAAmKcSuPb7tut3RggAwLEJVQAAAAAAzEyu06YKvqXCFAEAmAKhCgAAAACA+SmBa79pu/7KCAEAmAKhCgAAAACAGcl1Grc8nAVuoZgiAABTIVQBAAAAADATuU6nVexQwse2669NEgCAqRCqAAAAAACYj3FLxUnw+gEAYDKEKgAAAAAAZiDX6byKHUq4bLv+ziQBAJgSoQoAAAAAgHkoVdwtFfvKlgoAACZIqAIAAAAAILjDlop14BaatusfTBIAgKkRqgAAAAAAiK8JXPs+eP0AAMyYUAUAAAAAQGC5TqvheBe4ha0tFQAATJVQBQAAAABAbCVw7fdt1++MEACAqRKqAAAAAAAIKtfp/XBcBG5ha4oAAEyZUAUAAAAAQFxN4Npv2q6/MkIAAKZMqAIAAAAAIKBcp81wnAVuoZgiAABTJ1QBAAAAABBMrtNpFXtLxce2669NEgCAqROqAAAAAACIZzs8J8HrBwCAyROqAAAAAAAI5LClInIo4bLt+juTBAAgAqEKAAAAAIBYxs9+RN1Ssa9sqQAAIBChCgAAAACAIHKdzodjHbiFpu36B5MEACAKoQoAAAAAgDiawLXvg9cPAMACCVUAAAAAAASQ67QajneBW9jaUgEAQDRCFQAAAAAAMZTAtd+3Xb8zQgAAohGqAAAAAACYuFyn98NxEbiFrSkCABCRUAUAAAAAwPQ1gWu/abv+yggBAIhIqAIAAAAAYMJynTbDcRa4hWKKAABEJVQBAAAAADBRuU6nVewtFR/brr82SQAAohKqAAAAAACYru3wnASvHwAAwhKqAAAAAACYoMOWisihhMu26+9MEgCAyP7hCgDgK29zndzCy7ltu/7BNQAAAPzQ+NmPqFsq9sNTjBAAgOiEKgDga/90BS/rEFr5NDzX49N2/ZVbAQAA+OK96Xw41oFbaGypAABgDoQqAIBjeXN4PuQ6jf9gGoMVxY9uAAAAf2gC174PXj8AAPzXL64AAJiAcZ3t+A+sf+c67Q7fDQYAAFik4Z1oNRzvArdQfPYRAIC5EKoAAKZmDFfc5Tq9dxUAAMBClcC137ddb0sFAACzIVQBAEzRuLniX+PWClcBAAAsySFgfhG4hWKKAADMiVAFADBl61ynK58DAQAAFiTyloebtut3RggAwJwIVQAAUzd+R3jnGgAAgLnLddoMx1ngFoopAgAwN0IVAEAE73wKBAAAmLPDhr7oWyquTRIAgLkRqgAAolgfvi0MAAAwR9vhOQlc/8YIAQCYI6EKACCS3eHfWwAAALNxeM/ZBm7hsu36O5MEAGCOhCoAgEjGf201rgEAAJiZpoq7pWI/PMUIAQCYK6EKACCa8TMg564BAACYg8P7zTpwC40tFQAAzJlQBQAQUXEFAACA95ujG7dU2CYIAMCsCVUAABG9dwUAAEB0uU6rKvaWitJ2/YNJAgAwZ0IVAEBEJ7lOghUAAEB0JXDt923X21IBAMDsCVUAAFGtXAEAABDVYUvFReAWiikCALAEQhUAQFQrVwAAAAS2C1z7Tdv1OyMEAGAJhCoAgKjeuAIAACCiXKfNcJwFbqGYIgAASyFUAQCElet06hYAAICA7zElcAvjloprkwQAYCmEKgCAyN66AgAAIJhtFXtLxcYIAQBYEqEKAAAAAIBXcNhSsQ3cwmXb9XcmCQDAkghVAAAAAAC8jjI8J0Fr31exP1sCAAA/RagCAIjswRUAAAAR5DqdD8eHwC00tlQAALBEQhUAQFht19+6BQAAIIgSuPZxS0VjhAAALJFQBQAQ1b0rAAAAIsh1Wg3HOnALpe16mwIBAFgkoQoAICpbKgAAgChK4Nrv2663pQIAgMUSqgAAorp2BQAAwNQdtlRcBG6hmCIAAEsmVAEARHXlCgAAgAB2gWu/abt+Z4QAACyZUAUAENH4w96dawAAAKYs12kzHGeBWyimCADA0glVAAAR+Z4vAAAwablOp1XsUMIYZr82SQAAlk6oAgCI5lPb9T79AQAATN22ir2lYmOEAAAgVAEAxLN1BQAAwJQdtlREfne59MlFAAD4TKgCAIjkd+tnAQCAAMrwnAStfV/F/mwJAAA8K6EKACCKT5Uf9gAAgInLdTofjg+BW2hsqQAAgD8JVQAAEYz/lHrfdv2DqwAAACauBH/3aowQAAD+JFQBAEzd+KPeyj+lAACAqct1Wg3HOnALjTA7AAB8SagCAJiy++pzoOLWVQAAAAGUyO9fw7tXMUIAAPiSUAUAMFUfh+etQAUAABDBYUvFReAWiikCAMDX/uEKAICJGT/3sW27fucqAACAQCK/w3zyDgYAAN8mVAEATMUYpmgq3/AFAACCyXXaDMdZ4Ba2pggAAN8mVAEAHNMYpLgan7brr1wHAAAQTa7TaRX70xk3w/vYtUkCAMC3CVUAwNcuh+fONbyo2/GO266/dRUAAEBw45YHWyoAAGCmhCoA4Gs7/9IBAADgRw5bKiKHEi6F3QEA4Pt+cQUAAAAAAD+lDM9J8PoBAIDvEKoAAAAAAHiiXKfz4fgQuIXf2q6/M0kAAPg+oQoAAAAAgKcrgWvfD09jhAAA8GNCFQAAAAAAT5DrtBqOdeAWmrbrH0wSAAB+TKgCAAAAAOBpSuDa79uuL0YIAACPI1QBAAAAAPBIhy0VF4FbKKYIAACPJ1QBAAAAAPB4TeDaP7VdvzNCAAB4PKEKAAAAAIBHyHXaDMebwC1sTREAAJ5GqAIAAAAA4HFK4Npv2q6/NkIAAHgaoQoAAAAAgB/IdSrDcRa4BVsqAADgJwhVAAAAAAB8R67TaRU7lHDZdv2tSQIAwNMJVQAAAAAAfN8YqDgJXH8xQgAA+DlCFQAAAAAAfyHX6Xw4fg3cwm9t19+ZJAAA/ByhCgAAAACAv1YC174fnsYIAQDg5wlVAAAAAAB8Q67T2+FYB26habv+wSQBAODnCVUAAAAAAHxb5C0P923XFyMEAIC/R6gCAAAAAOD/5DqthuMicAvFFAEA4O8TqgAAAAAA+FrkLRWf2q7fGSEAAPx9QhUAAAAAAP8j12kzHG8Ct7A1RQAAeB5CFQAAAAAAXyqBa79pu/7aCAEA4HkIVQAAAAAAHOQ6leE4C9yCLRUAAPCMhCoAAAAAAKo/AhWnVexQwmXb9bcmCQAAz0eoAgAAAADgszFQcRK4/mKEAADwvIQqAAAAAIDFy3U6H45fA7fwW9v1dyYJAADPS6gCAAAAACD2lof98DRGCAAAz0+oAgAAAABYtFynt8OxDtxC03b9g0kCAMDzE6oAAAAAAJYu8paH+8qWCgAAeDFCFQAAAADAYuU6rYbjInALxZYKAAB4OUIVAAAAAMCShd5S0Xb9zggBAODlCFUAAAAAAIuU67QZjjeBW9iYIgAAvCyhCgAAAABgqUrg2m/arr82QgAAeFlCFQAAAADA4uQ6leE4C9xCMUUAAHh5QhUAAAAAwKLkOp0OxzZwC5e2VAAAwOsQqgAAAAAAlmYMVJwErr8YIQAAvA6hCgAAAABgMXKdzofj18At/N52/Z1JAgDA6xCqAAAAAACWpASufV/ZUgEAAK9KqAIAAAAAWIRcp7fDsQ7cQtN2/YNJAgDA6xGqAAAAAACWoglc+33w+gEAICShCgAAAABg9nKdVsNxEbiFYksFAAC8PqEKAAAAAGAJSuDa79uu3xkhAAC8PqEKAAAAAGDWcp02VewtFRtTBACA4xCqAAAAAADmrgSu/abt+msjBACA4xCqAAAAAABmK9dpOxxngVsopggAAMcjVAEAAAAAzFKu02kVO5RwaUsFAAAcl1AFAAAAADBX45aKk8D1FyMEAIDjEqoAAAAAAGYn1+m8+hyqiOr3tuvvTBIAAI5LqAIAAAAAmKNSxd1Ssa9sqQAAgEkQqgAAAAAAZuWwpWIduIWm7foHkwQAgOMTqgAAAAAA5mYXuPb74WmMEAAApkGoAgAAAACYjVyn1XBcBG6h2FIBAADT8R8B2Luf3saOfk/s9Vw8QBBkIQ0QIKtEvCBIYGYR6b4C0W8g0n0FTWMWs2x5l13Ti1nMyvI2i2n2K7CEZG/2K7A6iwxAgniofYBIwCyCbJwqs2jJdneLkvjnVJ3PBygc2fe57XOqzimyVd/zK6EKAAAAAKAmo4LP/XY6m48NIQAANIdQBQAAAABQhX6vOwxlV6kYGkUAAGgWoQoAAAAAoBajgs/943Q2nxhCAABoFqEKAAAAAKB4/V73Ih6OCr6EkVEEAIDmEaoAAAAAAIrW73UPQ9mhhA+qVAAAQDMJVQAAAAAApUtVKg4KPv+RIQQAgGYSqgAAAAAAitXvdTthGaoo1Y/T2XxhJAEAoJmEKgAAAACAko1CuVUq7oMqFQAA0GhCFQAAAABAkXKVijcFX8LldDa/M5IAANBcQhUAAAAAQKnGBZ/7bWyXhhAAAJpNqAIAAAAAKE6/1x3Ew2nBlzBSpQIAAJpPqAIAAAAAKNGo4HO/nc7mY0MIAADNJ1QBAAAAABSl3+sOQ9lVKi6MIgAAlEGoAgAAAAAozajgc/84nc2vDCEAAJRBqAIAAAAAKEa/101VHo4KvoSRUQQAgHIIVQAAAAAARej3uoeh7FDC9XQ2nxhJAAAoh1AFAAAAAFCKVKXioPDzBwAACiJUAQAAAAA0Xr/X7YSyQwkfprP5wkgCAEBZhCoAAAAAgBKMQrlVKu6DKhUAAFAkoQoAAAAAoNFylYo3BV/C5XQ2vzOSAABQHqEKAAAAAKDpxgWfe6pScWkIAQCgTEIVAAAAAEBj9XvdQTycFnwJF6pUAABAuYQqAAAAAIAmGxV87rfT2XxsCAEAoFxCFQAAAABAI/V73WEovEqFUQQAgLIJVQAAAAAATTUq+Nw/TmfzK0MIAABlE6oAAAAAABonV6k4KvgSRkYRAADKJ1QBAAAAADRKv9c9jIfLgi/hejqbT4wkAACUT6gCAAAAAGiai9gOCj9/AACgAkIVAAAAAEBj5CoVJYcSPkxn84WRBACAOghVAAAAAABNkrb9KLVKxX1QpQIAAKoiVAEAAAAANEK/1+3Ew5uCL+FyOpvfGUkAAKiHUAUAAAAA0BSXBZ/7feHnDwAAfIZQBQAAAACwd/1edxAPZwVfwoUqFQAAUB+hCgAAAACgCUYFn/vtdDYfG0IAAKiPUAUAAAAAsFf9Xvc8Hk4LvoQLowgAAHX6uy4AgL+47Pe6SrZu101si9gm09n8RncAAIC/hxV87h/j32uuDCEAANRJqAIA/upYF2zd72+g9Xvd+3hIv4C8FLAAAID2iX8nGMbDUcGXMDKKAABQL9t/AAD7dhDbm9h+6fe6k9gGugQAANohfv8/DGVXqbiezuYTIwkAAPUSqgAAmiRVsPi53+uO8y9XAQCAul2EZdC65PMHAAAqJlQBADRRqlyx6Pe6J7oCAADqlIPUJYcSPkxn84WRBACAuglVAABNld5W+yXvrwwAANTnMpRbpeI+qFIBAACtIFQBADTde8EKAACoS/yO3wnLCnWlupzO5ndGEgAA6idUAQCUIAUrznUDAABU47Lgc78v/PwBAIBnEKoAAEoxzm+zAQAABYvf6wfxcFbwJVyoUgEAAO0hVAEAlCLttTzWDQAAULxRwed+O53N/b0EAABaRKgCACjJab/XHeoGAAAoU97W77TgSxgZRQAAaBehCgCgNJf9XvdQNwAAQJnf5ws+94+qVAAAQPsIVQAApUnbgJzrBgAAKEuuOndU8CWMjCIAALSPUAUAUKKRLgAAgHLkanOlV6mYGEkAAGgfoQoAoERH/V73RDcAAEAxLsKy6lyphoYQAADaSagCACiVLUAAAKAAuUrFRcGX8GE6my+MJAAAtJNQBQBQqoEuAACAIqRtP0qtUnEfbD8IAACtJlQBAJTK9h8AANBw/V63Ew9vCr6ES1UqAACg3YQqAIBSHegCAABovMuCz/2+8PMHAAA2QKgCAChWv9cd6AUAAGj09/Wzgi9hNJ3N74wkAAC0m1AFAAAAALANo4LP/XY6m6tSAQAACFUAAAAAAJvV73XP4+G04EsYGUUAACARqgAAAAAANq3kKg8fp7P52BACAACJUAUAUKzpbD7RCwAA0Cz9XncYD0cFX8LIKAIAACtCFQAAAADARvR73cNQdijho/A2AADwmFAFAFCqj7oAAAAa5yKUXaViaAgBAIDHhCoAgFJNdAEAADRHrlJxUfAlfJjO5gsjCQAAPCZUAQCU6koXAABAo4xiOyj03O9D2duWAAAAWyJUAQCU6HY6m9/oBgAAaIZ+r9uJh7cFX8KlKhUAAMDnCFUAACUa6wIAAGiUUcHnnqpUXBpCAADgc4QqAIDS+IUnAAA0SL/XHcTDm4IvYTSdze+MJAAA8DlCFQBAaS79whMAABplVPC5p60FhbYBAIAvEqoAAEryaTqbj3QDAAA0Q65ScVrwJfj7BQAA8FVCFQBASYa6AAAAGmVc8Ll/nM7mY0MIAAB8jVAFAFCKb6ez+Y1uAACAZuj3usN4OCr4EkZGEQAAeIpQBQBQgm+9QQYAAM3R73UPQ9mhhFSlYmIkAQCApwhVAABNJ1ABAADNcxHKrlIxNIQAAMA6hCoAgKa6DwIVAADQOLlKxUXBl/Ah/j1jYSQBAIB1/F0XAAAN9DG2oV90AgBQon6vO3j0jymAcPLMP+IutpvH/xy/G9806BJHsR0UOjz3oextSwAAgB0TqgAAmuQ2tpHqFAAANFW/100BiRSUGOR/tTqmf3+wxf/u4+/Mi/AQvFgdF7sIJcfz6MTD24KH8FJ4GwAAeA6hCgCgCa5jG09n8ytdAQBAE+TwwMmf2lEDTu3o0Xmc/emc0yFVfVvkNontJn7Pvtvgf39U8LCmKhWX7m4AAOA5hCoAgF37mI+TsHyjbrLhX/ICAMCz9Hvd1RYdg9y2WnViy05zS97l67tdffcOy5DF5IX9lPrmTcFDPfJ3DwAA4LmEKgDgr7556S8ZAQCA5sshisGjdlz5Ja+qW5zl60+HFHZOf++5in//uVnzzxkV3Ae38TpVqQAAAJ5NqAIAAACA6vV73VUlivPwUMmhzVYVLd7FvknbYkxiS9vxXX2umkOuUlFyv40MOQAA8BJCFQAAAABUKQcphmEZpDjSI1+Utjo5y+197LdP8TgOy4DFIv9vxgVf36d4HWPDDAAAvIRQBQAAAADVEKTYiLQdyg+p5YDF/1V4X14YUgAA4KWEKgAAAAAoWr/X7YRliCItngtSbNZxbqX6OJ3NJ4YRAAB4KaEKAAAAAIrU73VTkGIYlttWwOeoUgEAALyKUAUAAAAAxej3uodhuVA+DKpS8HUfprP5jW4AAABeQ6gCAAAAgMbLW3yMYnujN1jTSBcAAACvJVQBAAAAQGP1e91BWC6On+oNnuH76Wy+0A0AAMBrCVUAAAAA0DjCFLzCfWyXugEAANgEoQoAAAAAGkOYgg24nM7md7oBAADYBKEKAAAAAPZOmIINuZ3O5iPdAAAAbIpQBQAAAAB70+91O2EZpnijN9iAkS4AAAA2SagCAAAAgJ3r97qH8XAR2zu9wYZ8ms7mY90AAABsklAFAAAAADvV73XP4+EytiO9wQZd6AIAAGDThCoAAAAA2Im81cc4tlO9wYZ9nM7mE90AAABs2j/pAgAAAAC2rd/rjuLhH0Gggu1QpQIAANgKlSoAAAAA2Jp+r3sSltUpjvUGW/JhOpvf6AYAAGAbVKoAAAAAYCtydYpfgkAF2zXSBQAAwLaoVAEAAADARqlOwQ59P53NF7oBAADYFpUqAAAAANiYfq97EQ+TIFDB9t3HdqkbAACAbVKpAgAAAIBX6/e6h2FZneJMb7Ajl9PZ/E43AAAA2yRUAQAAAMCr5O0+rmI70hvsyO10Nh/pBgAAYNts/wEAAADAi/V73WE8/BIEKtit/6wLAACAXRCqAAAAAOBF+r3uOB7e6wn24Psc6AEAANgqoQoAAAAAnqXf6x7GdhN/fKM32KP38T681A0AAMA2CVUAAAAAsLZ+r3sSDylQcaw3aIC38Z6cpKCPrgAAALZBqAIAAACAtfR73fN4mMR2pDdokNN0X8b7s6MrAACATROqAAAAAOBJ/V53GA8/xXagN2igVDnlJldSAQAA2BihCgAAAAC+qt/rjuLhvZ6g4VLgJ1WsGOgKAABgU4QqAAAAAPiifq87jod3eoJCpGDFz7myCgAAwKsJVQAAAADwWTlQ8UZPUKD3ghUAAMAmCFUAAAAA8BcCFVRAsAIAAHg1oQoAAAAA/kCggooIVgAAAK8iVAEAAADA7wQqqJBgBQAA8GJCFQAAAAD8RqCCiglWAAAALyJUAQAAAIBABW0gWAEAADybUAUAAABAywlU0CKCFQAAwLP8XRcAAAAAtFe/1x0FgYpNuo/tJv88efTv07+7W+P/v5NbchjbSf75VNduTApW3Exn8xtdAQAAPEWoAgAAAKCl8hv77/TEi9yGZVBi1e6ms/lky+O1Cll08nHVDgzHs01ifw4EKwAAgKcIVQAAAAC0UL/XPY+H93pibZ/CsvLEb206m9/t+gTyf3PymbHsxMPgUTsyXE9KQZQUrOjsYywBAIByCFUAAAAAtEy/103VDcZ64qtSJYqrsMcQxbriuS3yeI7z+HbCMlxxno8qWXzeKlgxEKwAAAC+RKgCAAAAoEXyFhIpLGCh/a9WQYpxydtCfCZkkcIVq2bc/+g499O5rgAAAD5HqAIAAACgXSbB9hCP3YccQCg5SPE18bpSUCS1xwGLN4b+d2exX0axn0a6AgAA+LN/0gUAAAAA7dDvdcdh+WY+IXyM7dvpbH4Y20WtgYo/SwGL2Ibxx38T23dhWZ2DEN7F52OoGwAAgD8TqgAAAABogbxgrDpBCB9i++fpbD6IbdzWTojXfhfbZWyd+I/fhGXIpO0u43NyohsAAIDHhCoAAAAAKpcXit+3uAvSFh/fx/ZvUpWG2BbuigexPyYpZBJ//OfY/vcWd8VBbOP4vBy6KwAAgJW/6wIAAACAeuUF4quWXn4KU1ymliozuBu+LodN/pd4z/zP8fh/xPY/trAbjvM9M3RHAAAAiUoVAAAAAHUbx3bUwutOlSk609l8JFDxPLG//s/Y/qf443+I7f9tYRe8ydvlAAAACFUAAAAA1Krf617Ew1nLLvs6tn8Wpni92H//W2z/bfzxP8X2/7Xs8i/ztjkAAEDLCVUAAAAAVCgvCI9adMm3sX0znc3P8zYWbEjsz/81tv8m/vifQ3vCFQdhWeUFAABoOaEKAAAAgDqNw3JhuHb3sX0/nc3TVh8Tw749sX//fTz8D2FZDaQNjvu97qWRBwCAdhOqAAAAAKhMv9cdxcNxCy71Y2wnaasPo74baUuVVA0k/vivYRloqd3b+DwNjDwAALSXUAUAAABARfK2H+9acKnfTWfzga0+9iP2+1U8dEI7qlaM43N1aNQBAKCdhCoAAAAA6jKu/Po+xfYv09nctgx79qhqxbeh7qoVR7GNjDgAALSTUAUAAABAJVqw7ceH2FJ1ihuj3RxxPMbxkCqkfKr4Mm0DAgAALSVUAQAAAFCBfq/bCXVv+/HtdDYfpuoIRrt58jYsg7AMvtRKdRQAAGghoQoAAACAOowrva60rcS/5GoINFjeDmQYltuB1Og4V4MBAABaRKgCAAAAoHD9XncYD6cVXlraTqJju4+y5ADMN2EZiKnNRa4KAwAAtIRQBQAAAEDB+r3uYahzW4Lr2Aa2+yhTHLdJWG4HclvZpR0E24AAAECrCFUAAAAAlO0iLBd6a/JhOpufC1SULVcYOQnLiiM1Oev3ugMjDAAA7SBUAQAAAFCovA3Bu8ouKwUqhka3DjkYMwj1BStUqwAAgJYQqgAAAAAo16iy6/lWoKI+lQYrjvu9rnsVAABaQKgCAAAAoEB5+4E3FV1SClSMjWydUrAitrQVyIeKLmsUn8NDowsAAHUTqgAAAAAo06iiaxGoaI+LUE/FiqN8PQAAQMWEKgAAAAAKk6tUnFZyOR8EKtqjwq1ALlSrAACAuglVAAAAAJRnVMl1pEDF0HC2S2XBioOgWgUAAFRNqAIAAACgIBVVqbgWqGivR8GK+wouR7UKAAComFAFAAAAQFlGFVxDqlAwNJTtVlGwQrUKAAComFAFAAAAQCEqqVKRFtAHeUGdlov3wU2oI2CjWgUAAFRKqAIAAACgHKMKrkGggj+I98NVPHxX+GWkahVDowkAAPURqgAAAAAoQL/XPQnlV6n4NlcmgD+I98VlPFwXfhm2AAEAgAoJVQAAAACUofQF2w/T2XxsGPmKYWy3BZ//Ub/XHRpGAACoi1AFAAAAQMP1e91OPLwp+BI+BW/x84S8Lcx54ZcxNJIAAFAXoQoAAACA5huWfv55wRy+Km8P813Bl3Cat+oBAAAqIVQBAAAA0HzDgs/9u7xQDmuJ98tlPHws+BJUZQEAgIoIVQAAAAA0WL/XHcbDUaGn/zEvkMNzpfv+vtBzfxOf20NDCAAAdRCqAAAAAGi280LPOy2IDw0fLzGdzRfxMCr4Etz7AABQCaEKAAAAgIbq97qdeDgr9PQv88I4vEjh24AMjSAAANRBqAIAAACguYaFnven6Ww+Mny0+Bk47ve6J4YPAADKJ1QBAAAA0FzDQs/7wtCxCbnayfeeXwAAYF+EKgAAAAAaKL/lflTgqV9PZ/OJEWSD0jYgtwWe99DQAQBA+YQqAAAAAJppWOh5q1LBRk1n87t4GBV46gf9XvfcCAIAQNmEKgAAAACaqcTF2O/zdg2wUfG+GsfDJ88xAACwa0IVAAAAAA1T6NYf92G5TQNsS4lVUIQqAACgcEIVAAAAAM0zLPCcL/M2DbAV8f6axMPHwk7bFiAAAFA4oQoAAACA5iltEVaVCnZl5HkGAAB2SagCAAAAoEEK3fpDlQp2otBqFQMjBwAA5RKqAAAAAGiWQWHnq0oFuzYu7HyPclgKAAAokFAFAAAAQLOUtlXAlSoV7FK838bxcFvYaQ+MHAAAlEmoAgAAAKAh+r3uYTycFnbaIyPHHpRWHeXckAEAQJmEKgAAAACaY1DY+X6czuYLw8YejMNy65lSnBoyAAAok1AFAAAAQHMMCjvfS0PGPuQtZ65KOud+r6taBQAAFEioAgAAAKA5BgWd6/10Nr8yZOzRpecbAADYNqEKAAAAgAbo97qH8XBc0CmPjRr7NJ3Nb+LhtqBTPjFqAABQHqEKAAAAgGYYFHa+Y0NGA5RUreLUcAEAQHmEKgAAAACaoaS32G9zlQDYt6K2oOn3ugNDBgAAZRGqAAAAAGiGQUHnemW4aILpbL6Ih0+ecwAAYFuEKgAAAACaoaRKFWPDhfux+uccAAAIQhUAAAAAe9fvddNC60Ehp2vrD5qmpMopQhUAAFAYoQoAAACA/esUdK62/qBR8hYgt4Wc7lG/1z00agAAUA6hCgAAAID9K+nt9YnhooFUqwAAALZCqAIAAABg/walnOh0NlepgiaaFHSuQhUAAFAQoQoAAACA/esUcp4fDRUNNfG8AwAA2yBUAQAAALB/R4Wc58RQ0UTT2fwuHj4VcroqVQAAQEGEKgAAAAD2qN/rlrTAemPEaLBJIecpVAEAAAURqgAAAADYr05B5zoxXDRYKaGfA0MFAADlEKoAAAAA2K9S3lq/zVssQFMVU0mlsAo1AADQakIVAAAAAPt1WMh52vqDRpvO5jeeewAAYNOEKgAAAAD2q5Q31oUqKMHHQs5zYKgAAKAMQhUAAAAArEOoghIsdAEAALBJQhUAAAAA+3VayHkuDBXu043pGCoAACiDUAUAAAAAT5rO5ipVUIJJIefZMVQAAFAGoQoAAACAPen3uoeFnOq90QIAAKCNhCoAAAAA9uekkPNUpYIiTGfziWcfAADYJKEKAAAAAIDdOtAFAABQBqEKAAAAAJ4y0QUU5JMuAAAANkWoAgAAAGB/OroANu5OFwAAAJsiVAEAAACwPx1dAO3U73VP9AIAADSfUAUAAAAAT5noAgqyKOQ8Dw0VAAA0n1AFAAAAAFCThS4AAAA2RagCAAAAAAAAAOAzhCoAAAAAAAAAAD5DqAIAAAAAAAAA4DOEKgAAAAAAAAAAPkOoAgAAAAAAAADgM4QqAAAAAAAAAAA+Q6gCAAAAAAAAAOAzhCoAAAAAAAAAAD5DqAIAAACApxzqAgpyogsAAIBNEaoAAAAA4CkWqSlJKSGghaECAIDmE6oAAAAA2J8bXQDtNJ3NF3oBAACaT6gCAAAAYH/uCjlP239Qko4uAAAANkWoAgAAAICn2P6DkhzpAgAAYFOEKgAAAACAKvR73VKqqtwaLQAAKINQBQAAAMCeTGfzSSGnemq0KEQpVVUWhgoAAMogVAEAAAAA1OJQFwAAAJskVAEAAACwX0VsA9DvdQeGigKUUqnixlABAEAZhCoAAAAA9mtRyHl2DBUFKCVUcWeoAACgDEIVAAAAAPtVyuJqx1DhPt2YhaECAIAyCFUAAAAA7Fcp2wAMDBUFOC7kPBeGCgAAyiBUAQAAALBf/30h53liqGiyfq87KOh0F0YMAADK8HddAAAAALBb/V73PB5W7aCQ0z6I592ZzuYLI0hDFRP88RwBAEA5hCoAAAAAtqzf6x6GhxDFWcGXMohtbERpqFJCFZ8MFQAAlEOoAgAAAGALUlWHsAxRDGM7ruSyBkGogmbfnyW4M1QAAFAOoQoAAACADen3uulN+WFYLu4eV3iJA6NMQ5+9TjwcFXK6EyMGAADlEKoAAAAAeIV+r7va1mMQylnUfamjtHg9nc0XRp6GGRR0rp4fAAAoiFAFAAAAwDP0e93D8BCiSMeDlnVBuu6xO4GGOS/oXG8MFwAAlEOoAgAAAOAJeWuBVZDirOXdkfph7K6gYQalnOh0NheqAACAgghVAAAAAHxGv9c9CcuF2mFsx3rkdwNdQMOe1XRPllIx5pMRAwCAsghVAAAAAGR5cfY8tyM98lkHsZ/Op7P5la6gIWz9AQAAbI1QBQAAANBqKSAQHoIUB3pkLamvhCpo0v1YionhAgCAsghVAAAAAK3S73UPw0OI4kyPvMi5LqAhz3PapqekqjIqVQAAQGGEKgAAAIDq9XvdTlgGAYaxHeuRV7MFCE1xUdC53sdnRqgCAAAKI1QBAAAAVCm/wT6MbRAEKbYh9a1QBftm6w8AAGCrhCoAAACAaqTqCWG5yDoIZW0JUKKztJXKdDa/0xXs6XkfxsNBQac8MWoAAFAeoQoAAACgWGlRPzyEKNLxQK/s1DC2S93AHu+/kkwMGQAAlEeoAgCAVun3up14SC0twp3kf/3455XTZ/yxH//0z2mv7Ls//byYzuYLIwCwsbl8FaQ40yN7dRGEKtjfPHBa0Cnfx++CN0YOAADKI1QBAEB1HgUnBuEhMJH+eVtl4E+f+OfVeaXDbWyL8BC2mASBC4B15vaTPK8PYzvWI41xlLZciZ9jV7qCHRsVdr4TQwYAAGUSqgAAoGh5ke1xa/obi0e5rc7zXb6O+7AMWqzaRNACMMd3B2FZkeI8bC8Yx+ulahVCFexyblht+1MSzwgAABRKqAIAgKLkBbZVSyGKg0ouLV3HaXgUCslBi8mqKRkNtGSeX4Uoziua42t3mj6f4+fURFewIxcFzg+eDwAAKJRQBQAAjfao3HtqZy27/IN8zWe5Lx6HLK5UsgAqmedXb5yft3Cer8lFsGjM7uaMi8JO+5PvbQAAUC6hCgAAGufRW8qDoNz7Y49DFj/EfroNy1LSE3vZA4XN8508zw9jO9YjVThL42rhmB0osUqF72kAAFAwoQoAABpBufcXSYGTt6nlKhbpF/ZXAhZAQ+f5VHloGJaBOUGKOl3mz3HY1jxSYpWKEIQqAACgaEIVAADsjSDFRqX+e5Pao4DF5XQ2v9E1QAPm+UFQeagNUrWKQfzsmegKtqTEKhW3vo8BAEDZhCoAANipXPJ9mJsFtu14HLBIW4SMU1OSHdjBHJ/eIl+FKATm2mmUxx+2Mb+oUgEAAOycUAUAADuR31ZOvwg/1Rs7lYIr71KLY3AdluEKv9wHNjm/d8JDkOJMj7TeafrM91nDFoxCmUGtsaEDAICyCVUAALA1j94oHAZVKZogLXae5eoVad/7FLC40y3AC+b3k7AMUaT5/ViP8CfpM0aogk3OOZ14eFvgqX+y9QcAAJRPqAIAgI3Lv/geBaXfmyoFXH5IYxTHahyPl7YGAdaY2wd5Xj8PgnI88TkT75dR/GwZ6Qo2ZOy8AQCAfRGqAABgYx6FKd7ojSKkwEt66/NtHLsPaeyEK4A/zeurEIWQHM91kYJ7PlfY0DxU6vZxKrYAAEAFhCoAAHg1YYoqpLF7I1wBrZ/P07ZNqxDFmR7hFVIIZxyW28TAa+akcaGnf+37FAAA1EGoAgCAFxOmqJJwBbRzLk8himFsx3qEDTqN99cwfpaMdQUvdBnKrZLjvgcAgEoIVQAA8Gz5rcH0S25hinqtwhU/hmW44k6XQFXz+ElYhigGQZCC7bqM99tESI8XzFPnBX/XvI33vK0/AACgEkIVAACsLYcpLnI70COt8Da2YRz7y+lsPtIdUPQcvtrWYxDbkR5hR2wDwku/c44LvoSxUQQAgHoIVQAAsJa8GJeqU1iIa5+0IPYulXCPx1TGfaJLoIh5Oy1KrkIU50EYjv1J24BcxM+PS13BmsaFz1ljQwgAAPUQqgAA4Kv6vW4nLH8xfKo3Wi8Fan6O98R1PF4o5Q6NnbNXQYozPUKD/JC3AbnRFTwxj10UPn998B0JAADq8k+6AACAL+n3uqN4+EcQqOCP0kLHTb4/gP3P1SdpETK2mzxn/xAEKmimq1xBBb44n+U5rGQqsgAAQGVUqgAA4C/6ve4gLKtT2OqDL1ltCZLeiB968xj2Mk+f52auphRH+fvFua7gM/NaCtxcFX4ZH30nAgCA+qhUAQDA79Ivs2NLb9f9HCzSsZ7j2H5RtQJ2MkefxzaO7S7P02/N1RTozGcGX3BVwZzm3gYAgAqpVAEAwG9Up+CVVK2Azc/L6a3tVTUK23lQ22fGIn5ejHUFeb5L90Lp2819ivf0xGgCAEB9VKoAACDkN0ZVp+C1VlUrLnQFvHg+7qRnKLYUTvp/YnsfBCqo02W8z090A/E+GMbDmxruaaMJAAB1UqkCAKDF0uJdWJZaPtYbbNAPuWrF+XQ2v9Md8ORcnBaWh7ENzMes6b/E9m8Lv4aD2CapUpYKR62e/9Lc976CS7lVeQUAAOqlUgUAQEvlRe+0iGEBj21IJbwXeVsZ4DNzcCp3n7ZAiP/4S2xvzcc84Tq272L75+ls/u/i8UMF15SCFVd5qxvaNw+mQNn7Si5nZEQBAKBeKlUAALRQv9dN5Ynf6gm2LC2W/Rzvt++ns/lId9DyeTctGqcw2yAfD/QKT7iPbRKWFaWuPlP5Z1TJvZS2HltVrFDdqD1z4km+v2vwUZUKAACom1AFAECL5EW9SfA2NLv1brW9gQUzWjbndsJDkOJMj7CG2/w5nUIUV1/7H8b/+yKHJN9VcN3pe4lgRXvmxlWgopZw2cioAgBA3YQqAABaosJfYFOWtKB8k7Y8mM7mN7qDyufaQWzDIMDGelKQIgUoxi+YH1Oo4qKSz3bBCt9HS5SqVEyMLAAA1E2oAgCgBfq97jAsF14EKtinVYn34VNvYENhc+wgLCtSnOf7HJ7yKbZxWFakWLz0D0nhg4qqVSSCFXXPlTUGfC+MLAAA1O9vv/76q14AYCf6ve4olPEL32+8bYRnD7buuzjXXuoGCp5bVyGK1ATWWMd1WFakuNp0YCDej4tQV6AnhU7OXxM4oXFzZo2Big/xHh0aXQAAqJ9KFQAAFev3uuN4eKMnaKAf0gKLxQgKmk8Pw0OI4kyPsIb7kEMUsU22XHkhvS3/U0V9lypW3OSKFbaMKn/+TJ/17yt8vlWpAACAlhCqAACoUF78m4TlogQ01Zt4r6bjhTLvNHQu7YRliGJoPmVNt+GhGsVkV//RtKVSvF8/xh9PK+rLVNEgbQVyropc0fNoCh78UOGlXfruAgAA7SFUAQBQGYEKCpMqqZzkt5EtTtCEOTSVqB/GNjCPsqa0VcUqSLHPqgrpvv1HZX2bghU/x+fy29i3Y7dacfPpONRZMe023o8jIwwAAO0hVAEAUJG8GDgOFgIpS7pfJ4IV7HHuXG3rMYjtSI+whuuwDDCmIMWiCSeUziPey9/HH99V2N/v82fE0K1XxJxae8DXfQgAAC3zt19//VUvALAT/V53FMr4Je83SgxT6DOWAhXp3j3QGxQqve0tWMEu5su04LcKUZybN1nDff6MXVWkuGvw/b0I9YaD0ufEeVOCLLTy++gH4R4AAGgflSoAACogUEEl0hutN6lqwJ5L6FPnPNkJD0GKMz3CGm7DQzWKq4LOexjbz5V/TgwLG5O2zLOjUGellJUUrrow0gAA0D5CFQAAhROooDLp7erVViCCFWxifhyE5SKzbZFYRwpSpMX6calzUKq4Fu/9H+OPbysdo/R956d8jSPVjRox1x7m5+a08ksdut8AAKCdhCoAAAomUEGl0v2cFgVPlHjnBfPiICwrUqR2pEdYQ9pSYhyWFSlqmXNGLXgGUmhkkKtWCOHtb849z89P7d9Fr1VHAQCA9hKqAAAolEAFlUv39VWuWOGtUJ6aD1chinNzImu6Dss3669qnGPSNaWwQah3G5CVVIHml3it38fjpc+Lnc67qTrFOLRjO6W07cfQqAMAQHv97ddff9ULAOxEQXvsfpPKJhsxGv48pV9kL4LFQ+qX3iAXrOBzc+AqRHGmR1hDWhS9ym3SljklPiuXod5tQP4sbd0y9D1+J/fVRVhWQ2nL99B/VaUCAADaTaUKAIDC5MXESRCo2IW0oP+1hbc0Fse6aatS/05UrCDeA52wDFEMPXesKS2yr6pRTNrYAfG6L/KWOG14ZtJWJz/H601VSC5sH7WVeTjdS6PYTlt02T8KVAAAAEIVAAAFeRSosKD4OumN5Zvc7h4d716zL3vekuUwt/RzJ7f0sxDMy6X7PS1oDHRF6+a89OwM89ib91jHp/AQpLjRHb8ZhnaFMVP1mkGu0mFLkM3Mxem7zCi2Ny2cT0buAAAAwPYfAOyM7T9gI89RWihS6v550pvKqwBFerZv9rHAkgMxaYF4kI+pHRmeZ/kQx26oG6qf51bbegw8I6zpOs/vV6oTfPG5SnPn+xZeegpRpqoVY3fBi7+7XBTyd7ht3DsD4SwAACARqgBgZ4Qq4NXP0Di07w3Bl0ghismqNXmBLb/5OXjULCA/7fs4piPdUNXclhbtViGKdFTVhafc5zl+VZFCJQLfI9b5bjASrnjWvHyRW1vn5G/dLwAAwIpQBQA7I1QBr3p+hqGdb5iuK5VnHodliOKm4HFeVbJI422rgy+z0FH+nNYJD0EK1XdYxyowl0IUV7rjRc+dLcSW91H6/LAtyJfn5ov8PaTNATeVsQAAgD8QqgBgZ4Qq4MXPziAeftYTf7EKUlRZ7v3RovMwCFh8zr8oyV3cPS00xHOlBfAUoBh73jf6HKbvuW2vCHMfHsIVC/dFdzU3q4i2/H45ELoBAAAeE6oAYGeEKuBFz43Fjz9aLbC1ahEk3wfD4M3Rx9KCWMeiR+Pv3UFYhoNSs70N66g6MNeQ5zI9jz/pid99DMvgzrhl98Fh/l5xYX7+w3eLE3MPAADwZ0IVAOyMUAU8+5lRpvtBKxc8vnBfDMNyEeTUbRE+xXviRDc07h5dhShSEwJiHddhGZi7EpTa2XOaFtJ/0BN/cB8eKqNMKh77VRUsWy/9lSpYAADAZwlVALAzQhXw7Gcm/WK/7b/w/hCWVSn8gvuv98cgKNX92z1i3/O934spALYKUVikYx2rxevUJoIUe3t2xz5DvihVxkp/H0hBn6tK5uhBEHb7mm+FdwEAgC8RqgBgZ4Qq4FnPS9vfIE1hipHyy2vdK53UV6HdC2MWQvZz363edlZNh3Wstm+68j2rUc/yjWf4SSkENFm1EoKeOXi5aipbPe3HOK4XugEAAPgSoQoAdkaoAtZ+VtJ2Br+09PKFKV5+33RCe8MVacFroKLJTuamYVgu0lmEZR2fwkOQwvPZzOfaVmMv+8xJfXazOu6z2kr+/D/JLc3PQhTP/O6p4hUAAPAUoQoAdkaoAtZ6TtLiRvol/VHLLv1jbENhio3cQ2lR5TK0b1ElLd4ObCOw8ftpta3HoIXzEi9zHR62TTCnl/Gcd/J3D9tCvNx97sPU7vIzEDb1d4r8/TB9vq+OndwEKHx3AAAAduDvugAAoFHGoV0Ll6kc/FCQaXPy2+CDvBh+2aL7Kb1lPYpN+e5XyAt3qxBFOlpk5Smrt/ZXFSksTpb3ubHI20VMPPMvlvrtNDyEHN7lOfXx953Fn/5/VgGMlVVoIvzp3xmT7RCoAAAA1qZSBQA7o1IFPPmMDOPhfUsuNy3CXcZnbWTkt3pPpcWZi0Lm3k3513hfXRn9Z90nnfAQpDjTI6whLRCn70pXnreq5oKTIFhBOwhUAAAAzyJUAcDOCFXAV5+PTmhP6W1bfezn/hqHdpQJT4GdjoWSJ++JtHg6SM9iWFb5gKekIEUKUIxzRRzqnBtSwOonPUHl3xMG5jEAAOA5bP8BANAM41B/oCL9Ens0nc0vDfdu5QBL2hIkVa0YVX6vHeTn6dzI/1Eu73+e25EeYQ2f8vN0JQjXms+LqzhXfBvaUzmLdhGoAAAAXkSoAgBgz/JCd+0VBFSnaIAUaIn32yQsF0lrrk5wlt62ti3B72+dr5qS/qzjOiwrUlyp+NLaz4pxnDvSj4IV1ESgAgAAeDGhCgCAPcrbMowqv8zvp7P5yGg3Q15MOIn3XqoY8rbiS02Lgq3bBiRe82F4CFGcueNZQ1povMptIkhB/qwQrKC2eU6gAgAAeDGhCgCA/UoL27W+PZ5+gZ2qBUwMc/PEcbl4VLWixnvwID9fw9rHMoezzvO1Hru7WcNteKhGYY7mS58TghXU8n1UoAIAAHiVv/366696AYCd6Pe6o3h4V8CpfmOBgR09E2kR9KdKL+9TWP4C2xvPzb8PO2G5uFrrYnyVc3oct5OwDFEMgiAF68/LqyCFxUWeM98M8r1jCyFKnPfObT8HAAC8lkoVAAB7kEv0X1Z6eR+ms/nQKJchLTTkBbNxqHO7iHRdnUrmjdW2Hmm8jty9rOE6tklYBikWuoMXfk5M8udEupcEKyiFgC8AALAxQhUAAPtxEepcFP1uOptfGt6y5AWH836vm8bubWWXd5QqJcVrHJV24jl8tQpRpKPFTJ6SytxPwkNFCouJbOpz4kawgoIIVAAAABtl+w8Adsb2H/D7s9CJh39UeGnfpv3XjXDx9+cwHt5XdllpofmkhDf18/ywClKcuSNZw214qEZxpTvY8hx1mO832w7RVCqmAQAAG6dSBQDA7o0ru560YJ3eBrwxtOVLwZh+r5t+rClYkd6qHsU2bOLJxf4+CcsQRTo/C5WsIwUpUoBibO5lx58Rd5VvGUXZfoz36IVuAAAANk2lCgB2RqUK+O05GMTDzxVdkkBFvfdqWuhPc2FNZd4bM7/nueA8tyN3HGtI5ezHYVmRYqE7aMA8lu7HN3qChlAxDQAA2BqVKgAAdmtc0bUIVFQsjWte+J+EeoIVo7CsCLEXsT9XIYrzUFdYhe25DsuKFClIcac7aNjnxDDOa+kz4r3ewPdRAACgZkIVAAA70u91h6GeN9L9ArsFKgxWnKbr2VW1ivjfOgwPIQpl8ll3br3KbSJIQQGfE2nLqJtQX2UjyvApfx81VwIAAFslVAEAsDujSq5DoKJFKgxWjGPrbOsPj32V/uwUohjGduwOYg234aEaxUR3UOjnRCffx6d6hB35Md57F7oBAADYBaEKAIAdqKhKhUBFC+UFs3QP/1TB5Ryla9nkvuvxzzsJyxDFIAhSsJ70dvUqSGE+pYbPiVQpYBDnw1E8vtMjbPm76MUmP8cBAACeIlQBALAbo0quY2gBsJ3iuF/1e91v44/vK3kex6/5A2JfrLb1GIR6tvVhu67DsuJLClIsdAeVflaM4vz4230ebAfC5qVA2rk5FAAA2DWhCgCALauoSsW3aWHdiLZXeis03s+H8ccfCr+UZ1eryNe9ClGko8VCnpLepp6Eh4oUd7qElnxWTPJ2IGmOPdMjbIjtPgAAgL0RqgAA2L5RBdfwozLLJPE+uMzbXbyp4Ln86j2dFwVXQQoLg6zjNjxUoxBCo82fFSlEdB7n0Ys83wqi8Zp5NQUhJ7oCAADYF6EKAIAtqqRKxbU3A3ks3g/DHKw4LvgyUrWK8z8vfOfrGsQ2LPz62J204Jfuo7HtkeAvnxcpiPfb8xHbqR7hmX6MbaTSDwAAsG9CFQAA2zUq/PzT3tVDw8hnDGJbhLLfPk5hoat+r5uu5Ty3I0PLmnPjOCwrUix0B3xZfkYGqlbwDKpTAAAAjSJUAQCwJekt+FD2Au19WP5C29uB/EW6L3IY4ZeCL+M0XsN/jcf/zoiyhuuwrEhxZV6EF31uqFrBOlSnAAAAGkeoAgBge0rfMuNCKXu+Jt0f/V73u/jjDwVfhkAFX5KCZVe5TSzwwUY+NxZhWbUiBU8vg+pAPPitOprvngAAQBMJVQAAbEG/1z0JZb+F+WE6m4+NJE/Jbx4P4o9neoMKpJLzq2oUE90BW/vsSFsvpWcsBVDf6ZFWSwG2C987AQCAJhOqAADYjpKrVNyG8qtssFvD2BaxHegKCpTejl4FKbwhDTuSq7+M+r3uOCyrVgjntY+tPgAAgCIIVQAAbFi/1z2Mh/OCL2Hol9s8R7pf4n0/jD/+pDcoxHVsk7AMUix0B+z1MyQ9g+e56tEolF3pi/V8CMswhfkXAAAoglAFAMDmpUBFqW/s/6jkPS+RS7mnhWpvGtNEqbx8mttWFSkEx6B5nyPpGR3kkN4otiO9Up2PYRmm8F0TAAAoilAFAMDmlbp1Rtr2Y2T4eIVhsA0IzZrTJmEZorjSHVCG+LyO42EsXFEVYQoAAKBoQhUAABvU73VP4uG40NO37QevYhsQGiAFKVKAYhzvxxvdAUV/poyDcEXphCkAAIAqCFUAAGzWsNDzvvYLbzYhbwOSFlFO9QY78im2cVhWpFjoDqjucyU93ylckbZXu/D5UoQPYRlu890SAACoglAFAMBmDQs85/tQ7pYlNPc5+IduYIuuw7IixZUKO9AOeRufFNwb5M+ZN3qlcd8nx7FdCrgBAAC1EaoAANiQ/AblQYGn7pffbFS6n+Lz8GP88a3eYEPSYt1VbhNBCmj1Z8wkzQPxc2YUluGK1GwNsj+pWtBlEHIDAAAqJlQBALA55wWe821Y/iIcNm0UlgtdB7qCV8xPq2oUE90BPJYDoemzZpSDrekz50zP7MQq6JaCuTe6AwAAqJ1QBQDA5pQYqhh5q5BtSPdVv9dNgZ13eoNnSG88r4IUFuqAdT9zVluDdPL3sWFsx3pm42y9BAAAtNLffv31V70AwE7kEr0lLK59441YXnB/p1/g/1TYad/Ge71j9Njys7EIyrLzdWmRLn3uXtmKCNjg50/6jjMMy5CFgMXLpbDbODVBCgAAoK1UqgAA2Iwiq1QYNnZ0n73XDTySysZPgredgS360/YgnaCCxXOoSAEAAPCIShUA7IxKFVR+f6dfOB8UdMqqVLDL52MRVKtou9vwUI3iSncAe/xMOgzLgMUgN59Py2oUaY6emKMBAAD+SqUKAIBX6ve6J6GsQEUyMnLs0DiUEapjs1KQIi3OpZLxN7oDaIJceWGc2+p73CC39HMbQhYpRJHm5UlYBikW7gwAAIAvE6oAAHi9YWHnm6pUjA0bO3QZ20UoL3zE86WFujS/XFmkA0qQQ183+bMq5K1CTnIb5GPJn1+3+fpWIYobW3oAAAA8j1AFAMDrDQo737EhY5fS4k2/10333Vu9UaXrsKxIcWWhDqjgM2sRD4s8r/0mBy06+Tvf6uemhS1u83nfPDoKUAAAAGyAUAUAwCvkfbmPCzvtSyPHnu47oYo63IccogjLsvEW7ICqPQpaTD7zXXCQf0whi8PcTvK/29T3xI+Pfk5hibt8Pqnd2WIJAABgu4QqAABe57yw8/1gAZR9SAtS/V43VTQ40xtFSm9Ar6pRTHQHwO+fb6s5ce25MYdyT77yZwEAANAgQhUAAK8zKOx8Valgn8ZBqKIkn8JDkMJb0AAbkgOuEz0BAABQBqEKAIDXGRR0rrcWRtmneP9d9XvdVPHgSG80VqomMgnLIMVCdwAAAADQdkIVAAAvlEs3l7Q4rEoFTZAqH7zVDY1xH3KIIiyDFLYHAgAAAIBHhCoAAF5uUNj5XhkyGmAchCr2LVULmYRliMK8AAAAAABfIVQBAPByJwWd6yel/GmCtAWNLUD2IvV5ClCMbQMEAAAAAOsTqgAAeLlBQec6Nlw0iC1AduNTfvavhKoAAAAA4GWEKgAAXu60oHNV4p8mGQehim25zs97ClLc6Q4AAAAAeB2hCgCAF+j3urb+gBeyBchG3YccoohtIkgBAAAAAJslVAEA8DKdgs51Yrho6H35Rje8SAqkrKpReL4BAAAAYIuEKgAAXqakShW2/qCp96VQxfo+hYcgxY3uAAAAAIDdEKoAAHiZQSkn6k12Gsp9+bTr3E9XtvABAAAAgP0QqgAAeJnDQs7zo6Giiaaz+V2/103VF471xu/uQw5RhGWQ4k6XAAAAAMB+CVUAALxMKQvBE0NFw+/PtocqbsNDNQpb9QAAAABAwwhVAAA8U7/XPSnodCdGjAa7ael1pyBFClCMp7P5jdsAAAAAAJpLqAIA4PkOCzpXC7Y02aRF15q2OhmHZUWKhaEHAAAAgDIIVQAAPN+gkPO8nc7md4aLpkrhgn6vex9/PKj0Eq/DsiLFlWcRAAAAAMokVAEAUC9VKijlPj2t5FpSQOQqt4kgBQAAAACUT6gCAOD5Tgo5T6EKSrlPSw5V3IaHahQTwwkAAAAAdRGqAAB4vsNCzlOoghIsCjznT+EhSOE5AwAAAICKCVUAADxfp5DztPUAJSgllPB/x/YfwzJIsTBsAAAAANAOQhX/P3v3kxtHkvYHuKbRS8NVFzDID4lM2yvSay/Eb+GdAdYNWANvvFPpBKJOIGrljYEunsAkvPPGxROY9MKAM5FAET7AV4ThdTtymJrRqJMS/9SfjMjnAV4ENeiW8o03awA1f4wAAHi5gxge0lUERGIVyXP+v/CZujAuAAAAABiWX2wBAACwLxGd+nBgWgAAAAAwPEIVAAAvUOTZYSSPemNaROTBFgAAAAAAfSRUAQDwMoe2ADbuNoaHLPJsYlQAAAAAMCxCFQAAaVrZAti4Y1sAAAAAAMMiVAEAkKaVLcD7CgAAAADwNkIVAADAvq1sAQAAAADQR0IVAAAvc2gLAAAAAABgGIQqAABe5jCS51wZFQAAAAAAvI1QBQBAmla2AAAAAAAA3kaoAgAAAAAAAACgg1AFAAAAAAAAAEAHoQoAAAAAAAAAgA5CFQAAAAAAAAAAHYQqAAAAAAAAAAA6CFUAAKTp2BYAAAAAAMDbCFUAALzMbSTPOTEqAAAAAAB4G6EKAICXWdsCAAAAAAAYBqEKAABg31xXAwAAAAD0klAFAECafJOamMRyXY2TagAAAABgYIQqAADSNLEFsFllVd/aBQAAAAAYFqEKAIAXKKt6GcmjClUQk3e2AAAAAADoI6EKAIA0HdkCAAAAAAB4G6EKAIBEFXl2aBeI4D09ieRR70wLAAAAAIZHqAIA4OVuInnOQ6MiArFcVbM2KgAAAAAYHqEKAIB0HdsCvKcbI1QBAAAAAAMkVAEA8HKrSJ7z0KiIQCyhilujAgAAAIDhEaoAAHi5VSTP6aQKYnBoCwAAAACAvhKqAAB4uVUkzylUQQyOInnOpVEBAAAAwPAIVQAAvNwqkuccF3l2aFz0VXg/TyJ63LWJAQAAAMDwCFUAALzcbUTPemJc9Fg0p6mUVX1rXAAAAAAwPEIVAAAvVFZ1TD+x7goQ+uwkkue8NyoAAAAAGCahCgCA17mJ5DlPjArv55utjAoAAAAAhkmoAgDgdVaRPOdRkWcT46JvwnvZnKIyjuRxlyYGAAAAAMMkVAEA8DqriJ51alz00InPOwAAAADQd0IVAACvs4zoWU+MC+/lm9waFwAAAAAMk1AFAMDrxPRNVidV0EensTxoWdVCFQAAAAAwUEIVAACvUFb1Oiz3kTzuuMizY1OjL8L7GFPQ587EAAAAAGC4hCoAAF4vpp9enxkXPRJTqGJpXAAAAAAwXEIVAACvt4zoWV0BgvfxdVz9AQAAAAADJlQBAPB6MX2z9cAVIPRBe/XH2OccAAAAAIiBUAUAwCuVVb2M7JHnpkYPxHRKxUP4nAtVAAAAAMCACVUAALzNTUTP6goQ9qrIs0lYziJ65KWpAQAAAMCwCVUAALzNMqJnHRd5NjMy9mjm8w0AAAAAxESoAgDgbZaRPe/MyNijuc83AAAAABAToQoAgDcoq3oZ2SO/K/Ls2OTYtfDenYTlIKJHvg+f71uTAwAAAIBhE6oAAHi768ied25keO9+amlkAAAAAIBQBQDA2y0je96zIs8mxsauhPftMCynPtcAAAAAQGyEKgAA3u4qwmd2WgW7dO5zDQAAAADESKgCAOCNyqpeheUusseeO62CXWhPqTiL7LFvwud6bXoAAAAAgFAFAMBmLCN73vHIaRXsxnmEz+yUCgAAAADgL4QqAAA2YxHhMzutgq2K9JSKhlAFAAAAAPAXQhUAABtQVvVtWO4je2ynVbBt5xE+8117pQ8AAAAAgFAFAMAGxfjT7R/b0wRgo8J7dTyK85SKhekBAAAAAF8JVQAAbM4i0ue+MDq8V3/l6g8AAAAA4K+EKgAANqS9AuQuwkc/LfLsxATZlPA+TcPyLsJHv3b1BwAAAADwLaEKAIDNWkT63E6rYCOKPJuMnFIBAAAAACRCqAIAYLMWkT73UZFn58bHBjTv0UGEz/0wEqoAAAAAAL4jVAEAsEFlVa/Dch3p48+LPDs0RV4rvD/HYXkf6eNftZ9fAAAAAIC/EqoAANi8RaTPPY742fHuv5UrcAAAAACAPxCqAADYsLKqmysE7iN9/HdFns1NkZdqr485ivTx78Ln9tYUAQAAAIDvCVUAAGxHzD/1/rm9xgGeJbwvJ2H56PMKAAAAAKRGqAIAYDsWsT9/kWcTY+Rn2vck5vf9oazqhUkCAAAAAF2EKgAAtqCs6nVYLiNuobnGwU/v8xyLUAcRP7/3HAAAAAB4klAFAMD2nEf+/GdFns2MkaeE92MeltPI21iYJAAAAADwFKEKAIAtKat6FZbryNu4KPLs2DT5XngvTsLyOfI2LtvPKQAAAABAJ6EKAIDtiv1qgXGoqyLPJkbJV+F9OGzeiwRaOTdNAAAAAOBHhCoAALaorOplWG4ib+Mg1FKwgkb7HjSBinHkrTilAgAAAAD4KaEKAIDtO0+gh6NR/KdusBlX7fvgcwkAAAAAJE+oAgBgyxI5raJxVuTZwkSHq53/uwRacUoFAAAAAPAsQhUAALtxnkgfTbBibpzD0wYqznweAQAAAIAhEaoAANiBhE6raHwu8mxmqsMR5n0+SidQ4ZQKAAAAAODZhCoAAHbnPKFefhOsGIZ2zh99DgEAAACAIRKqAADYkfa0isuEWhKsSFx71ctvCbX0xSkVAAAAAMBLCFUAAOzWeWL9CFYkKsx1EZbPCbX0MHJKBQAAAADwQkIVAAA71P6U/KfE2vqt/QY8iWjneZZYWxfh87c2XQAAAADgJYQqAAB27yLUfWI9nQlWxC/McBLqapReoOK+rOpzEwYAAAAAXkqoAgBgx9qflp8n2FoTrLhtvjFvyvFp57YMdZpgezMTBgAAAABeQ6gCAGAPyqpuTgO4SbC1o1DLIs+OTTke7bxW7fxScx0+b0tTBgAAAABeQ6gCAGB/Zon29TVYMTXi/gtzat7DZahxgu09jNI8FQYAAAAA2BGhCgCAPSmrehWWT4m213yD/r8UeXZh0v3UXPcRahG+/G2UZqCicd5+zgAAAAAAXkWoAgBgj8qqPg/LXcItvi/y7H+FOjTt/miv+1iGOku4zZvw+RLqAQAAAADeRKgCAGD/Zon3969DVUWe/Wej3r8wh+Y6jOXo8ZqWVD0M4HMFAAAAAOyAUAUAwJ6VVX07SvcakK9+DfUfijxbh/r3pr57zWkhoZbhy8+jdK/7+Mq1HwAAAADARghVAAD0wACuAfmq+Wb+fy3y7L+Z+u60p1M04Z13A2jXtR8AAAAAwMb8agsAAHpjFup/DKTXf1fk2f8N678tq/p/Gv12hD0+DstilPZVH99y7QcAAAAAsFFOqgAA6In2GpAPA2r5n4W6K/LsP4WaeAM2p9nPUIvRY0jnaECtz1z7AQAAAABsklAFAECPtNcWXA+s7f8Y6r69ooI3aMMU5+HLVaizgbV/GT4/V94CAAAAAGCThCoAAPpnFup+YD3/81CfizxbhZp5BV6u3bdVqI+hxgNr/y6UUA4AAAAAsHFCFQAAPVNW9Tos04G2fxDqN+GK52lPppg3+9Xs22h4YYrGw+jx2o+1NwIAAAAA2DShCgCAHiqr+jYsHwa8Bd+GK86b8IC34m++u+bjc7tfQzVvPy8AAAAAABsnVAEA0FNlVV+E5XLg29CEBZrrLP6pyLNFqOMhb0bo/6TZh2Y/RsO85uN7X8LnZOH/LQAAAACAbfnVFgAA9No8VBMkOLIVo7Omijy7C+uiqSFc+RD6PRw9XgfTvAsHXoO/ugnzn9sGAAAAAGCbhCoAAHqsCQ00pxOMHq95GNuRv2gCJs2VF5/D3lyH9aqplAIW7XUn07ZOjfwP7tq9AQAAAADYKqEKAICe+yZYsRwJVnzvtK3fwh7djB4DFsuwZ7exNdJebdLMeTZyMsmPPDR7NIRTSgAAAACA/ROqAACIQBMSKPKsuergN7vxpHdtNQGF+9FjCKWp2z6GLL4JUXwtgZnnmcYYmgEAAAAA4iRUAQAQibKqF0WeNV8KVvzcQaiztpoAQ3O6QfON+OXo8SqVVdjP5a4epj1p5DDUcVvvjOhV/rzLuQEAAAAACFUAAESkDVacjNqwAM/WnALx15MsGm1ApTnRYvVNNZbf7fnyqd+0ncVXk9FjYGLUrl9/7QSKzfjQvP+2AQAAAADYJaEKAIDIlFU9awMBghVvd9DWtydHfPz2H2j3mv26DO/9hW0AAAAAAHbtF1sAABCfJlgRlks7wQBctu87AAAAAMDOCVUAAESq/UbzjZ0gYQIVAAAAAMBeCVUAAMRtGurONpAggQoAAAAAYO+EKgAAIlZW9TosJyPBCtIiUAEAAAAA9IJQBQBA5AQrSIxABQAAAADQG0IVAAAJaIIVoY7Dl5d2g4gJVAAAAAAAvSJUAQCQkPYb0v/HThAhgQoAAAAAoHeEKgAAElLk2Tws/8JOEJlPAhUAAAAAQB/9agsAANJQ5Flz/cdnO0Fk/lxW9cI2AAAAAAB9JFQBAJCAIs8mYbmyE0TkIdSsrGrvLQAAAADQW0IVAABpWIQ6sA1EoglUnJRVfWsrAAAAAIA++8UWAADErcizeVhO7QSRuAt1KFABAAAAAMTASRUAABEr8uw4LJ/tBJG4LKt6ZhsAAAAAgFg4qQIAIFJFnk1Gj9d+QAw+CFQAAAAAALFxUgUAQLwuQh3ZBnruPtTUdR8AAAAAQIycVAEAEKEiz2ZhObMT9Nx1qGOBCgAAAAAgVk6qAACITJFnx6PHUyqgz5rrPrynAAAAAEDUhCoAACJS5NkkLItQY7tBT92FmjmdAgAAAABIgVAFAEBcmp/8P7IN9NSXsqrntgEAAAAASIVQBQBAJIo8m4XlzE7QQ/ejx9MplrYCAAAAAEjJL7YAAKD/ijw7Hj2eUgF98ynUsUAFAAAAAJAiJ1UAAPRckWeTsCxCje0GPXITal5W9a2tAAAAAABSJVQBANB/zQkVR7aBnngIdV5WtZNTAAAAAIDkuf4DAKDHijybheXMTtATX0IdClQAAAAAAEPhpAoAgJ4q8ux49HhKBexbc9XHrKzqla0AAAAAAIZEqAIAoIeKPJuEZRFqbDfYoyZM0Vz1sbQVAAAAAMAQCVUAAPTTeagj28Ce3I8ewxQLWwEAAAAADJlQBQBAzxR5Ng3LezvBHghTAAAAAAB8Q6gCAKBHijw7HD1e+wG71FzzsRCmAAAAAAD4e0IVAAD9chVqnFA//zvUvzTW3mrCFM3JFEtbAQAAAADwR7/YAgCAfijy7CIsRwm1dFlW9b8K679pvg71YMq98NDO4x/CfE4EKgAAAAAAnuakCgCAHijybBqW9wm1dBdq3nxRVvVtWGahx0mztv/7ganvZSZNcOcqzGRtOwAAAAAAfk6oAgBgz4o8OwzLIqGWmpMQZt9/4779dfNN/YvQ8/HoMVzRhEnG3oKtzqK5UuaiDbcAAAAAAPACQhUAAPvXfNM7pWDB/GffwP96ekXzdZFnzdqEK069ChvTXO/RnEhxZSsAAAAAAF5PqAIAYI+KPGtObjhKqKXLsqoXL/kX2n9+0V4PMh0JWLzG1xMpliPXewAAAAAAbIxQBQDAnhR51oQH3ifU0t3o8UqPV2mDAIu2vu5PUyehDrwxf3A/aoMUTqQAAAAAANgOoQoAgD0o8uxw1IYHEtGclDDb5AkJbVDgqt2v49FjuOJrjQf42jR7vBz97TSKlU8SAAAAAMB2CVUAAOxHExZIKRgwL6v6dlu/eft7N9Vcl/J9yKL5OsWTLJqTKJZt38tt7i8AAAAAAN2EKgAAdqzIsyYYcJRQS9dlVS92+Qd2hCwmo8dwxUm7Hka2x3dtP6tRG6TY5KkfAAAAAAC8jlAFAMAOFXl2Epb3CbXUnKYw2/dDtAGEZVvf7ncTsGgCFyft+vXX+whcNMGJ5jlv27V51rUTKAAAAAAA+kuoAgBgR9rTFK4Sa2va5xMVvgksLJ+YydeQRePbr786ecYf8/3v/TU48ZevhSYAAAAAAOIlVAEAsDtNoGKcUD8fYg8MfPf8S68oAAAAAADf+sUWAABsX5Fn52F5l1BL12VVX5gsAAAAAAApE6oAANiyIs9OwvIxoZbuQ81MFgAAAACA1AlVAABsUZFnk9HjtR8pmZZVvTZdAAAAAABSJ1QBALBdTaBinFA/H8qqvjVWAAAAAACGQKgCAGBLijw7D8u7hFq6Lqv6wmQBAAAAABgKoQoAgC0o8uwkLB8Tauk+1MxkAQAAAAAYEqEKAIANK/JsMnq89iMl07Kq16YLAAAAAMCQCFUAAGxeE6gYJ9TPh7Kqb40VAAAAAIChEaoAANigIs/Ow/IuoZauy6q+MFkAAAAAAIZIqAIAYEOKPDsJy8eEWnoINTNZAAAAAACGSqgCAGADijybjB6v/UjJtKzqtekCAAAAADBUQhUAAJuxCDVOqJ9PZVUvjRUAAAAAgCETqgAAeKMiz+ZhOU2opZuyqs9NFgAAAACAoROqAAB4gyLPjsPyOaGWHkJNTRYAAAAAAIQqAABercizSViuEmtrWlb12nQBAAAAAECoAgDgLRahDhLq51NZ1UtjBQAAAACAR0IVAACvUOTZPCynCbV0U1b1uckCAAAAAMDfCFUAALxQkWfHYfmcUEsPoaYmCwAAAAAAf0+oAgDgBYo8m4TlKrG2pmVVr00XAAAAAAD+nlAFAMDLLEIdJNTPp7Kql8YKAAAAAAB/JFQBAPBMRZ7Nw3KaUEs3ZVWfmywAAAAAAHQTqgAAeIYiz47D8jmhlh5CTU0WAAAAAACeJlQBAPATRZ5NwnKVWFvTsqrXpgsAAAAAAE8TqgAA+LlFqIOE+vlSVvXSWAEAAAAA4MeEKgAAfqDIs3lYThNq6a6s6rnJAgAAAADAzwlVAAA8ociz47CcJ9TSQ6ipyQIAAAAAwPMIVQAAdCjybDJ6vPZjnFBbs7KqV6YLAAAAAADPI1QBANDtItRRQv18Kav6ylgBAAAAAOD5hCoAAL5T5NksLGcJtXRXVvXcZAEAAAAA4GWEKgAAvlHk2fHo8ZSKVDyEmposAAAAAAC8nFAFAECryLNJWBahxgm1NSuremW6AAAAAADwckIVAAB/05xQcZRQP1/Kqr4yVgAAAAAAeB2hCgCA0V9OqZiF5Syhlu7Kqp6bLAAAAAAAvJ5QBQAweEWeHY8eT6lIxUOoqckCAAAAAMDbCFUAAINW5NkkLItQ44TampVVvTJdAAAAAAB4G6EKAGDomhMqjhLq50tZ1VfGCgAAAAAAbydUAQAMVpFns7CcJdTSXahzkwUAAAAAgM0QqgAABqnIs8PR4ykVqXgYPV77sTZdAAAAAADYDKEKAGComisyxgn1My+r+tZYAQAAAABgc4QqAIDBKfKsOaHiKKGWLsuqXpgsAAAAAABsllAFADAoRZ5Nw/I+oZbuQs1NFgAAAAAANk+oAgAYjCLPDsOySKilh1CzsqrXpgsAAAAAAJsnVAEADMlVqHFC/czLqr41VgAAAAAA2A6hCgBgEIo8uwjLUUItXZZVvTBZAAAAAADYHqEKACB5RZ5Nw/I+oZbuQs1NFgAAAAAAtkuoAgBIWpFnh2FZJNTSQ6hZWdVr0wUAAAAAgO0SqgAAUncVapxQP/Oyqm+NFQAAAAAAtk+oAgBIVpFnF2E5Sqily7KqFyYLAAAAAAC7IVQBACSpyLNpWN4n1NJdqLnJAgAAAADA7ghVAADJKfLsMCyLxNqalVW9Nl0AAAAAANgdoQoAIEVXocYJ9fOhrOpbYwUAAAAAgN0SqgAAklLk2XlYjhJq6bqs6guTBQAAAACA3ROqAACSUeTZSVg+JtTSfaiZyQIAAAAAwH4IVQAASSjybDJ6vPYjJdOyqtemCwAAAAAA+yFUAQCkoglUjBPq50NZ1bfGCgAAAAAA+yNUAQBEr8iz87C8S6il67KqL0wWAAAAAAD2S6gCAIhakWcnYfmYUEv3oWYmCwAAAAAA+ydUAQBEq8izyejx2o+UTMuqXpsuAAAAAADsn1AFABCzJlAxTqifD2VV3xorAAAAAAD0g1AFABClIs/Ow/IuoZauy6q+MFkAAAAAAOgPoQoAIDpFnp2E5WNCLd2HmpksAAAAAAD0i1AFABCVIs8mo8drP1IyLat6bboAAAAAANAvQhUAQGyaQMU4oX4+lFV9a6wAAAAAANA/QhUAQDSKPDsPy7uEWropq/rCZAEAAAAAoJ+EKgCAKBR5dhyWjwm19BBqarIAAAAAANBfQhUAQO8VeTYZPV77kZJpWdVr0wUAAAAAgP4SqgAAYrAIdZBQP5/Kql4aKwAAAAAA9JtQBQDQa0WezcNymlBLN2VVn5ssAAAAAAD0n1AFANBbRZ4dh+VzQi09hJqaLAAAAAAAxEGoAgDopSLPJmG5SqytaVnVa9MFAAAAAIA4CFUAAH21CHWQUD+fyqpeGisAAAAAAMRDqAIA6J0iz+ZhOU2opZuyqs9NFgAAAAAA4iJUAQD0SpFnx2H5nFBLD6GmJgsAAAAAAPERqgAAeqPIs0lYrhJra1pW9dp0AQAAAAAgPkIVAECfLEIdJNTPp7Kql8YKAAAAAABxEqoAAHqhyLN5WE4TaummrOpzkwUAAAAAgHgJVQAAe1fk2XFYPifU0kOomckCAAAAAEDchCoAgL0q8mwSlqvE2pqVVb0yXQAAAAAAiJtQBQCwbxehDhLq50tZ1VfGCgAAAAAA8ROqAAD2psizWVjOEmrprqzquckCAAAAAEAahCoAgL0o8ux49HhKRSoeQk1NFgAAAAAA0iFUAQDsXJFnk7AsQo0TamtWVvXKdAEAAAAAIB1CFQDAPjQnVBwl1M+XsqqvjBUAAAAAANIiVAEA7FSRZ7OwnCXU0l1Z1XOTBQAAAACA9AhVAAA7U+TZ8ejxlIpUPISamiwAAAAAAKRJqAIA2IkizyZhWYQaJ9TWrKzqlekCAAAAAECahCoAgF1pTqg4SqifL2VVXxkrAAAAAACkS6gCANi6Is9mYTlLqKW7sqrnJgsAAAAAAGkTqgAAtqrIs+PR4ykVqXgINTVZAAAAAABIn1AFALA1RZ5NwrIINU6orVlZ1SvTBQAAAACA9AlVAADb1JxQcZRQP5dlVV8ZKwAAAAAADINQBQCwFUWeNVdknCXU0l2ouckCAAAAAMBwCFUAABtX5Nnh6PHaj1Q8jB6v/VibLgAAAAAADIdQBQCwDc0VGeOE+pmXVX1rrAAAAAAAMCxCFQDARhV5dhGWo4RauiyremGyAAAAAAAwPEIVAMDGFHk2Dcv7hFq6CzU3WQAAAAAAGCahCgBgI4o8OwzLIqGWHkLNyqpemy4AAAAAAAyTUAUAsClXocYJ9TMvq/rWWAEAAAAAYLiEKgCANyvy7CIsRwm1dFlW9cJkAQAAAABg2IQqAIA3KfJsGpb3CbV0F2pusgAAAAAAgFAFAPBqRZ4dhmWRUEsPoWZlVa9NFwAAAAAAEKoAAN7iKtQ4oX7mZVXfGisAAAAAANAQqgAAXqXIs4uwHCXU0nVZ1QuTBQAAAAAAvhKqAABerMizaVjeJ9TSfaiZyQIAAAAAAN8SqgAAXqTIs0lYFom1NS2rem26AAAAAADAt4QqAICXugo1TqifD2VV3xorAAAAAADwPaEKAODZijw7D8u7hFq6Lqv6wmQBAAAAAIAuQhUAwLMUeXYSlo8JtXQfamayAAAAAADAU4QqAICfKvJsMnq89iMl07Kq16YLAAAAAAA8RagCAHiORahxQv18KKv61lgBAAAAAIAfEaoAAH6ovfbjNKGWrsuqvjBZAAAAAADgZ4QqAICfOU+ol/tQMyMFAAAAAACeQ6gCAHhSkWfHYXmXUEvTsqrXJgsAAAAAADyHUAUA8COzhHr5UFb1rZECAAAAAADPJVQBAPzINJE+rsuqvjBOAAAAAADgJYQqAIBO7dUfBwm0cj9K68QNAAAAAABgR4QqAICnHCfSx6ys6rVxAgAAAAAALyVUAQA85TCBHj6VVb00SgAAAAAA4DWEKgCAp5xE/vw3ZVWfGyMAAAAAAPBaQhUAQIoeQk1tAwAAAAAA8BZCFQBAiqZlVa9tAwAAAAAA8BZCFQBAaj6VVb20DQAAAAAAwFsJVQAAKbkpq/rcNgAAAAAAAJsgVAEAPGUZ2fM+hJoaGwAAAAAAsClCFQDAU1aRPe+0rOq1sQEAAAAAAJsiVAEAPOU2omf9VFb10sgAAAAAAIBNEqoAADqVVd2EKh4ieNSb8KznJgYAAAAAAGyaUAUA8CNXPX++JvQxNSYAAAAAAGAbhCoAgB+56PnzTcuqXhsTAAAAAACwDUIVAMCT2itAbnr6eJ/C8y1NCQAAAAAA2BahCgDgZ857+Ex3ZVWfGw0AAAAAALBNQhUAwA+1p0H06bSKh1BTkwEAAAAAALZNqAIAeI7Z6DHM0ItnKat6ZSQAAAAAAMC2CVUAAD/VhhhmPXiUL+FZrkwEAAAAAADYBaEKAOBZ2jDDn/f4CJfhGeYmAQAAAAAA7IpQBQDwbGVVL8LyZQ9/dBOomJkAAAAAAACwS0IVAMCLtKdF7PLECoEKAAAAAABgL4QqAIAXa0+s+MdQ91v8Yx5C/VmgAgAAAAAA2BehCgDgVcqqXobleLSd60Bumt+7DW8AAAAAAADshVAFAPBqZVWv2+tA/iHU5ejxdIm3uA71j+H3PAm1ssMAAAAAAMA+/WoLAIC3agMQsyLPJmGdtnUSavyMf705leKqKUEKAAAAAACgT4QqAICNaU6uCMuirVGRZ4dhaaoJWxy3/9iqreaUi1u7BgAAAAAA9JVQBQCwNe3JE6v2l1d2BAAAAAAAiMkvtgAAAAAAAAAA4I+EKgAAAAAAAAAAOghVAAAAAAAAAAB0EKoAAAAAAAAAAOggVAEAAAAAAAAA0EGoAgAAAAAAAACgg1AFAAAAAAAAAEAHoQoAAAAAAAAAgA5CFQAAAAAAAAAAHYQqAAAAAAAAAAA6CFUAAAAAAAAAAHQQqgAAAAAAAAAA6CBUAQAAAAAAAADQQagCAAAAAAAAAKCDUAUAAAAAAAAAQAehCgAAAAAAAACADkIVAAAAAAAAAAAdhCoAAAAAAAAAADoIVQAAAAAAAAAAdBCqAAAAAAAAAADoIFQBAAAAAAAAANBBqAIAAAAAAAAAoINQBQAAAAAAAABAB6EKAAAAAAAAAIAOQhUAAAAAAAAAAB2EKgAAAAAAAAAAOghVAAAAAAAAAAB0EKoAAAAAAAAAAOggVAEAAAAAAAAA0EGoAgAAAAAAAACgg1AFAAAAAAAAAEAHoQoAAAAAAAAAgA5CFQAAAAAAAAAAHYQqAAAAAAAAAAA6CFUAAAAAAAAAAHQQqgAAAAAAAAAA6CBUAQAAAAAAAADQQagCAAAAAAAAAKCDUAUAAAAAAAAAQAehCgAAAAAAAACADkIVAAAAAAAAAAAdhCoAAAAAAAAAADoIVQAAAAAAAAAAdPjVFgDAH/z3Is/sAgAAAAB99BDqtv36tq1lWdUrWwMAmydUAQAAAAAAEI9xqHft11/XUZFn92G5CLUoq3ptmwBgM1z/AQAAAAAAEL+DUJ9D/VORZxehJrYEAN5OqAIAAAAAACAt70Otijyb2woAeBuhCgAAAAAAgPQ014R8LvLsyqkVAPB6QhUAAAAAAADpOg21FKwAgNcRqgAAAAAAAEjb0UiwAgBeRagCAAAAAAAgfYIVAPAKQhUAAAAAAADD0AQrLmwDADyfUAUAAAAAAMBwnBV5NrUNAPA8QhUAAAAAAADDcuEaEAB4HqEKAAAAAACAYTkINbcNAPBzQhUAAAAAAADDI1QBAM8gVAEAAAAAADA84yLPZrYBAH5MqAIAAAAAAGCYprYAAH5MqAIAAAAAAGCYTm0BAPyYUAUAAAAAAMBAFXl2YhcA4GlCFQAAAAAAAMN1bAsA4GlCFQAAAAAAAMM1sQUA8DShCgAAAAAAgOE6sQUA8DShCgAAAAAAAACADkIVAAAAAAAAAAAdhCoAAAAAAAAAADoIVQAAAAAAAAzX0hYAwNOEKgDwFzQAAAAAGK61LQCApwlVALBLt7YAAAAAAHrFf7MDgB/40++//24XANiZIs9WYTmwEwAAAACwf2VV/8kuAMDTnFQBwK5d2QIAAAAA6IVrWwAAPyZUAcCuLWwBAAAAAPSCH4ACgJ9w/QcAO1fk2TIs7+wEAAAAAOzNQ1nVE9sAAD/mpAoA9uHCFgAAAADAXvlvdADwDEIVAOxcWdXNsYI3dgIAAAAA9uJ+JFQBAM8iVAHAvsxtAQAAAADsxbys6rVtAICfE6oAYC/CX9puw/LBTgAAAADATl22J8kCAM8gVAHA3oS/vDVHDF7aCQAAAADYibuRE2QB4EX+9Pvvv9sFAPaqyLPm1IojOwEAAAAAW9MEKk5c+wEAL+OkCgD64CTUtW0AAAAAgK0QqACAV3JSBQC9UeRZcx3IezsBAAAAABvTXL87F6gAgNcRqgCgV4o8OwnLItSB3QAAAACAV3sINSur+spWAMDrCVUA0EtFnp2HZR5qbDcAAAAA4NmaMEVzIuyF0ykA4O2EKgDotSLPZmGZhjq1GwAAAADwpLvR4wmwC2EKANgcoQoAolDk2SQsJ6GO2xUAAAAAhm4ZatWsZVWvbAcAbJ5QBQAAAAAAAABAh19sAQAAAAAAAADAHwlVAAAAAAAAAAB0EKoAAAAAAAAAAOggVAEAAAAAAAAA0EGoAgAAAAAAAACgg1AFAAAAAAAAAEAHoQoAAAAAAAAAgA5CFQAAAAAAAAAAHYQqAAAAAAAAAAA6CFUAAAAAAAAAAHQQqgAAAAAAAAAA6CBUAQAAAAAAAADQQagCAAAAAAAAAKCDUAUAAAAAAAAAQAehCgAAAAAAAACADkIVAAAAAAAAAAAdhCoAAAAAAAAAADoIVQAAAAAAAAAAdBCqAAAAAAAAAADoIFQBAAAAAAAAANBBqAIAAAAAAAAAoINQBQAAAAAAAABAB6EKAAAAAAAAAIAOQhUAAAAAAAAAAB2EKgAA4P+zawcCAAAAAIL8rRcYoTgCAAAAAIAhVQAAAAAAAAAADKkCAAAAAAAAAGBIFQAAAAAAAAAAQ6oAAAAAAAAAABhSBQAAAAAAAADAkCoAAAAAAAAAAIZUAQAAAAAAAAAwpAoAAAAAAAAAgCFVAAAAAAAAAAAMqQIAAAAAAAAAYEgVAAAAAAAAAABDqgAAAAAAAAAAGFIFAAAAAAAAAMCQKgAAAAAAAAAAhlQBAAAAAAAAADCkCgAAAAAAAACAIVUAAAAAAAAAAAypAgAAAAAAAABgSBUAAAAAAAAAAEOqAAAAAAAAAAAYUgUAAAAAAAAAwJAqAAAAAAAAAACGVAEAAAAAAAAAMKQKAAAAAAAAAIAhVQAAAAAAAAAADKkCAAAAAAAAAGBIFQAAAAAAAAAAQ6oAAAAAAAAAABhSBQAAAAAAAADAkCoAAAAAAAAAAIZUAQAAAAAAAAAwpAoAAAAAAAAAgCFVAAAAAAAAAAAMqQIAAAAAAAAAYEgVAAAAAAAAAABDqgAAAAAAAAAAGFIFAAAAAAAAAMCQKgAAAAAAAAAAhlQBAAAAAAAAADCkCgAAAAAAAACAIVUAAAAAAAAAAAypAgAAAAAAAABgSBUAAAAAAAAAAEOqAAAAAAAAAAAYUgUAAAAAAAAAwJAqAAAAAAAAAACGVAEAAAAAAAAAMKQKAAAAAAAAAIAhVQAAAAAAAAAADKkCAAAAAAAAAGBIFQAAAAAAAAAAQ6oAAAAAAAAAABhSBQAAAAAAAADAkCoAAAAAAAAAAIZUAQAAAAAAAAAwpAoAAAAAAAAAgCFVAAAAAAAAAAAMqQIAAAAAAAAAYEgVAAAAAAAAAABDqgAAAAAAAAAAGFIFAAAAAAAAAMCQKgAAAAAAAAAAhlQBAAAAAAAAADCkCgAAAAAAAACAIVUAAAAAAAAAAAypAgAAAAAAAABgSBUAAAAAAAAAAEOqAAAAAAAAAAAYUgUAAAAAAAAAwJAqAAAAAAAAAACGVAEAAAAAAAAAMKQKAAAAAAAAAIAhVQAAAAAAAAAADKkCAAAAAAAAAGBIFQAAAAAAAAAAQ6oAAAAAAAAAABhSBQAAAAAAAADAkCoAAAAAAAAAAIZUAQAAAAAAAAAwpAoAAAAAAAAAgCFVAAAAAAAAAAAMqQIAAAAAAAAAYEgVAAAAAAAAAABDqgAAAAAAAAAAGFIFAAAAAAAAAMCQKgAAAAAAAAAAhlQBAAAAAAAAADCkCgAAAAAAAACAIVUAAAAAAAAAAAypAgAAAAAAAABgSBUAAAAAAAAAAEOqAAAAAAAAAAAYUgUAAAAAAAAAwJAqAAAAAAAAAACGVAEAAAAAAAAAMKQKAAAAAAAAAIAhVQAAAAAAAAAADKkCAAAAAAAAAGBIFQAAAAAAAAAAQ6oAAAAAAAAAABhSBQAAAAAAAADAkCoAAAAAAAAAAIZUAQAAAAAAAAAwpAoAAAAAAAAAgCFVAAAAAAAAAAAMqQIAAAAAAAAAYEgVAAAAAAAAAABDqgAAAAAAAAAAGFIFAAAAAAAAAMCQKgAAAAAAAAAAhlQBAAAAAAAAADCkCgAAAAAAAACAIVUAAAAAAAAAAAypAgAAAAAAAABgSBUAAAAAAAAAAEOqAAAAAAAAAAAYUgUAAAAAAAAAwJAqAAAAAAAAAACGVAEAAAAAAAAAMKQKAAAAAAAAAIAhVQAAAAAAAAAADKkCAAAAAAAAAGBIFQAAAAAAAAAAQ6oAAAAAAAAAABhSBQAAAAAAAADAkCoAAAAAAAAAAIZUAQAAAAAAAAAwpAoAAAAAAAAAgCFVAAAAAAAAAAAMqQIAAAAAAAAAYEgVAAAAAAAAAABDqgAAAAAAAAAAGFIFAAAAAAAAAMCQKgAAAAAAAAAAhlQBAAAAAAAAADCkCgAAAAAAAACAIVUAAAAAAAAAAAypAgAAAAAAAABgSBUAAAAAAAAAAEOqAAAAAAAAAAAYUgUAAAAAAAAAwJAqAAAAAAAAAACGVAEAAAAAAAAAMKQKAAAAAAAAAIAhVQAAAAAAAAAADKkCAAAAAAAAAGBIFQAAAAAAAAAAQ6oAAAAAAAAAABhSBQAAAAAAAADAkCoAAAAAAAAAAIZUAQAAAAAAAAAwpAoAAAAAAAAAgCFVAAAAAAAAAAAMqQIAAAAAAAAAYEgVAAAAAAAAAABDqgAAAAAAAAAAGFIFAAAAAAAAAMCQKgAAAAAAAAAAhlQBAAAAAAAAADCkCgAAAAAAAACAIVUAAAAAAAAAAAypAgAAAAAAAABgSBUAAAAAAAAAAEOqAAAAAAAAAAAYUgUAAAAAAAAAwJAqAAAAAAAAAACGVAEAAAAAAAAAMKQKAAAAAAAAAIAhVQAAAAAAAAAADKkCAAAAAAAAAGBIFQAAAAAAAAAAQ6oAAAAAAAAAABhSBQAAAAAAAADAkCoAAAAAAAAAAIZUAQAAAAAAAAAwpAoAAAAAAAAAgCFVAAAAAAAAAAAMqQIAAAAAAAAAYEgVAAAAAAAAAABDqgAAAAAAAAAAGFIFAAAAAAAAAMCQKgAAAAAAAAAAhlQBAAAAAAAAADCkCgAAAAAAAACAIVUAAAAAAAAAAAypAgAAAAAAAABgSBUAAAAAAAAAAEOqAAAAAAAAAAAYUgUAAAAAAAAAwJAqAAAAAAAAAACGVAEAAAAAAAAAMKQKAAAAAAAAAIAhVQAAAAAAAAAADKkCAAAAAAAAAGBIFQAAAAAAAAAAQ6oAAAAAAAAAABhSBQAAAAAAAADAkCoAAAAAAAAAAIZUAQAAAAAAAAAwpAoAAAAAAAAAgCFVAAAAAAAAAAAMqQIAAAAAAAAAYEgVAAAAAAAAAABDqgAAAAAAAAAAGFIFAAAAAAAAAMCQKgAAAAAAAAAAhlQBAAAAAAAAADCkCgAAAAAAAACAIVUAAAAAAAAAAAypAgAAAAAAAABgSBUAAAAAAAAAAEOqAAAAAAAAAAAYUgUAAAAAAAAAwJAqAAAAAAAAAACGVAEAAAAAAAAAMKQKAAAAAAAAAIAhVQAAAAAAAAAADKkCAAAAAAAAAGBIFQAAAAAAAAAAQ6oAAAAAAAAAABhSBQAAAAAAAADAkCoAAAAAAAAAAIZUAQAAAAAAAAAwpAoAAAAAAAAAgCFVAAAAAAAAAAAMqQIAAAAAAAAAYEgVAAAAAAAAAABDqgAAAAAAAAAAGFIFAAAAAAAAAMCQKgAAAAAAAAAAhlQBAAAAAAAAADCkCgAAAAAAAACAIVUAAAAAAAAAAAypAgAAAAAAAABgSBUAAAAAAAAAAEOqAAAAAAAAAAAYUgUAAAAAAAAAwJAqAAAAAAAAAABGArRrBwIAAAAAgvytFxihOJIqAAAAAAAAAACGVAEAAAAAAAAAMKQKAAAAAAAAAIAhVQAAAAAAAAAADKkCAAAAAAAAAGBIFQAAAAAAAAAAQ6oAAAAAAAAAABhSBQAAAAAAAADAkCoAAAAAAAAAAIZUAQAAAAAAAAAwpAoAAAAAAAAAgCFVAAAAAAAAAAAMqQIAAAAAAAAAYEgVAAAAAAAAAABDqgAAAAAAAAAAGFIFAAAAAAAAAMCQKgAAAAAAAAAAhlQBAAAAAAAAADCkCgAAAAAAAACAIVUAAAAAAAAAAAypAgAAAAAAAABgSBUAAAAAAAAAAEOqAAAAAAAAAAAYUgUAAAAAAAAAwJAqAAAAAAAAAACGVAEAAAAAAAAAMKQKAAAAAAAAAIAhVQAAAAAAAAAADKkCAAAAAAAAAGBIFQAAAAAAAAAAQ6oAAAAAAAAAABhSBQAAAAAAAADAkCoAAAAAAAAAAIZUAQAAAAAAAAAwpAoAAAAAAAAAgCFVAAAAAAAAAAAMqQIAAAAAAAAAYEgVAAAAAAAAAABDqgAAAAAAAAAAGFIFAAAAAAAAAMCQKgAAAAAAAAAAhlQBAAAAAAAAADCkCgAAAAAAAACAIVUAAAAAAAAAAAypAgAAAAAAAABgSBUAAAAAAAAAAEOqAAAAAAAAAAAYUgUAAAAAAAAAwJAqAAAAAAAAAACGVAEAAAAAAAAAMKQKAAAAAAAAAIAhVQAAAAAAAAAADKkCAAAAAAAAAGBIFQAAAAAAAAAAQ6oAAAAAAAAAABhSBQAAAAAAAADAkCoAAAAAAAAAAIZUAQAAAAAAAAAwpAoAAAAAAAAAgCFVAAAAAAAAAAAMqQIAAAAAAAAAYEgVAAAAAAAAAABDqgAAAAAAAAAAGFIFAAAAAAAAAMCQKgAAAAAAAAAAhlQBAAAAAAAAADCkCgAAAAAAAACAIVUAAAAAAAAAAAypAgAAAAAAAABgSBUAAAAAAAAAAEOqAAAAAAAAAAAYUgUAAAAAAAAAwJAqAAAAAAAAAACGVAEAAAAAAAAAMKQKAAAAAAAAAIAhVQAAAAAAAAAADKkCAAAAAAAAAGBIFQAAAAAAAAAAQ6oAAAAAAAAAABhSBQAAAAAAAADAkCoAAAAAAAAAAIZUAQAAAAAAAAAwpAoAAAAAAAAAgCFVAAAAAAAAAAAMqQIAAAAAAAAAYEgVAAAAAAAAAABDqgAAAAAAAAAAGFIFAAAAAAAAAMCQKgAAAAAAAAAAhlQBAAAAAAAAADCkCgAAAAAAAACAIVUAAAAAAAAAAAypAgAAAAAAAABgSBUAAAAAAAAAAEOqAAAAAAAAAAAYUgUAAAAAAAAAwJAqAAAAAAAAAACGVAEAAAAAAAAAMKQKAAAAAAAAAIAhVQAAAAAAAAAADKkCAAAAAAAAAGBIFQAAAAAAAAAAQ6oAAAAAAAAAABhSBQAAAAAAAADAkCoAAAAAAAAAAIZUAQAAAAAAAAAwpAoAAAAAAAAAgCFVAAAAAAAAAAAMqQIAAAAAAAAAYEgVAAAAAAAAAABDqgAAAAAAAAAAGFIFAAAAAAAAAMCQKgAAAAAAAAAAhlQBAAAAAAAAADCkCgAAAAAAAACAIVUAAAAAAAAAAAypAgAAAAAAAABgSBUAAAAAAAAAAEOqAAAAAAAAAAAYUgUAAAAAAAAAwJAqAAAAAAAAAACGVAEAAAAAAAAAMKQKAAAAAAAAAIAhVQAAAAAAAAAADKkCAAAAAAAAAGBIFQAAAAAAAAAAQ6oAAAAAAAAAABhSBQAAAAAAAADAkCoAAAAAAAAAAIZUAQAAAAAAAAAwpAoAAAAAAAAAgCFVAAAAAAAAAAAMqQIAAAAAAAAAYEgVAAAAAAAAAABDqgAAAAAAAAAAGFIFAAAAAAAAAMCQKgAAAAAAAAAAhlQBAAAAAAAAADCkCgAAAAAAAACAIVUAAAAAAAAAAAypAgAAAAAAAABgSBUAAAAAAAAAAEOqAAAAAAAAAAAYUgUAAAAAAAAAwJAqAAAAAAAAAACGVAEAAAAAAAAAMKQKAAAAAAAAAIAhVQAAAAAAAAAADKkCAAAAAAAAAGBIFQAAAAAAAAAAQ6oAAAAAAAAAABhSBQAAAAAAAADAkCoAAAAAAAAAAIZUAQAAAAAAAAAwpAoAAAAAAAAAgCFVAAAAAAAAAAAMqQIAAAAAAAAAYEgVAAAAAAAAAABDqgAAAAAAAAAAGFIFAAAAAAAAAMCQKgAAAAAAAAAAhlQBAAAAAAAAADCkCgAAAAAAAACAIVUAAAAAAAAAAAypAgAAAAAAAABgSBUAAAAAAAAAAEOqAAAAAAAAAAAYAc2lCJihWuKvAAAAAElFTkSuQmCC;" parent="1" vertex="1">
          <mxGeometry x="560" y="1160" width="50" height="50" as="geometry" />
        </mxCell>
        <mxCell id="v1EW0JT8d4S7AqYUZW40-15" value="Číselníky" style="html=1;outlineConnect=0;whiteSpace=wrap;fillColor=#FF9800;shape=mxgraph.archimate3.application;appType=passive;archiType=square;verticalAlign=middle;strokeColor=#000000;" parent="1" vertex="1">
          <mxGeometry x="610" y="1780" width="180" height="50" as="geometry" />
        </mxCell>
        <mxCell id="v1EW0JT8d4S7AqYUZW40-16" value="" style="shape=image;verticalLabelPosition=bottom;labelBackgroundColor=default;verticalAlign=top;aspect=fixed;imageAspect=0;editableCssRules=.*;image=data:image/svg+xml,PHN2ZyB4bWxuczp4bGluaz0iaHR0cDovL3d3dy53My5vcmcvMTk5OS94bGluayIgeG1sbnM9Imh0dHA6Ly93d3cudzMub3JnLzIwMDAvc3ZnIiB4bWw6c3BhY2U9InByZXNlcnZlIiBzdHlsZT0iZW5hYmxlLWJhY2tncm91bmQ6bmV3IDAgMCAyNTUgMjU1OyIgdmlld0JveD0iNTkuMjk5OTk5MjM3MDYwNTUgNDYuMDk5OTk4NDc0MTIxMDk0IDEzNi4zMDAwMDMwNTE3NTc4IDE2Mi42OTk5ODE2ODk0NTMxMiIgeT0iMHB4IiB4PSIwcHgiIGlkPSJMYXllcl8xIiB2ZXJzaW9uPSIxLjEiIHdpZHRoPSIxMzYuMzAwMDAzMDUxNzU3OCIgaGVpZ2h0PSIxNjIuNjk5OTgxNjg5NDUzMTIiPiYjeGE7PHBhdGggZD0iTTE5Mi4zLDY4bC02My4xLTIxLjZjLTEuMS0wLjQtMi4yLTAuNC0zLjIsMEw2Mi43LDY4Yy0yLDAuNy0zLjQsMi42LTMuNCw0Ljd2NTQuMWMwLDYyLjksNjQuMiw4MS40LDY0LjksODEuNiYjMTA7JiM5O2MxLjEsMC4zLDIuMiwwLjQsMy4zLDAuNGMxLjEsMCwyLjItMC4xLDMuMy0wLjRjMC42LTAuMiw2NC44LTE4LjksNjQuOC04MS42VjcyLjhDMTk1LjYsNzAuNiwxOTQuMyw2OC43LDE5Mi4zLDY4eiBNNjkuNCw3Ni4zJiMxMDsmIzk7bDU4LjEtMTkuOWwzMi4xLDExbC04NS4yLDg1LjljLTMuMS03LjYtNS0xNi40LTUtMjYuNVY3Ni4zeiBNNzkuMiwxNjIuN2w5MS05MS43bDE1LjUsNS4zdjYuMWwtOTQuNCw5NS4yJiMxMDsmIzk7Qzg2LjgsMTczLjQsODIuNywxNjguNCw3OS4yLDE2Mi43eiBNMTI4LjEsMTk4LjhjLTAuNCwwLjEtMC45LDAuMS0xLjIsMGMtMC4zLTAuMS0xNC00LjItMjgtMTQuN2w4Ni44LTg3LjV2MzAuMyYjMTA7JiM5O0MxODUuNiwxODEuNywxMzAuNCwxOTguMSwxMjguMSwxOTguOHoiLz4mI3hhOzwvc3ZnPg==;" parent="1" vertex="1">
          <mxGeometry x="85" y="1460" width="30" height="35.96" as="geometry" />
        </mxCell>
        <mxCell id="xFwcz_XSPE966e-ZJMYt-2" value="Stav služieb, SLA" style="html=1;outlineConnect=0;whiteSpace=wrap;fillColor=#FFFFFF;shape=mxgraph.archimate3.application;appType=passive;archiType=square;verticalAlign=middle;strokeColor=#000000;" parent="1" vertex="1">
          <mxGeometry x="1010" y="1420" width="180" height="50" as="geometry" />
        </mxCell>
      </root>
    </mxGraphModel>
  </diagram>
</mxfile>
